<svg width="89" height="91" viewBox="0 0 89 91" fill="none" xmlns="http://www.w3.org/2000/svg">
<g filter="url(#filter0_i_149_2671)">
<ellipse cx="44.5" cy="45.0494" rx="44.5" ry="45.0494" fill="#ACACAC"/>
<ellipse cx="44.5" cy="45.0494" rx="44.5" ry="45.0494" fill="url(#paint0_linear_149_2671)"/>
<ellipse cx="44.5" cy="45.0494" rx="44.5" ry="45.0494" fill="url(#paint1_linear_149_2671)"/>
</g>
<path d="M40.8462 27C38.5685 27 36.6923 28.8631 36.6923 31.125V33.875H39.4615V31.125C39.4615 30.3509 40.0666 29.75 40.8462 29.75H49.1538C49.9334 29.75 50.5385 30.3509 50.5385 31.125V33.875H53.3077V31.125C53.3077 28.8631 51.4315 27 49.1538 27H40.8462ZM31.1538 35.25C30.0522 35.25 28.9956 35.6846 28.2166 36.4582C27.4376 37.2318 27 38.281 27 39.375V55.875C27 56.969 27.4376 58.0182 28.2166 58.7918C28.9956 59.5654 30.0522 60 31.1538 60H58.8462C61.1391 60 63 58.152 63 55.875V39.375C63 38.281 62.5624 37.2318 61.7834 36.4582C61.0044 35.6846 59.9478 35.25 58.8462 35.25H31.1538ZM45 39.2458C46.1083 39.2448 47.206 39.461 48.2301 39.8817C49.2542 40.3025 50.1848 40.9197 50.9685 41.698C51.7522 42.4762 52.3737 43.4003 52.7974 44.4173C53.2211 45.4344 53.4388 46.5244 53.4378 47.625C53.4388 48.7256 53.2211 49.8156 52.7974 50.8327C52.3737 51.8497 51.7522 52.7738 50.9685 53.552C50.1848 54.3303 49.2542 54.9475 48.2301 55.3683C47.206 55.789 46.1083 56.0052 45 56.0042C43.8917 56.0052 42.794 55.789 41.7699 55.3683C40.7458 54.9475 39.8152 54.3303 39.0315 53.552C38.2478 52.7738 37.6263 51.8497 37.2026 50.8327C36.7789 49.8156 36.5612 48.7256 36.5622 47.625C36.5612 46.5244 36.7789 45.4344 37.2026 44.4173C37.6263 43.4003 38.2478 42.4762 39.0315 41.698C39.8152 40.9197 40.7458 40.3025 41.7699 39.8817C42.794 39.461 43.8917 39.2448 45 39.2458ZM43.6154 43.5V46.25H40.8462V49H43.6154V51.75H46.3846V49H49.1538V46.25H46.3846V43.5H43.6154Z" fill="url(#paint2_linear_149_2671)"/>
<defs>
<filter id="filter0_i_149_2671" x="0" y="0" width="89.8782" height="90.9778" filterUnits="userSpaceOnUse" color-interpolation-filters="sRGB">
<feFlood flood-opacity="0" result="BackgroundImageFix"/>
<feBlend mode="normal" in="SourceGraphic" in2="BackgroundImageFix" result="shape"/>
<feColorMatrix in="SourceAlpha" type="matrix" values="0 0 0 0 0 0 0 0 0 0 0 0 0 0 0 0 0 0 127 0" result="hardAlpha"/>
<feOffset dx="0.878173" dy="0.878173"/>
<feGaussianBlur stdDeviation="2.63452"/>
<feComposite in2="hardAlpha" operator="arithmetic" k2="-1" k3="1"/>
<feColorMatrix type="matrix" values="0 0 0 0 1 0 0 0 0 1 0 0 0 0 1 0 0 0 0.6 0"/>
<feBlend mode="normal" in2="shape" result="effect1_innerShadow_149_2671"/>
</filter>
<linearGradient id="paint0_linear_149_2671" x1="2.98705" y1="70.8865" x2="71.8524" y2="68.4438" gradientUnits="userSpaceOnUse">
<stop stop-color="#F76B2A"/>
<stop offset="1" stop-color="#FC5A37"/>
</linearGradient>
<linearGradient id="paint1_linear_149_2671" x1="67.3355" y1="-31.416" x2="32.7901" y2="95.5036" gradientUnits="userSpaceOnUse">
<stop stop-color="#318E88"/>
<stop offset="1" stop-color="#73C1A8"/>
</linearGradient>
<linearGradient id="paint2_linear_149_2671" x1="44.9999" y1="38.2619" x2="44.9999" y2="97.4523" gradientUnits="userSpaceOnUse">
<stop stop-color="white"/>
<stop offset="1" stop-color="white" stop-opacity="0"/>
</linearGradient>
</defs>
</svg>
