<svg width="89" height="91" viewBox="0 0 89 91" fill="none" xmlns="http://www.w3.org/2000/svg">
<g filter="url(#filter0_i_149_2682)">
<ellipse cx="44.5" cy="45.0494" rx="44.5" ry="45.0494" fill="#ACACAC"/>
<ellipse cx="44.5" cy="45.0494" rx="44.5" ry="45.0494" fill="url(#paint0_linear_149_2682)"/>
<ellipse cx="44.5" cy="45.0494" rx="44.5" ry="45.0494" fill="url(#paint1_linear_149_2682)"/>
</g>
<path d="M57.2876 30.3015L46.5416 26.3055C45.428 25.8982 43.6109 25.8982 42.4973 26.3055L31.7513 30.3015C29.6803 31.0775 28 33.4828 28 35.6748V51.3873C28 52.9586 29.0355 55.0342 30.3055 55.9653L41.0514 63.938C42.9466 65.354 46.0532 65.354 47.9484 63.938L58.6943 55.9653C59.9643 55.0148 60.9998 52.9586 60.9998 51.3873V35.6748C61.0194 33.4828 59.3391 31.0775 57.2876 30.3015ZM51.3089 41.1645L42.9076 49.5057C42.6145 49.7967 42.2433 49.9325 41.872 49.9325C41.5008 49.9325 41.1296 49.7967 40.8365 49.5057L37.7104 46.3632C37.1438 45.8007 37.1438 44.8696 37.7104 44.307C38.277 43.7445 39.2149 43.7445 39.7815 44.307L41.8916 46.402L49.2574 39.0889C49.824 38.5264 50.7619 38.5264 51.3285 39.0889C51.8951 39.6515 51.8951 40.602 51.3089 41.1645Z" fill="url(#paint2_linear_149_2682)"/>
<defs>
<filter id="filter0_i_149_2682" x="0" y="0" width="89.8782" height="90.9778" filterUnits="userSpaceOnUse" color-interpolation-filters="sRGB">
<feFlood flood-opacity="0" result="BackgroundImageFix"/>
<feBlend mode="normal" in="SourceGraphic" in2="BackgroundImageFix" result="shape"/>
<feColorMatrix in="SourceAlpha" type="matrix" values="0 0 0 0 0 0 0 0 0 0 0 0 0 0 0 0 0 0 127 0" result="hardAlpha"/>
<feOffset dx="0.878173" dy="0.878173"/>
<feGaussianBlur stdDeviation="2.63452"/>
<feComposite in2="hardAlpha" operator="arithmetic" k2="-1" k3="1"/>
<feColorMatrix type="matrix" values="0 0 0 0 1 0 0 0 0 1 0 0 0 0 1 0 0 0 0.6 0"/>
<feBlend mode="normal" in2="shape" result="effect1_innerShadow_149_2682"/>
</filter>
<linearGradient id="paint0_linear_149_2682" x1="2.98705" y1="70.8865" x2="71.8524" y2="68.4438" gradientUnits="userSpaceOnUse">
<stop stop-color="#F76B2A"/>
<stop offset="1" stop-color="#FC5A37"/>
</linearGradient>
<linearGradient id="paint1_linear_149_2682" x1="67.3355" y1="-31.416" x2="32.7901" y2="95.5036" gradientUnits="userSpaceOnUse">
<stop stop-color="#318E88"/>
<stop offset="1" stop-color="#73C1A8"/>
</linearGradient>
<linearGradient id="paint2_linear_149_2682" x1="44.4999" y1="39.3095" x2="44.4999" y2="109.262" gradientUnits="userSpaceOnUse">
<stop stop-color="white"/>
<stop offset="1" stop-color="white" stop-opacity="0"/>
</linearGradient>
</defs>
</svg>
