<svg width="89" height="91" viewBox="0 0 89 91" fill="none" xmlns="http://www.w3.org/2000/svg">
<g filter="url(#filter0_i_149_2719)">
<ellipse cx="44.5" cy="45.0494" rx="44.5" ry="45.0494" fill="#ACACAC"/>
<ellipse cx="44.5" cy="45.0494" rx="44.5" ry="45.0494" fill="url(#paint0_linear_149_2719)"/>
<ellipse cx="44.5" cy="45.0494" rx="44.5" ry="45.0494" fill="url(#paint1_linear_149_2719)"/>
</g>
<path fill-rule="evenodd" clip-rule="evenodd" d="M39.2784 29.0623C37.3893 29.362 35.6883 30.5157 34.7013 32.1664C34.4136 32.6475 34.1915 33.244 33.2669 36.0169L32.173 39.2981L38.3365 39.3157C41.7264 39.3254 47.2735 39.3254 50.6633 39.3157L56.8265 39.2981L55.7339 36.0182C54.4602 32.195 54.3637 31.9921 53.3096 30.9236C51.0378 28.6207 47.4911 28.3538 44.9513 30.2947L44.5 30.6396L44.039 30.286C42.78 29.3204 40.8226 28.8173 39.2784 29.0623ZM27.0359 42.3491C27.1177 44.5113 28.1006 46.158 29.8174 47.0089C31.062 47.6258 29.6572 47.5719 44.5 47.5719C59.3428 47.5719 57.938 47.6258 59.1826 47.0089C60.8994 46.158 61.8823 44.5113 61.9641 42.3491L62 41.4011H44.5H27L27.0359 42.3491ZM35.9295 50.8245C34.6138 50.9897 33.56 51.222 32.5542 51.5686C32.0738 51.7342 31.9705 51.7433 30.5908 51.7433H29.1345V52.7776V53.8118H30.1501H31.1656L31.2121 54.2877C31.7543 59.8434 38.4343 62.0034 42.0254 57.7844C42.821 56.8497 43.3042 55.6555 43.4442 54.2772L43.4915 53.8118H44.4991H45.5068L45.5532 54.2877C46.0954 59.8434 52.7754 62.0034 56.3665 57.7844C57.1621 56.8497 57.6453 55.6555 57.7854 54.2772L57.8327 53.8118H58.8491H59.8655V52.7776V51.7433H58.4092C57.026 51.7433 56.9274 51.7345 56.4458 51.5674C53.3894 50.5071 49.8931 50.5198 46.7941 51.6024C46.4257 51.7311 46.2272 51.7433 44.5021 51.7433H42.6135L42.0366 51.5465C40.2423 50.9342 37.571 50.6183 35.9295 50.8245Z" fill="url(#paint2_linear_149_2719)"/>
<defs>
<filter id="filter0_i_149_2719" x="0" y="0" width="89.8782" height="90.9778" filterUnits="userSpaceOnUse" color-interpolation-filters="sRGB">
<feFlood flood-opacity="0" result="BackgroundImageFix"/>
<feBlend mode="normal" in="SourceGraphic" in2="BackgroundImageFix" result="shape"/>
<feColorMatrix in="SourceAlpha" type="matrix" values="0 0 0 0 0 0 0 0 0 0 0 0 0 0 0 0 0 0 127 0" result="hardAlpha"/>
<feOffset dx="0.878173" dy="0.878173"/>
<feGaussianBlur stdDeviation="2.63452"/>
<feComposite in2="hardAlpha" operator="arithmetic" k2="-1" k3="1"/>
<feColorMatrix type="matrix" values="0 0 0 0 1 0 0 0 0 1 0 0 0 0 1 0 0 0 0.6 0"/>
<feBlend mode="normal" in2="shape" result="effect1_innerShadow_149_2719"/>
</filter>
<linearGradient id="paint0_linear_149_2719" x1="2.98705" y1="70.8865" x2="71.8524" y2="68.4438" gradientUnits="userSpaceOnUse">
<stop stop-color="#F76B2A"/>
<stop offset="1" stop-color="#FC5A37"/>
</linearGradient>
<linearGradient id="paint1_linear_149_2719" x1="67.3355" y1="-31.416" x2="32.7901" y2="95.5036" gradientUnits="userSpaceOnUse">
<stop stop-color="#318E88"/>
<stop offset="1" stop-color="#73C1A8"/>
</linearGradient>
<linearGradient id="paint2_linear_149_2719" x1="44.4999" y1="39.5794" x2="44.4999" y2="95.1825" gradientUnits="userSpaceOnUse">
<stop stop-color="white"/>
<stop offset="1" stop-color="white" stop-opacity="0"/>
</linearGradient>
</defs>
</svg>
