<svg width="89" height="91" viewBox="0 0 89 91" fill="none" xmlns="http://www.w3.org/2000/svg">
<g filter="url(#filter0_i_149_2730)">
<ellipse cx="44.5" cy="45.0494" rx="44.5" ry="45.0494" fill="#ACACAC"/>
<ellipse cx="44.5" cy="45.0494" rx="44.5" ry="45.0494" fill="url(#paint0_linear_149_2730)"/>
<ellipse cx="44.5" cy="45.0494" rx="44.5" ry="45.0494" fill="url(#paint1_linear_149_2730)"/>
</g>
<path d="M46.9667 49.0185H42.3596V51.062H50.6449V54.3315H42.3596V58.0469H37.2695V54.3315H34.483V51.062H37.2695V49.0185H34.483V44.5229H37.2695V32.0392H46.9667C49.4188 32.0392 51.4871 32.8813 53.1714 34.5656C54.8805 36.25 55.735 38.281 55.735 40.6589C55.735 43.0367 54.8928 45.0306 53.2085 46.6406C51.5242 48.2259 49.4436 49.0185 46.9667 49.0185ZM42.3596 36.832V44.5229H46.9667C48.007 44.5229 48.8739 44.1513 49.5675 43.4083C50.2858 42.6652 50.6449 41.7487 50.6449 40.6589C50.6449 39.569 50.2858 38.665 49.5675 37.9466C48.8739 37.2036 48.007 36.832 46.9667 36.832H42.3596Z" fill="url(#paint2_linear_149_2730)"/>
<defs>
<filter id="filter0_i_149_2730" x="0" y="0" width="89.8782" height="90.9778" filterUnits="userSpaceOnUse" color-interpolation-filters="sRGB">
<feFlood flood-opacity="0" result="BackgroundImageFix"/>
<feBlend mode="normal" in="SourceGraphic" in2="BackgroundImageFix" result="shape"/>
<feColorMatrix in="SourceAlpha" type="matrix" values="0 0 0 0 0 0 0 0 0 0 0 0 0 0 0 0 0 0 127 0" result="hardAlpha"/>
<feOffset dx="0.878173" dy="0.878173"/>
<feGaussianBlur stdDeviation="2.63452"/>
<feComposite in2="hardAlpha" operator="arithmetic" k2="-1" k3="1"/>
<feColorMatrix type="matrix" values="0 0 0 0 1 0 0 0 0 1 0 0 0 0 1 0 0 0 0.6 0"/>
<feBlend mode="normal" in2="shape" result="effect1_innerShadow_149_2730"/>
</filter>
<linearGradient id="paint0_linear_149_2730" x1="2.98705" y1="70.8865" x2="71.8524" y2="68.4438" gradientUnits="userSpaceOnUse">
<stop stop-color="#F76B2A"/>
<stop offset="1" stop-color="#FC5A37"/>
</linearGradient>
<linearGradient id="paint1_linear_149_2730" x1="67.3355" y1="-31.416" x2="32.7901" y2="95.5036" gradientUnits="userSpaceOnUse">
<stop stop-color="#318E88"/>
<stop offset="1" stop-color="#73C1A8"/>
</linearGradient>
<linearGradient id="paint2_linear_149_2730" x1="45.5" y1="38.3715" x2="46.0476" y2="72.3326" gradientUnits="userSpaceOnUse">
<stop stop-color="white"/>
<stop offset="1" stop-color="white" stop-opacity="0"/>
</linearGradient>
</defs>
</svg>
