<svg width="20" height="20" viewBox="0 0 20 20" fill="none" xmlns="http://www.w3.org/2000/svg">
<g filter="url(#filter0_i_149_3053)">
<path d="M16.1668 12.3583C15.4951 12.214 14.9637 12.5254 14.4932 12.7973C14.0114 13.0775 13.0951 13.8195 12.57 13.6296C9.88108 12.5243 7.35213 10.1748 6.25739 7.47972C6.06444 6.94423 6.80424 6.02372 7.08283 5.53701C7.35316 5.06586 7.65858 4.53036 7.51928 3.85477C7.3934 3.24768 5.76522 1.17939 5.18947 0.613805C4.80977 0.240206 4.42078 0.0347269 4.02147 0.00151808C2.5202 -0.0628239 0.843516 1.93697 0.549452 2.41538C-0.187255 3.43551 -0.183128 4.79292 0.561834 6.43883C2.35717 10.8597 9.14747 17.5316 13.5925 19.3913C14.4128 19.7742 15.1629 19.9662 15.8366 19.9662C16.496 19.9662 17.0831 19.7825 17.5876 19.4183C17.9684 19.1993 20.0536 17.4424 19.9989 15.9033C19.9659 15.5111 19.7606 15.1188 19.3912 14.7389C18.8289 14.1588 16.7704 12.4849 16.1668 12.3583Z" fill="#ACACAC"/>
<path d="M16.1668 12.3583C15.4951 12.214 14.9637 12.5254 14.4932 12.7973C14.0114 13.0775 13.0951 13.8195 12.57 13.6296C9.88108 12.5243 7.35213 10.1748 6.25739 7.47972C6.06444 6.94423 6.80424 6.02372 7.08283 5.53701C7.35316 5.06586 7.65858 4.53036 7.51928 3.85477C7.3934 3.24768 5.76522 1.17939 5.18947 0.613805C4.80977 0.240206 4.42078 0.0347269 4.02147 0.00151808C2.5202 -0.0628239 0.843516 1.93697 0.549452 2.41538C-0.187255 3.43551 -0.183128 4.79292 0.561834 6.43883C2.35717 10.8597 9.14747 17.5316 13.5925 19.3913C14.4128 19.7742 15.1629 19.9662 15.8366 19.9662C16.496 19.9662 17.0831 19.7825 17.5876 19.4183C17.9684 19.1993 20.0536 17.4424 19.9989 15.9033C19.9659 15.5111 19.7606 15.1188 19.3912 14.7389C18.8289 14.1588 16.7704 12.4849 16.1668 12.3583Z" fill="url(#paint0_linear_149_3053)"/>
<path d="M16.1668 12.3583C15.4951 12.214 14.9637 12.5254 14.4932 12.7973C14.0114 13.0775 13.0951 13.8195 12.57 13.6296C9.88108 12.5243 7.35213 10.1748 6.25739 7.47972C6.06444 6.94423 6.80424 6.02372 7.08283 5.53701C7.35316 5.06586 7.65858 4.53036 7.51928 3.85477C7.3934 3.24768 5.76522 1.17939 5.18947 0.613805C4.80977 0.240206 4.42078 0.0347269 4.02147 0.00151808C2.5202 -0.0628239 0.843516 1.93697 0.549452 2.41538C-0.187255 3.43551 -0.183128 4.79292 0.561834 6.43883C2.35717 10.8597 9.14747 17.5316 13.5925 19.3913C14.4128 19.7742 15.1629 19.9662 15.8366 19.9662C16.496 19.9662 17.0831 19.7825 17.5876 19.4183C17.9684 19.1993 20.0536 17.4424 19.9989 15.9033C19.9659 15.5111 19.7606 15.1188 19.3912 14.7389C18.8289 14.1588 16.7704 12.4849 16.1668 12.3583Z" fill="url(#paint1_linear_149_3053)"/>
</g>
<defs>
<filter id="filter0_i_149_3053" x="0" y="0" width="20.5" height="20.4668" filterUnits="userSpaceOnUse" color-interpolation-filters="sRGB">
<feFlood flood-opacity="0" result="BackgroundImageFix"/>
<feBlend mode="normal" in="SourceGraphic" in2="BackgroundImageFix" result="shape"/>
<feColorMatrix in="SourceAlpha" type="matrix" values="0 0 0 0 0 0 0 0 0 0 0 0 0 0 0 0 0 0 127 0" result="hardAlpha"/>
<feOffset dx="0.5" dy="0.5"/>
<feGaussianBlur stdDeviation="2.63452"/>
<feComposite in2="hardAlpha" operator="arithmetic" k2="-1" k3="1"/>
<feColorMatrix type="matrix" values="0 0 0 0 1 0 0 0 0 1 0 0 0 0 1 0 0 0 0.2 0"/>
<feBlend mode="normal" in2="shape" result="effect1_innerShadow_149_3053"/>
</filter>
<linearGradient id="paint0_linear_149_3053" x1="-0.999997" y1="1.49746" x2="10.8918" y2="22.6025" gradientUnits="userSpaceOnUse">
<stop stop-color="#FF844B"/>
<stop offset="1" stop-color="#FC7537"/>
</linearGradient>
<linearGradient id="paint1_linear_149_3053" x1="27" y1="18.9679" x2="-14.3139" y2="-5.64414" gradientUnits="userSpaceOnUse">
<stop stop-color="#4B9FA3"/>
<stop offset="1" stop-color="#9ED7C1"/>
</linearGradient>
</defs>
</svg>
