<svg width="114" height="115" viewBox="0 0 114 115" fill="none" xmlns="http://www.w3.org/2000/svg">
<g filter="url(#filter0_i_280_10084)">
<ellipse cx="57" cy="57.5" rx="56.7988" ry="57.5" fill="#ACACAC"/>
<ellipse cx="57" cy="57.5" rx="56.7988" ry="57.5" fill="url(#paint0_linear_280_10084)"/>
<ellipse cx="57" cy="57.5" rx="56.7988" ry="57.5" fill="url(#paint1_linear_280_10084)"/>
</g>
<path d="M54.6819 38.2912C42.5378 38.25 32.1384 47.4685 30.9478 59.7973C30.6967 62.3977 30.8741 64.9407 31.4225 67.3563L31.6078 67.367C31.29 66.2935 31.1194 65.1567 31.1194 63.9801C31.1194 58.1217 35.3487 53.251 40.9206 52.2548C44.1412 47.0762 49.4942 43.3618 55.7522 42.3392L54.6819 38.2912Z" fill="url(#paint2_linear_280_10084)"/>
<path d="M54.9428 64.6707C54.9428 71.2493 49.6097 76.5823 43.0311 76.5823C36.4525 76.5823 31.1194 71.2493 31.1194 64.6707C31.1194 58.092 36.4525 52.759 43.0311 52.759C49.6097 52.759 54.9428 58.092 54.9428 64.6707Z" fill="url(#paint3_linear_280_10084)"/>
<path d="M80.9202 38.2912C68.7761 38.25 58.3767 47.4685 57.1861 59.7973C56.9349 62.3977 57.1124 64.9407 57.6608 67.3563L57.8461 67.367C57.5283 66.2935 57.3577 65.1567 57.3577 63.9801C57.3577 58.1217 61.587 53.251 67.1589 52.2548C70.3794 47.0762 75.7325 43.3618 81.9905 42.3392L80.9202 38.2912Z" fill="url(#paint4_linear_280_10084)"/>
<path d="M81.1811 64.6707C81.1811 71.2493 75.848 76.5823 69.2694 76.5823C62.6907 76.5823 57.3577 71.2493 57.3577 64.6707C57.3577 58.092 62.6907 52.759 69.2694 52.759C75.848 52.759 81.1811 58.092 81.1811 64.6707Z" fill="url(#paint5_linear_280_10084)"/>
<defs>
<filter id="filter0_i_280_10084" x="0.201172" y="0" width="114.719" height="116.121" filterUnits="userSpaceOnUse" color-interpolation-filters="sRGB">
<feFlood flood-opacity="0" result="BackgroundImageFix"/>
<feBlend mode="normal" in="SourceGraphic" in2="BackgroundImageFix" result="shape"/>
<feColorMatrix in="SourceAlpha" type="matrix" values="0 0 0 0 0 0 0 0 0 0 0 0 0 0 0 0 0 0 127 0" result="hardAlpha"/>
<feOffset dx="1.12088" dy="1.12088"/>
<feGaussianBlur stdDeviation="3.36264"/>
<feComposite in2="hardAlpha" operator="arithmetic" k2="-1" k3="1"/>
<feColorMatrix type="matrix" values="0 0 0 0 1 0 0 0 0 1 0 0 0 0 1 0 0 0 0.6 0"/>
<feBlend mode="normal" in2="shape" result="effect1_innerShadow_280_10084"/>
</filter>
<linearGradient id="paint0_linear_280_10084" x1="4.01377" y1="90.4779" x2="91.912" y2="87.3601" gradientUnits="userSpaceOnUse">
<stop stop-color="#F76B2A"/>
<stop offset="1" stop-color="#FC5A37"/>
</linearGradient>
<linearGradient id="paint1_linear_280_10084" x1="86.1467" y1="-40.0987" x2="42.0537" y2="121.899" gradientUnits="userSpaceOnUse">
<stop stop-color="#318E88"/>
<stop offset="1" stop-color="#73C1A8"/>
</linearGradient>
<linearGradient id="paint2_linear_280_10084" x1="43.294" y1="51.3587" x2="43.294" y2="120.04" gradientUnits="userSpaceOnUse">
<stop stop-color="white"/>
<stop offset="1" stop-color="white" stop-opacity="0"/>
</linearGradient>
<linearGradient id="paint3_linear_280_10084" x1="43.294" y1="51.3587" x2="43.294" y2="120.04" gradientUnits="userSpaceOnUse">
<stop stop-color="white"/>
<stop offset="1" stop-color="white" stop-opacity="0"/>
</linearGradient>
<linearGradient id="paint4_linear_280_10084" x1="69.5323" y1="51.3587" x2="69.5323" y2="120.04" gradientUnits="userSpaceOnUse">
<stop stop-color="white"/>
<stop offset="1" stop-color="white" stop-opacity="0"/>
</linearGradient>
<linearGradient id="paint5_linear_280_10084" x1="69.5323" y1="51.3587" x2="69.5323" y2="120.04" gradientUnits="userSpaceOnUse">
<stop stop-color="white"/>
<stop offset="1" stop-color="white" stop-opacity="0"/>
</linearGradient>
</defs>
</svg>
