<svg width="25" height="25" viewBox="0 0 25 25" fill="none" xmlns="http://www.w3.org/2000/svg">
<path d="M8.33329 3.12695V5.21029H6.24996V9.37696C6.24996 11.679 8.11454 13.5436 10.4166 13.5436C12.7187 13.5436 14.5833 11.679 14.5833 9.37696V5.21029H12.5V3.12695H15.625C16.2 3.12695 16.6666 3.59362 16.6666 4.16862V9.37696C16.6666 12.4738 14.4145 15.0436 11.4583 15.5405V17.1895C11.4583 19.203 13.0906 20.8353 15.1041 20.8353C16.6635 20.8353 17.9948 19.8561 18.5156 18.478C17.425 17.9915 16.6666 16.8978 16.6666 15.627C16.6666 13.9009 18.0656 12.502 19.7916 12.502C21.5177 12.502 22.9166 13.9009 22.9166 15.627C22.9166 17.0551 21.9583 18.2592 20.65 18.6322C20.0104 21.0978 17.7698 22.9186 15.1041 22.9186C11.9395 22.9186 9.37496 20.354 9.37496 17.1895V15.5405C6.41871 15.0447 4.16663 12.4738 4.16663 9.37696V4.16862C4.16663 3.59362 4.63329 3.12695 5.20829 3.12695H8.33329ZM19.7916 14.5853C19.2166 14.5853 18.75 15.052 18.75 15.627C18.75 16.202 19.2166 16.6686 19.7916 16.6686C20.3666 16.6686 20.8333 16.202 20.8333 15.627C20.8333 15.052 20.3666 14.5853 19.7916 14.5853Z" fill="url(#paint0_linear_861_10643)" fill-opacity="0.62"/>
<defs>
<linearGradient id="paint0_linear_861_10643" x1="18.5234" y1="-4.25544" x2="10.6438" y2="22.9142" gradientUnits="userSpaceOnUse">
<stop stop-color="#318E88"/>
<stop offset="1" stop-color="#73C1A8"/>
</linearGradient>
</defs>
</svg>
