<svg width="25" height="25" viewBox="0 0 25 25" fill="none" xmlns="http://www.w3.org/2000/svg">
<path d="M20.0448 4.95519C21.5677 6.48227 22.1406 8.59373 21.7635 10.5594C22.3552 10.726 22.9156 11.0416 23.3823 11.5052C24.8448 12.9573 24.8448 15.3114 23.3823 16.7625L17.7083 22.3958L14.5604 19.2708L11.4583 22.3802L2.62499 13.5344C0.434363 11.0802 0.516655 7.31144 2.87186 4.95519C5.23124 2.59685 9.0052 2.51769 11.4594 4.71769C13.9062 2.52081 17.6875 2.59373 20.0448 4.95519ZM13.5021 12.9844C12.8604 13.6208 12.8604 14.6479 13.5021 15.2844L17.7083 19.4604L21.9146 15.2844C22.5562 14.6479 22.5562 13.6208 21.9146 12.9844C21.2646 12.3385 20.2042 12.3385 19.5521 12.9864L17.7062 14.8135L16.2406 13.3594L15.8625 12.9844C15.2125 12.3385 14.1521 12.3385 13.5021 12.9844ZM4.34582 6.42915C2.79374 7.98123 2.71561 10.4656 4.14582 12.1073L11.4583 19.4312L13.0823 17.8041L12.0344 16.7625C10.5719 15.3114 10.5719 12.9573 12.0344 11.5052C13.4969 10.0541 15.8677 10.0541 17.3302 11.5052L17.7083 11.8802L18.0864 11.5052C18.5292 11.0666 19.0552 10.7604 19.6125 10.5864C20.0458 9.16248 19.6937 7.5531 18.5698 6.42706C17.0073 4.86248 14.4864 4.79894 12.851 6.26769L11.4604 7.5156L10.0687 6.26873C8.42811 4.7979 5.91249 4.86248 4.34582 6.42915Z" fill="url(#paint0_linear_868_10578)" fill-opacity="0.62"/>
<defs>
<linearGradient id="paint0_linear_868_10578" x1="18.9876" y1="-4.06311" x2="12.8233" y2="23.224" gradientUnits="userSpaceOnUse">
<stop stop-color="#318E88"/>
<stop offset="1" stop-color="#73C1A8"/>
</linearGradient>
</defs>
</svg>
