<svg width="25" height="25" viewBox="0 0 25 25" fill="none" xmlns="http://www.w3.org/2000/svg">
<path d="M19.129 11.4388C20.7561 13.0648 20.7561 15.7034 19.129 17.3305L13.2363 23.2232C12.8301 23.6294 12.1697 23.6294 11.7634 23.2232L5.8707 17.3305C4.24362 15.7034 4.24362 13.0648 5.8707 11.4378C7.49779 9.81068 10.1363 9.81068 11.7634 11.4378L12.4988 12.1742L13.2363 11.4378C14.8634 9.81068 17.502 9.81068 19.129 11.4378V11.4388ZM7.34362 12.9096C6.53112 13.7232 6.53112 15.043 7.34362 15.8565L12.4999 21.0128L17.6561 15.8565C18.4686 15.043 18.4686 13.7232 17.6561 12.9096C16.8426 12.0971 15.5228 12.0971 14.7082 12.9117L12.4978 15.118L10.2895 12.9096C9.47695 12.0971 8.15716 12.0971 7.34362 12.9096ZM12.4999 1.04297C14.802 1.04297 16.6665 2.90755 16.6665 5.20964C16.6665 7.51172 14.802 9.3763 12.4999 9.3763C10.1978 9.3763 8.3332 7.51172 8.3332 5.20964C8.3332 2.90755 10.1978 1.04297 12.4999 1.04297ZM12.4999 3.1263C11.3488 3.1263 10.4165 4.05859 10.4165 5.20964C10.4165 6.36068 11.3488 7.29297 12.4999 7.29297C13.6509 7.29297 14.5832 6.36068 14.5832 5.20964C14.5832 4.05859 13.6509 3.1263 12.4999 3.1263Z" fill="url(#paint0_linear_866_10515)" fill-opacity="0.62"/>
<defs>
<linearGradient id="paint0_linear_866_10515" x1="16.671" y1="-7.34401" x2="5.26859" y2="21.632" gradientUnits="userSpaceOnUse">
<stop stop-color="#318E88"/>
<stop offset="1" stop-color="#73C1A8"/>
</linearGradient>
</defs>
</svg>
