<svg width="25" height="25" viewBox="0 0 25 25" fill="none" xmlns="http://www.w3.org/2000/svg">
<path d="M12.5 15.6237C16.75 15.6237 20.2562 18.8049 20.7687 22.9154H4.2312C4.7437 18.8049 8.24995 15.6237 12.5 15.6237ZM10.6114 17.9987C9.11766 18.4716 7.86037 19.4914 7.08329 20.832H12.5L10.6114 17.9987ZM14.3895 17.9987L12.5 20.832H17.9156C17.1395 19.4914 15.8822 18.4716 14.3895 17.9987ZM18.75 2.08203V8.33203C18.75 11.7841 15.952 14.582 12.5 14.582C9.04787 14.582 6.24995 11.7841 6.24995 8.33203V2.08203H18.75ZM8.33328 8.33203C8.33328 10.6341 10.1979 12.4987 12.5 12.4987C14.802 12.4987 16.6666 10.6341 16.6666 8.33203H8.33328ZM16.6666 4.16536H8.33328V6.2487H16.6666V4.16536Z" fill="url(#paint0_linear_868_10574)" fill-opacity="0.62"/>
<defs>
<linearGradient id="paint0_linear_868_10574" x1="16.8939" y1="-5.68891" x2="7.31048" y2="21.9992" gradientUnits="userSpaceOnUse">
<stop stop-color="#318E88"/>
<stop offset="1" stop-color="#73C1A8"/>
</linearGradient>
</defs>
</svg>
