<svg width="26" height="25" viewBox="0 0 26 25" fill="none" xmlns="http://www.w3.org/2000/svg">
<path d="M18.3299 2.08203V4.16536H21.4549C22.0299 4.16536 22.4966 4.63203 22.4966 5.20703V21.8737C22.4966 22.4487 22.0299 22.9154 21.4549 22.9154H4.78825C4.21325 22.9154 3.74658 22.4487 3.74658 21.8737V5.20703C3.74658 4.63203 4.21325 4.16536 4.78825 4.16536H7.91325V2.08203H18.3299ZM7.91325 6.2487H5.82992V20.832H20.4132V6.2487H18.3299V8.33203H7.91325V6.2487ZM14.1632 11.457V13.5404H16.2466V15.6237H14.1622L14.1632 17.707H12.0799L12.0789 15.6237H9.99658V13.5404H12.0799V11.457H14.1632ZM16.2466 4.16536H9.99658V6.2487H16.2466V4.16536Z" fill="url(#paint0_linear_861_10648)" fill-opacity="0.62"/>
<defs>
<linearGradient id="paint0_linear_861_10648" x1="18.1034" y1="-5.68891" x2="9.4451" y2="22.673" gradientUnits="userSpaceOnUse">
<stop stop-color="#318E88"/>
<stop offset="1" stop-color="#73C1A8"/>
</linearGradient>
</defs>
</svg>
