<svg width="26" height="25" viewBox="0 0 26 25" fill="none" xmlns="http://www.w3.org/2000/svg">
<path d="M12.2691 2.08203C16.5066 2.08203 20.0045 5.24453 20.5337 9.33724L22.8775 13.0237C23.0316 13.2664 23.0004 13.6279 22.6431 13.782L20.6025 14.6549V17.707C20.6025 18.8581 19.6702 19.7904 18.5191 19.7904H16.4368L16.4358 22.9154H7.06079V19.0674C7.06079 17.8383 6.60662 16.6747 5.76496 15.6247C4.62017 14.1977 3.93579 12.3862 3.93579 10.4154C3.93579 5.81328 7.66704 2.08203 12.2691 2.08203ZM12.2691 4.16536C8.81704 4.16536 6.01912 6.96328 6.01912 10.4154C6.01912 11.8581 6.50662 13.2206 7.38996 14.3216C8.52954 15.7424 9.14412 17.3602 9.14412 19.0674V20.832H14.3525L14.3545 17.707H18.5191V13.282L20.1337 12.5904L18.5264 10.0643L18.467 9.60391C18.067 6.51016 15.4191 4.16536 12.2691 4.16536ZM11.717 8.08516L12.2691 8.63724L12.8212 8.08516C13.5337 7.37266 14.6879 7.37266 15.3993 8.08516C16.1118 8.79662 16.1118 9.95078 15.3993 10.6622L12.2691 13.7935L9.13892 10.6622C8.42642 9.95078 8.42642 8.79662 9.13892 8.08516C9.85037 7.37266 11.0045 7.37266 11.717 8.08516Z" fill="url(#paint0_linear_861_10647)" fill-opacity="0.62"/>
<defs>
<linearGradient id="paint0_linear_861_10647" x1="18.5066" y1="-5.68891" x2="9.95427" y2="22.7437" gradientUnits="userSpaceOnUse">
<stop stop-color="#318E88"/>
<stop offset="1" stop-color="#73C1A8"/>
</linearGradient>
</defs>
</svg>
