<svg width="9" height="36" viewBox="0 0 9 36" fill="none" xmlns="http://www.w3.org/2000/svg">
<path fill-rule="evenodd" clip-rule="evenodd" d="M3.9735 26.6165H5.18417C5.62607 26.6165 5.9998 26.2895 6.05858 25.8516L8.83708 5.14823C8.94671 4.33135 8.82147 3.49161 8.48278 2.74022C6.92105 -0.724473 1.95342 -0.749992 0.39169 2.7147C0.0448855 3.48409 -0.0763422 4.34214 0.0469089 5.17703L3.1007 25.8631C3.1646 26.2959 3.53601 26.6165 3.9735 26.6165ZM4.98448 14.4697L5.9107 6.13229C5.93654 5.89967 5.90715 5.66362 5.82533 5.44433C5.34276 4.15103 3.5109 4.14419 3.02834 5.43749C2.94475 5.66153 2.91626 5.90237 2.94526 6.13973L3.96387 14.4752C3.99537 14.733 4.2142 14.9267 4.47385 14.9267C4.73565 14.9267 4.95558 14.7298 4.98448 14.4697Z" fill="#318F89"/>
<path fill-rule="evenodd" clip-rule="evenodd" d="M3.9735 26.6165H5.18417C5.62607 26.6165 5.9998 26.2895 6.05858 25.8516L8.83708 5.14823C8.94671 4.33135 8.82147 3.49161 8.48278 2.74022C6.92105 -0.724473 1.95342 -0.749992 0.39169 2.7147C0.0448855 3.48409 -0.0763422 4.34214 0.0469089 5.17703L3.1007 25.8631C3.1646 26.2959 3.53601 26.6165 3.9735 26.6165ZM4.98448 14.4697L5.9107 6.13229C5.93654 5.89967 5.90715 5.66362 5.82533 5.44433C5.34276 4.15103 3.5109 4.14419 3.02834 5.43749C2.94475 5.66153 2.91626 5.90237 2.94526 6.13973L3.96387 14.4752C3.99537 14.733 4.2142 14.9267 4.47385 14.9267C4.73565 14.9267 4.95558 14.7298 4.98448 14.4697Z" fill="url(#paint0_linear_532_2212)"/>
<path fill-rule="evenodd" clip-rule="evenodd" d="M4.46916 35.6747C6.41803 35.6747 7.9979 34.0948 7.9979 32.1459C7.9979 30.1971 6.41803 28.6172 4.46916 28.6172C2.5203 28.6172 0.94043 30.1971 0.94043 32.1459C0.94043 34.0948 2.5203 35.6747 4.46916 35.6747ZM4.46652 33.9103C5.44095 33.9103 6.23088 33.1204 6.23088 32.146C6.23088 31.1715 5.44095 30.3816 4.46652 30.3816C3.49208 30.3816 2.70215 31.1715 2.70215 32.146C2.70215 33.1204 3.49208 33.9103 4.46652 33.9103Z" fill="#318F89"/>
<path fill-rule="evenodd" clip-rule="evenodd" d="M4.46916 35.6747C6.41803 35.6747 7.9979 34.0948 7.9979 32.1459C7.9979 30.1971 6.41803 28.6172 4.46916 28.6172C2.5203 28.6172 0.94043 30.1971 0.94043 32.1459C0.94043 34.0948 2.5203 35.6747 4.46916 35.6747ZM4.46652 33.9103C5.44095 33.9103 6.23088 33.1204 6.23088 32.146C6.23088 31.1715 5.44095 30.3816 4.46652 30.3816C3.49208 30.3816 2.70215 31.1715 2.70215 32.146C2.70215 33.1204 3.49208 33.9103 4.46652 33.9103Z" fill="url(#paint1_linear_532_2212)"/>
<defs>
<linearGradient id="paint0_linear_532_2212" x1="0.297891" y1="20.9684" x2="7.1733" y2="20.8857" gradientUnits="userSpaceOnUse">
<stop stop-color="#F76B2A"/>
<stop offset="1" stop-color="#FC5A37"/>
</linearGradient>
<linearGradient id="paint1_linear_532_2212" x1="1.17729" y1="34.1698" x2="6.63797" y2="33.9737" gradientUnits="userSpaceOnUse">
<stop stop-color="#F76B2A"/>
<stop offset="1" stop-color="#FC5A37"/>
</linearGradient>
</defs>
</svg>
