<svg width="25" height="23" viewBox="0 0 25 23" fill="none" xmlns="http://www.w3.org/2000/svg">
<g filter="url(#filter0_i_149_2826)">
<path d="M12.5 0L16.3625 7.56993L25 8.79127L18.75 14.6803L20.225 23L12.5 19.0699L4.775 23L6.25 14.6803L0 8.79127L8.6375 7.56993L12.5 0Z" fill="#ACACAC"/>
<path d="M12.5 0L16.3625 7.56993L25 8.79127L18.75 14.6803L20.225 23L12.5 19.0699L4.775 23L6.25 14.6803L0 8.79127L8.6375 7.56993L12.5 0Z" fill="url(#paint0_linear_149_2826)"/>
<path d="M12.5 0L16.3625 7.56993L25 8.79127L18.75 14.6803L20.225 23L12.5 19.0699L4.775 23L6.25 14.6803L0 8.79127L8.6375 7.56993L12.5 0Z" fill="url(#paint1_linear_149_2826)"/>
</g>
<defs>
<filter id="filter0_i_149_2826" x="0" y="0" width="25.8782" height="23.8782" filterUnits="userSpaceOnUse" color-interpolation-filters="sRGB">
<feFlood flood-opacity="0" result="BackgroundImageFix"/>
<feBlend mode="normal" in="SourceGraphic" in2="BackgroundImageFix" result="shape"/>
<feColorMatrix in="SourceAlpha" type="matrix" values="0 0 0 0 0 0 0 0 0 0 0 0 0 0 0 0 0 0 127 0" result="hardAlpha"/>
<feOffset dx="0.878173" dy="0.878173"/>
<feGaussianBlur stdDeviation="2.63452"/>
<feComposite in2="hardAlpha" operator="arithmetic" k2="-1" k3="1"/>
<feColorMatrix type="matrix" values="0 0 0 0 1 0 0 0 0 1 0 0 0 0 1 0 0 0 0.6 0"/>
<feBlend mode="normal" in2="shape" result="effect1_innerShadow_149_2826"/>
</filter>
<linearGradient id="paint0_linear_149_2826" x1="0.839059" y1="18.0956" x2="20.1781" y2="17.3408" gradientUnits="userSpaceOnUse">
<stop stop-color="#F76B2A"/>
<stop offset="1" stop-color="#FC5A37"/>
</linearGradient>
<linearGradient id="paint1_linear_149_2826" x1="18.9145" y1="-8.01974" x2="10.8029" y2="24.7736" gradientUnits="userSpaceOnUse">
<stop stop-color="#318E88"/>
<stop offset="1" stop-color="#73C1A8"/>
</linearGradient>
</defs>
</svg>
