<svg width="24" height="24" viewBox="0 0 24 24" fill="none" xmlns="http://www.w3.org/2000/svg">
<path d="M12 0C8.249 0 3.725 0.861 3.59248e-06 2.755C3.59248e-06 6.845 -0.0509958 17.037 12 24C24.051 17.037 24 6.845 24 2.755C20.275 0.861 15.751 0 12 0ZM13.2136 13.6805C12.505 14.6194 11.1452 14.7459 10.3047 13.923C8.79503 12.445 6.76679 10.3135 6.857 9.612C7 8.5 8.607 8.469 9.651 9.654L11.4938 11.8347C11.7089 12.0893 11.9779 12.1007 12.2109 11.8625C13.4929 10.5517 17.6412 6.29554 17.653 6.304C18.0606 5.93952 18.4456 6.74814 18.1162 7.18455L13.2136 13.6805Z" fill="url(#paint0_linear_288_9962)"/>
<defs>
<linearGradient id="paint0_linear_288_9962" x1="18.1579" y1="-8.36842" x2="9.37045" y2="34.1524" gradientUnits="userSpaceOnUse">
<stop stop-color="#4B9FA3"/>
<stop offset="1" stop-color="#9ED7C1"/>
</linearGradient>
</defs>
</svg>
