<svg width="29" height="29" viewBox="0 0 29 29" fill="none" xmlns="http://www.w3.org/2000/svg">
<g filter="url(#filter0_i_149_3112)">
<path fill-rule="evenodd" clip-rule="evenodd" d="M8.76123 8.1556C8.76123 4.98977 11.335 2.41602 14.5008 2.41602C17.6666 2.41602 20.2404 4.98977 20.2404 8.1556C20.2283 11.261 17.7996 13.7743 14.7062 13.8831H14.6821V13.8831C14.6419 13.8831 14.6018 13.879 14.5617 13.8762C14.5378 13.8745 14.5124 13.8738 14.4861 13.8741C14.3991 13.8751 14.3117 13.882 14.2248 13.8772C11.1232 13.7047 8.76123 11.218 8.76123 8.1556ZM8.37456 17.0972C11.77 14.8497 17.2679 14.8497 20.6391 17.0972C22.1616 18.1122 22.9954 19.4897 23.0075 20.976C23.0075 22.4743 22.1616 23.8518 20.6391 24.8789C18.9475 26.0147 16.7241 26.5827 14.5008 26.5827C12.2775 26.5827 10.0541 26.0147 8.36247 24.8789C6.83997 23.8639 5.99414 22.4864 5.99414 21.0002C5.99414 19.5139 6.83997 18.1243 8.37456 17.0972Z" fill="#ACACAC"/>
<path fill-rule="evenodd" clip-rule="evenodd" d="M8.76123 8.1556C8.76123 4.98977 11.335 2.41602 14.5008 2.41602C17.6666 2.41602 20.2404 4.98977 20.2404 8.1556C20.2283 11.261 17.7996 13.7743 14.7062 13.8831H14.6821V13.8831C14.6419 13.8831 14.6018 13.879 14.5617 13.8762C14.5378 13.8745 14.5124 13.8738 14.4861 13.8741C14.3991 13.8751 14.3117 13.882 14.2248 13.8772C11.1232 13.7047 8.76123 11.218 8.76123 8.1556ZM8.37456 17.0972C11.77 14.8497 17.2679 14.8497 20.6391 17.0972C22.1616 18.1122 22.9954 19.4897 23.0075 20.976C23.0075 22.4743 22.1616 23.8518 20.6391 24.8789C18.9475 26.0147 16.7241 26.5827 14.5008 26.5827C12.2775 26.5827 10.0541 26.0147 8.36247 24.8789C6.83997 23.8639 5.99414 22.4864 5.99414 21.0002C5.99414 19.5139 6.83997 18.1243 8.37456 17.0972Z" fill="url(#paint0_linear_149_3112)"/>
<path fill-rule="evenodd" clip-rule="evenodd" d="M8.76123 8.1556C8.76123 4.98977 11.335 2.41602 14.5008 2.41602C17.6666 2.41602 20.2404 4.98977 20.2404 8.1556C20.2283 11.261 17.7996 13.7743 14.7062 13.8831H14.6821V13.8831C14.6419 13.8831 14.6018 13.879 14.5617 13.8762C14.5378 13.8745 14.5124 13.8738 14.4861 13.8741C14.3991 13.8751 14.3117 13.882 14.2248 13.8772C11.1232 13.7047 8.76123 11.218 8.76123 8.1556ZM8.37456 17.0972C11.77 14.8497 17.2679 14.8497 20.6391 17.0972C22.1616 18.1122 22.9954 19.4897 23.0075 20.976C23.0075 22.4743 22.1616 23.8518 20.6391 24.8789C18.9475 26.0147 16.7241 26.5827 14.5008 26.5827C12.2775 26.5827 10.0541 26.0147 8.36247 24.8789C6.83997 23.8639 5.99414 22.4864 5.99414 21.0002C5.99414 19.5139 6.83997 18.1243 8.37456 17.0972Z" fill="url(#paint1_linear_149_3112)"/>
</g>
<defs>
<filter id="filter0_i_149_3112" x="5.99414" y="2.41602" width="17.8918" height="25.0442" filterUnits="userSpaceOnUse" color-interpolation-filters="sRGB">
<feFlood flood-opacity="0" result="BackgroundImageFix"/>
<feBlend mode="normal" in="SourceGraphic" in2="BackgroundImageFix" result="shape"/>
<feColorMatrix in="SourceAlpha" type="matrix" values="0 0 0 0 0 0 0 0 0 0 0 0 0 0 0 0 0 0 127 0" result="hardAlpha"/>
<feOffset dx="0.878173" dy="0.878173"/>
<feGaussianBlur stdDeviation="2.63452"/>
<feComposite in2="hardAlpha" operator="arithmetic" k2="-1" k3="1"/>
<feColorMatrix type="matrix" values="0 0 0 0 1 0 0 0 0 1 0 0 0 0 1 0 0 0 0.3 0"/>
<feBlend mode="normal" in2="shape" result="effect1_innerShadow_149_3112"/>
</filter>
<linearGradient id="paint0_linear_149_3112" x1="6.56515" y1="21.4295" x2="19.7377" y2="21.0965" gradientUnits="userSpaceOnUse">
<stop stop-color="#F76B2A"/>
<stop offset="1" stop-color="#FC5A37"/>
</linearGradient>
<linearGradient id="paint1_linear_149_3112" x1="18.8661" y1="-6.01051" x2="6.80019" y2="35.0922" gradientUnits="userSpaceOnUse">
<stop stop-color="#4B9FA3"/>
<stop offset="1" stop-color="#9ED7C1"/>
</linearGradient>
</defs>
</svg>
