<svg width="50" height="50" viewBox="0 0 50 50" fill="none" xmlns="http://www.w3.org/2000/svg">
<path d="M34.896 7.4165V4.1665C34.896 3.31234 34.1877 2.604 33.3335 2.604C32.4793 2.604 31.771 3.31234 31.771 4.1665V7.2915H18.2293V4.1665C18.2293 3.31234 17.521 2.604 16.6668 2.604C15.8127 2.604 15.1043 3.31234 15.1043 4.1665V7.4165C9.47932 7.93734 6.75015 11.2915 6.33349 16.2707C6.29182 16.8748 6.79182 17.3748 7.37515 17.3748H42.6251C43.2293 17.3748 43.7293 16.854 43.6668 16.2707C43.2501 11.2915 40.521 7.93734 34.896 7.4165Z" fill="url(#paint0_linear_62_7253)"/>
<path d="M41.6667 20.5H8.33333C7.1875 20.5 6.25 21.4375 6.25 22.5833V35.4167C6.25 41.6667 9.375 45.8333 16.6667 45.8333H33.3333C40.625 45.8333 43.75 41.6667 43.75 35.4167V22.5833C43.75 21.4375 42.8125 20.5 41.6667 20.5ZM19.1875 37.9375C19.0833 38.0208 18.9792 38.125 18.875 38.1875C18.75 38.2708 18.625 38.3333 18.5 38.375C18.375 38.4375 18.25 38.4792 18.125 38.5C17.9792 38.5208 17.8542 38.5417 17.7083 38.5417C17.4375 38.5417 17.1667 38.4792 16.9167 38.375C16.6458 38.2708 16.4375 38.125 16.2292 37.9375C15.8542 37.5417 15.625 37 15.625 36.4583C15.625 35.9167 15.8542 35.375 16.2292 34.9792C16.4375 34.7917 16.6458 34.6458 16.9167 34.5417C17.2917 34.375 17.7083 34.3333 18.125 34.4167C18.25 34.4375 18.375 34.4792 18.5 34.5417C18.625 34.5833 18.75 34.6458 18.875 34.7292C18.9792 34.8125 19.0833 34.8958 19.1875 34.9792C19.5625 35.375 19.7917 35.9167 19.7917 36.4583C19.7917 37 19.5625 37.5417 19.1875 37.9375ZM19.1875 30.6458C18.7917 31.0208 18.25 31.25 17.7083 31.25C17.1667 31.25 16.625 31.0208 16.2292 30.6458C15.8542 30.25 15.625 29.7083 15.625 29.1667C15.625 28.625 15.8542 28.0833 16.2292 27.6875C16.8125 27.1042 17.7292 26.9167 18.5 27.25C18.7708 27.3542 19 27.5 19.1875 27.6875C19.5625 28.0833 19.7917 28.625 19.7917 29.1667C19.7917 29.7083 19.5625 30.25 19.1875 30.6458ZM26.4792 37.9375C26.0833 38.3125 25.5417 38.5417 25 38.5417C24.4583 38.5417 23.9167 38.3125 23.5208 37.9375C23.1458 37.5417 22.9167 37 22.9167 36.4583C22.9167 35.9167 23.1458 35.375 23.5208 34.9792C24.2917 34.2083 25.7083 34.2083 26.4792 34.9792C26.8542 35.375 27.0833 35.9167 27.0833 36.4583C27.0833 37 26.8542 37.5417 26.4792 37.9375ZM26.4792 30.6458C26.375 30.7292 26.2708 30.8125 26.1667 30.8958C26.0417 30.9792 25.9167 31.0417 25.7917 31.0833C25.6667 31.1458 25.5417 31.1875 25.4167 31.2083C25.2708 31.2292 25.1458 31.25 25 31.25C24.4583 31.25 23.9167 31.0208 23.5208 30.6458C23.1458 30.25 22.9167 29.7083 22.9167 29.1667C22.9167 28.625 23.1458 28.0833 23.5208 27.6875C23.7083 27.5 23.9375 27.3542 24.2083 27.25C24.9792 26.9167 25.8958 27.1042 26.4792 27.6875C26.8542 28.0833 27.0833 28.625 27.0833 29.1667C27.0833 29.7083 26.8542 30.25 26.4792 30.6458ZM33.7708 37.9375C33.375 38.3125 32.8333 38.5417 32.2917 38.5417C31.75 38.5417 31.2083 38.3125 30.8125 37.9375C30.4375 37.5417 30.2083 37 30.2083 36.4583C30.2083 35.9167 30.4375 35.375 30.8125 34.9792C31.5833 34.2083 33 34.2083 33.7708 34.9792C34.1458 35.375 34.375 35.9167 34.375 36.4583C34.375 37 34.1458 37.5417 33.7708 37.9375ZM33.7708 30.6458C33.6667 30.7292 33.5625 30.8125 33.4583 30.8958C33.3333 30.9792 33.2083 31.0417 33.0833 31.0833C32.9583 31.1458 32.8333 31.1875 32.7083 31.2083C32.5625 31.2292 32.4167 31.25 32.2917 31.25C31.75 31.25 31.2083 31.0208 30.8125 30.6458C30.4375 30.25 30.2083 29.7083 30.2083 29.1667C30.2083 28.625 30.4375 28.0833 30.8125 27.6875C31.0208 27.5 31.2292 27.3542 31.5 27.25C31.875 27.0833 32.2917 27.0417 32.7083 27.125C32.8333 27.1458 32.9583 27.1875 33.0833 27.25C33.2083 27.2917 33.3333 27.3542 33.4583 27.4375C33.5625 27.5208 33.6667 27.6042 33.7708 27.6875C34.1458 28.0833 34.375 28.625 34.375 29.1667C34.375 29.7083 34.1458 30.25 33.7708 30.6458Z" fill="url(#paint1_linear_62_7253)"/>
<defs>
<linearGradient id="paint0_linear_62_7253" x1="25.0016" y1="2.604" x2="25.0016" y2="17.3748" gradientUnits="userSpaceOnUse">
<stop stop-color="#80BFBB"/>
<stop offset="1" stop-color="#89C8BB"/>
</linearGradient>
<linearGradient id="paint1_linear_62_7253" x1="25" y1="20.5" x2="25" y2="45.8333" gradientUnits="userSpaceOnUse">
<stop stop-color="#80BFBB"/>
<stop offset="1" stop-color="#89C8BB"/>
</linearGradient>
</defs>
</svg>
