<svg width="81" height="82" viewBox="0 0 81 82" fill="none" xmlns="http://www.w3.org/2000/svg">
<g filter="url(#filter0_i_280_9752)">
<ellipse cx="40.5" cy="41" rx="40.5" ry="41" fill="#ACACAC"/>
<ellipse cx="40.5" cy="41" rx="40.5" ry="41" fill="url(#paint0_linear_280_9752)"/>
<ellipse cx="40.5" cy="41" rx="40.5" ry="41" fill="url(#paint1_linear_280_9752)"/>
</g>
<path d="M54.5 53H57.5V56H24.5V53H27.5V27.5C27.5 27.1022 27.658 26.7206 27.9393 26.4393C28.2206 26.158 28.6022 26 29 26H53C53.3978 26 53.7794 26.158 54.0607 26.4393C54.342 26.7206 54.5 27.1022 54.5 27.5V53ZM39.5 35H36.5V38H39.5V41H42.5V38H45.5V35H42.5V32H39.5V35ZM44 53H47V44H35V53H38V47H44V53Z" fill="url(#paint2_linear_280_9752)"/>
<defs>
<filter id="filter0_i_280_9752" x="0" y="0" width="81.8782" height="82.8782" filterUnits="userSpaceOnUse" color-interpolation-filters="sRGB">
<feFlood flood-opacity="0" result="BackgroundImageFix"/>
<feBlend mode="normal" in="SourceGraphic" in2="BackgroundImageFix" result="shape"/>
<feColorMatrix in="SourceAlpha" type="matrix" values="0 0 0 0 0 0 0 0 0 0 0 0 0 0 0 0 0 0 127 0" result="hardAlpha"/>
<feOffset dx="0.878173" dy="0.878173"/>
<feGaussianBlur stdDeviation="2.63452"/>
<feComposite in2="hardAlpha" operator="arithmetic" k2="-1" k3="1"/>
<feColorMatrix type="matrix" values="0 0 0 0 1 0 0 0 0 1 0 0 0 0 1 0 0 0 0.6 0"/>
<feBlend mode="normal" in2="shape" result="effect1_innerShadow_280_9752"/>
</filter>
<linearGradient id="paint0_linear_280_9752" x1="2.71855" y1="64.5147" x2="65.3938" y2="62.2915" gradientUnits="userSpaceOnUse">
<stop stop-color="#F76B2A"/>
<stop offset="1" stop-color="#FC5A37"/>
</linearGradient>
<linearGradient id="paint1_linear_280_9752" x1="61.2829" y1="-28.5921" x2="29.8427" y2="86.919" gradientUnits="userSpaceOnUse">
<stop stop-color="#318E88"/>
<stop offset="1" stop-color="#73C1A8"/>
</linearGradient>
<linearGradient id="paint2_linear_280_9752" x1="58" y1="56" x2="42.5137" y2="24.2362" gradientUnits="userSpaceOnUse">
<stop stop-color="#80BFB3"/>
<stop offset="0.0001" stop-color="#FAFFFE"/>
<stop offset="1" stop-color="white"/>
</linearGradient>
</defs>
</svg>
