<svg width="50" height="50" viewBox="0 0 50 50" fill="none" xmlns="http://www.w3.org/2000/svg">
<path d="M26.5625 33.1665H27.9167C29.2708 33.1665 30.3958 31.9582 30.3958 30.4998C30.3958 28.6873 29.75 28.3332 28.6875 27.9582L26.5833 27.229V33.1665H26.5625Z" fill="url(#paint0_linear_62_7290)"/>
<path d="M24.938 3.95853C13.438 4.0002 4.12546 13.3544 4.16713 24.8544C4.2088 36.3544 13.563 45.6669 25.063 45.6252C36.563 45.5835 45.8755 36.2294 45.8338 24.7294C45.7921 13.2294 36.438 3.9377 24.938 3.95853ZM29.7088 25.0002C31.3338 25.5627 33.5213 26.771 33.5213 30.5002C33.5213 33.7085 31.0005 36.2919 27.9171 36.2919H26.563V37.5002C26.563 38.3544 25.8546 39.0627 25.0005 39.0627C24.1463 39.0627 23.438 38.3544 23.438 37.5002V36.2919H22.688C19.2713 36.2919 16.5005 33.4169 16.5005 29.8752C16.5005 29.021 17.2088 28.3127 18.063 28.3127C18.9171 28.3127 19.6255 29.021 19.6255 29.8752C19.6255 31.6877 21.0005 33.1669 22.688 33.1669H23.438V26.1252L20.2921 25.0002C18.6671 24.4377 16.4796 23.2294 16.4796 19.5002C16.4796 16.2919 19.0005 13.7085 22.0838 13.7085H23.438V12.5002C23.438 11.646 24.1463 10.9377 25.0005 10.9377C25.8546 10.9377 26.563 11.646 26.563 12.5002V13.7085H27.313C30.7296 13.7085 33.5005 16.5835 33.5005 20.1252C33.5005 20.9794 32.7921 21.6877 31.938 21.6877C31.0838 21.6877 30.3755 20.9794 30.3755 20.1252C30.3755 18.3127 29.0005 16.8335 27.313 16.8335H26.563V23.8752L29.7088 25.0002Z" fill="url(#paint1_linear_62_7290)"/>
<path d="M19.626 19.521C19.626 21.3335 20.2718 21.6877 21.3343 22.0627L23.4385 22.7918V16.8335H22.0843C20.7301 16.8335 19.626 18.0418 19.626 19.521Z" fill="url(#paint2_linear_62_7290)"/>
<defs>
<linearGradient id="paint0_linear_62_7290" x1="28.4792" y1="27.229" x2="28.4792" y2="33.1665" gradientUnits="userSpaceOnUse">
<stop stop-color="#7EBDBB"/>
<stop offset="1" stop-color="#8AC9BB"/>
</linearGradient>
<linearGradient id="paint1_linear_62_7290" x1="25.0005" y1="3.9585" x2="25.0005" y2="45.6253" gradientUnits="userSpaceOnUse">
<stop stop-color="#7EBDBB"/>
<stop offset="1" stop-color="#8AC9BB"/>
</linearGradient>
<linearGradient id="paint2_linear_62_7290" x1="21.5322" y1="16.8335" x2="21.5322" y2="22.7918" gradientUnits="userSpaceOnUse">
<stop stop-color="#7EBDBB"/>
<stop offset="1" stop-color="#8AC9BB"/>
</linearGradient>
</defs>
</svg>
