<svg width="272" height="59" viewBox="0 0 272 59" fill="none" xmlns="http://www.w3.org/2000/svg">
<path d="M60.05 30H46.91V9H50.6V26.55H60.05V30ZM65.5831 30H62.1331V16.5H65.5831V30ZM61.7731 11.64C61.7731 11.04 61.9731 10.56 62.3731 10.2C62.7931 9.82 63.3131 9.63 63.9331 9.63C64.4731 9.63 64.9331 9.82 65.3131 10.2C65.7131 10.58 65.9131 11.06 65.9131 11.64C65.9131 12.28 65.7131 12.8 65.3131 13.2C64.9331 13.6 64.4731 13.8 63.9331 13.8C63.3131 13.8 62.7931 13.6 62.3731 13.2C61.9731 12.8 61.7731 12.28 61.7731 11.64ZM69.9434 28.83V9H73.3934V17.34C74.3734 16.56 75.5634 16.17 76.9634 16.17C78.9434 16.17 80.5034 16.81 81.6434 18.09C82.8034 19.33 83.3834 20.98 83.3834 23.04C83.3834 25.26 82.6834 27.03 81.2834 28.35C79.9034 29.67 78.0334 30.33 75.6734 30.33C74.6334 30.33 73.5834 30.19 72.5234 29.91C71.4834 29.63 70.6234 29.27 69.9434 28.83ZM76.1534 19.41C75.0534 19.41 74.1334 19.84 73.3934 20.7V26.43C74.1334 26.89 74.9534 27.12 75.8534 27.12C76.9934 27.12 77.9134 26.78 78.6134 26.1C79.3334 25.4 79.6934 24.46 79.6934 23.28C79.6934 22.06 79.3634 21.11 78.7034 20.43C78.0434 19.75 77.1934 19.41 76.1534 19.41ZM96.969 26.22L97.959 28.65C96.619 29.77 94.899 30.33 92.799 30.33C90.639 30.33 88.879 29.68 87.519 28.38C86.199 27.1 85.539 25.39 85.539 23.25C85.539 21.25 86.189 19.57 87.489 18.21C88.789 16.85 90.519 16.17 92.679 16.17C94.459 16.17 95.969 16.76 97.209 17.94C98.449 19.12 99.069 20.62 99.069 22.44C99.069 23.24 98.999 23.86 98.859 24.3H89.109C89.249 25.28 89.679 26.05 90.399 26.61C91.139 27.17 92.059 27.45 93.159 27.45C94.659 27.45 95.929 27.04 96.969 26.22ZM92.529 19.05C90.569 19.05 89.389 20.03 88.989 21.99H95.619C95.639 21.13 95.359 20.43 94.779 19.89C94.219 19.33 93.469 19.05 92.529 19.05ZM105.298 30H101.848V16.5H105.298V17.82C106.038 16.78 107.068 16.26 108.388 16.26C109.328 16.26 110.028 16.43 110.488 16.77L109.258 20.01C108.678 19.67 108.098 19.5 107.518 19.5C106.518 19.5 105.778 19.98 105.298 20.94V30ZM112.153 24.87V12.75H115.603V16.5H119.953V19.74H115.603V24.66C115.603 26.28 116.143 27.09 117.223 27.09C117.903 27.09 118.593 26.83 119.293 26.31L120.343 28.98C119.243 29.86 117.913 30.3 116.353 30.3C114.893 30.3 113.823 29.86 113.143 28.98C112.483 28.08 112.153 26.71 112.153 24.87ZM132.09 16.5H136.02L130.71 30C129.75 32.34 128.89 33.92 128.13 34.74C127.39 35.58 126.51 36 125.49 36C124.53 36 123.56 35.65 122.58 34.95L123.69 32.34C124.21 32.66 124.68 32.82 125.1 32.82C125.92 32.82 126.61 32.12 127.17 30.72L127.47 30L121.23 16.5H125.37L128.52 23.88C128.56 23.98 128.78 24.63 129.18 25.83C129.3 25.09 129.46 24.43 129.66 23.85L132.09 16.5Z" fill="#171923"/>
<path d="M54.73 42.4H56.8V55H54.73V49.546H49.33V55H47.26V42.4H49.33V47.566H54.73V42.4ZM66.3206 46H68.2646V55H66.3206V53.704C65.5886 54.724 64.5386 55.234 63.1706 55.234C61.9346 55.234 60.8786 54.778 60.0026 53.866C59.1266 52.942 58.6886 51.82 58.6886 50.5C58.6886 49.168 59.1266 48.046 60.0026 47.134C60.8786 46.222 61.9346 45.766 63.1706 45.766C64.5386 45.766 65.5886 46.27 66.3206 47.278V46ZM61.4426 52.57C61.9826 53.11 62.6606 53.38 63.4766 53.38C64.2926 53.38 64.9706 53.11 65.5106 52.57C66.0506 52.018 66.3206 51.328 66.3206 50.5C66.3206 49.672 66.0506 48.988 65.5106 48.448C64.9706 47.896 64.2926 47.62 63.4766 47.62C62.6606 47.62 61.9826 47.896 61.4426 48.448C60.9026 48.988 60.6326 49.672 60.6326 50.5C60.6326 51.328 60.9026 52.018 61.4426 52.57ZM75.6245 45.766C76.8605 45.766 77.9165 46.228 78.7925 47.152C79.6685 48.064 80.1065 49.18 80.1065 50.5C80.1065 51.832 79.6685 52.954 78.7925 53.866C77.9165 54.778 76.8605 55.234 75.6245 55.234C74.2565 55.234 73.2065 54.73 72.4745 53.722V58.6H70.5305V46H72.4745V47.296C73.2065 46.276 74.2565 45.766 75.6245 45.766ZM73.2845 52.57C73.8245 53.11 74.5025 53.38 75.3185 53.38C76.1345 53.38 76.8125 53.11 77.3525 52.57C77.8925 52.018 78.1625 51.328 78.1625 50.5C78.1625 49.672 77.8925 48.988 77.3525 48.448C76.8125 47.896 76.1345 47.62 75.3185 47.62C74.5025 47.62 73.8245 47.896 73.2845 48.448C72.7445 48.988 72.4745 49.672 72.4745 50.5C72.4745 51.328 72.7445 52.018 73.2845 52.57ZM89.8244 55H87.5024L83.8124 50.842V55H81.8684V46H83.8124V49.978L87.3044 46H89.6804L85.7204 50.41L89.8244 55ZM94.6593 55.234C93.3393 55.234 92.2173 54.778 91.2933 53.866C90.3693 52.954 89.9073 51.832 89.9073 50.5C89.9073 49.168 90.3693 48.046 91.2933 47.134C92.2173 46.222 93.3393 45.766 94.6593 45.766C95.9913 45.766 97.1133 46.222 98.0253 47.134C98.9493 48.046 99.4113 49.168 99.4113 50.5C99.4113 51.832 98.9493 52.954 98.0253 53.866C97.1133 54.778 95.9913 55.234 94.6593 55.234ZM92.6613 52.534C93.2013 53.074 93.8673 53.344 94.6593 53.344C95.4513 53.344 96.1173 53.074 96.6573 52.534C97.1973 51.994 97.4673 51.316 97.4673 50.5C97.4673 49.684 97.1973 49.006 96.6573 48.466C96.1173 47.926 95.4513 47.656 94.6593 47.656C93.8673 47.656 93.2013 47.926 92.6613 48.466C92.1213 49.006 91.8513 49.684 91.8513 50.5C91.8513 51.316 92.1213 51.994 92.6613 52.534ZM108.501 46V55H106.557V47.872H103.551V51.22C103.551 52.648 103.239 53.662 102.615 54.262C101.991 54.862 101.103 55.108 99.9515 55V53.182C100.503 53.278 100.917 53.164 101.193 52.84C101.469 52.516 101.607 51.946 101.607 51.13V46H108.501ZM115.015 55.234C113.695 55.234 112.573 54.778 111.649 53.866C110.725 52.954 110.263 51.832 110.263 50.5C110.263 49.168 110.725 48.046 111.649 47.134C112.573 46.222 113.695 45.766 115.015 45.766C116.347 45.766 117.469 46.222 118.381 47.134C119.305 48.046 119.767 49.168 119.767 50.5C119.767 51.832 119.305 52.954 118.381 53.866C117.469 54.778 116.347 55.234 115.015 55.234ZM113.017 52.534C113.557 53.074 114.223 53.344 115.015 53.344C115.807 53.344 116.473 53.074 117.013 52.534C117.553 51.994 117.823 51.316 117.823 50.5C117.823 49.684 117.553 49.006 117.013 48.466C116.473 47.926 115.807 47.656 115.015 47.656C114.223 47.656 113.557 47.926 113.017 48.466C112.477 49.006 112.207 49.684 112.207 50.5C112.207 51.316 112.477 51.994 113.017 52.534ZM127.555 46V47.872H123.469V55H121.525V46H127.555ZM135.388 46H136.882V55H134.974V49.276L130.366 55H128.872V46H130.78V51.706L135.388 46ZM144.61 46H146.554V55H144.61V51.958C143.89 52.222 143.134 52.354 142.342 52.354C141.226 52.354 140.344 52.078 139.696 51.526C139.048 50.974 138.724 50.164 138.724 49.096V46H140.668V48.916C140.668 49.996 141.31 50.536 142.594 50.536C143.35 50.536 144.022 50.398 144.61 50.122V46ZM150.353 51.328C150.497 52.012 150.827 52.54 151.343 52.912C151.859 53.272 152.489 53.452 153.233 53.452C154.265 53.452 155.039 53.08 155.555 52.336L157.157 53.272C156.269 54.58 154.955 55.234 153.215 55.234C151.751 55.234 150.569 54.79 149.669 53.902C148.769 53.002 148.319 51.868 148.319 50.5C148.319 49.156 148.763 48.034 149.651 47.134C150.539 46.222 151.679 45.766 153.071 45.766C154.391 45.766 155.471 46.228 156.311 47.152C157.163 48.076 157.589 49.198 157.589 50.518C157.589 50.722 157.565 50.992 157.517 51.328H150.353ZM150.335 49.744H155.627C155.495 49.012 155.189 48.46 154.709 48.088C154.241 47.716 153.689 47.53 153.053 47.53C152.333 47.53 151.733 47.728 151.253 48.124C150.773 48.52 150.467 49.06 150.335 49.744ZM163.495 55.234C162.139 55.234 161.005 54.778 160.093 53.866C159.193 52.954 158.743 51.832 158.743 50.5C158.743 49.156 159.193 48.034 160.093 47.134C161.005 46.222 162.139 45.766 163.495 45.766C164.371 45.766 165.169 45.976 165.889 46.396C166.609 46.816 167.149 47.38 167.509 48.088L165.835 49.06C165.631 48.628 165.319 48.292 164.899 48.052C164.491 47.8 164.017 47.674 163.477 47.674C162.685 47.674 162.019 47.944 161.479 48.484C160.951 49.024 160.687 49.696 160.687 50.5C160.687 51.304 160.951 51.976 161.479 52.516C162.019 53.056 162.685 53.326 163.477 53.326C164.005 53.326 164.479 53.2 164.899 52.948C165.331 52.696 165.655 52.36 165.871 51.94L167.545 52.894C167.161 53.614 166.609 54.184 165.889 54.604C165.169 55.024 164.371 55.234 163.495 55.234ZM176.959 55H174.637L170.947 50.842V55H169.003V46H170.947V49.978L174.439 46H176.815L172.855 50.41L176.959 55ZM184.674 46H186.618V55H184.674V53.704C183.942 54.724 182.892 55.234 181.524 55.234C180.288 55.234 179.232 54.778 178.356 53.866C177.48 52.942 177.042 51.82 177.042 50.5C177.042 49.168 177.48 48.046 178.356 47.134C179.232 46.222 180.288 45.766 181.524 45.766C182.892 45.766 183.942 46.27 184.674 47.278V46ZM179.796 52.57C180.336 53.11 181.014 53.38 181.83 53.38C182.646 53.38 183.324 53.11 183.864 52.57C184.404 52.018 184.674 51.328 184.674 50.5C184.674 49.672 184.404 48.988 183.864 48.448C183.324 47.896 182.646 47.62 181.83 47.62C181.014 47.62 180.336 47.896 179.796 48.448C179.256 48.988 178.986 49.672 178.986 50.5C178.986 51.328 179.256 52.018 179.796 52.57ZM195.85 46V55H193.942V51.976H192.862L190.576 55H188.29L190.72 51.796C190.096 51.592 189.592 51.232 189.208 50.716C188.836 50.2 188.65 49.624 188.65 48.988C188.65 48.16 188.944 47.458 189.532 46.882C190.132 46.294 190.9 46 191.836 46H195.85ZM191.944 50.302H193.942V47.764H191.944C191.548 47.764 191.218 47.878 190.954 48.106C190.69 48.334 190.558 48.646 190.558 49.042C190.558 49.426 190.69 49.732 190.954 49.96C191.218 50.188 191.548 50.302 191.944 50.302ZM210.569 55H208.247L204.557 50.842V55H202.613V46H204.557V49.978L208.049 46H210.425L206.465 50.41L210.569 55ZM219.472 46V55H217.528V47.872H214.522V51.22C214.522 52.648 214.21 53.662 213.586 54.262C212.962 54.862 212.074 55.108 210.922 55V53.182C211.474 53.278 211.888 53.164 212.164 52.84C212.44 52.516 212.578 51.946 212.578 51.13V46H219.472ZM228.254 46H229.748V55H227.84V49.276L223.232 55H221.738V46H223.646V51.706L228.254 46ZM238.069 46H240.013V55H238.069V51.418H233.947V55H232.003V46H233.947V49.582H238.069V46ZM248.785 46H250.279V55H248.371V49.276L243.763 55H242.269V46H244.177V51.706L248.785 46ZM260.49 55H258.168L254.478 50.842V55H252.534V46H254.478V49.978L257.97 46H260.346L256.386 50.41L260.49 55ZM268.205 46H270.149V55H268.205V53.704C267.473 54.724 266.423 55.234 265.055 55.234C263.819 55.234 262.763 54.778 261.887 53.866C261.011 52.942 260.573 51.82 260.573 50.5C260.573 49.168 261.011 48.046 261.887 47.134C262.763 46.222 263.819 45.766 265.055 45.766C266.423 45.766 267.473 46.27 268.205 47.278V46ZM263.327 52.57C263.867 53.11 264.545 53.38 265.361 53.38C266.177 53.38 266.855 53.11 267.395 52.57C267.935 52.018 268.205 51.328 268.205 50.5C268.205 49.672 267.935 48.988 267.395 48.448C266.855 47.896 266.177 47.62 265.361 47.62C264.545 47.62 263.867 47.896 263.327 48.448C262.787 48.988 262.517 49.672 262.517 50.5C262.517 51.328 262.787 52.018 263.327 52.57Z" fill="#97A5AE"/>
<circle cx="12" cy="27" r="12" fill="#4C9FA3"/>
<g filter="url(#filter0_b_149_3044)">
<circle cx="20" cy="41" r="12" fill="#98D3BF" fill-opacity="0.5"/>
</g>
<defs>
<filter id="filter0_b_149_3044" x="4" y="25" width="32" height="32" filterUnits="userSpaceOnUse" color-interpolation-filters="sRGB">
<feFlood flood-opacity="0" result="BackgroundImageFix"/>
<feGaussianBlur in="BackgroundImage" stdDeviation="2"/>
<feComposite in2="SourceAlpha" operator="in" result="effect1_backgroundBlur_149_3044"/>
<feBlend mode="normal" in="SourceGraphic" in2="effect1_backgroundBlur_149_3044" result="shape"/>
</filter>
</defs>
</svg>
