<svg width="294" height="137" viewBox="0 0 294 137" fill="none" xmlns="http://www.w3.org/2000/svg">
<rect width="256" height="66" rx="20" fill="#C4C4C4"/>
<rect width="256" height="66" rx="20" fill="url(#paint0_linear_392_9862)"/>
<rect width="256" height="66" rx="20" fill="white" fill-opacity="0.46"/>
<path d="M32.5006 23.084C28.4694 23.084 25.209 26.3444 25.209 30.3756C25.209 35.8444 32.5006 43.9173 32.5006 43.9173C32.5006 43.9173 39.7923 35.8444 39.7923 30.3756C39.7923 26.3444 36.5319 23.084 32.5006 23.084ZM32.5006 32.9798C31.81 32.9798 31.1476 32.7054 30.6592 32.2171C30.1708 31.7287 29.8965 31.0663 29.8965 30.3756C29.8965 29.685 30.1708 29.0226 30.6592 28.5342C31.1476 28.0459 31.81 27.7715 32.5006 27.7715C33.1913 27.7715 33.8537 28.0459 34.3421 28.5342C34.8304 29.0226 35.1048 29.685 35.1048 30.3756C35.1048 31.0663 34.8304 31.7287 34.3421 32.2171C33.8537 32.7054 33.1913 32.9798 32.5006 32.9798V32.9798Z" fill="#FC5D37"/>
<path d="M58.368 21V22.664H54.736V29H53.008V21H58.368ZM59.9898 28.84C59.7551 29.0747 59.4724 29.192 59.1418 29.192C58.8111 29.192 58.5284 29.0747 58.2938 28.84C58.0591 28.6053 57.9418 28.3227 57.9418 27.992C57.9418 27.6613 58.0538 27.3787 58.2778 27.144C58.5124 26.9093 58.8004 26.792 59.1418 26.792C59.4724 26.792 59.7551 26.9093 59.9898 27.144C60.2244 27.3787 60.3418 27.6613 60.3418 27.992C60.3418 28.3227 60.2244 28.6053 59.9898 28.84ZM77.0119 17.8V29H75.1719V21.016L71.7639 26.648H71.5399L68.1319 21V29H66.2919V17.8H68.2759L71.6519 23.4L75.0439 17.8H77.0119ZM82.909 29.208C81.7357 29.208 80.7383 28.8027 79.917 27.992C79.0957 27.1813 78.685 26.184 78.685 25C78.685 23.816 79.0957 22.8187 79.917 22.008C80.7383 21.1973 81.7357 20.792 82.909 20.792C84.093 20.792 85.0903 21.1973 85.901 22.008C86.7223 22.8187 87.133 23.816 87.133 25C87.133 26.184 86.7223 27.1813 85.901 27.992C85.0903 28.8027 84.093 29.208 82.909 29.208ZM81.133 26.808C81.613 27.288 82.205 27.528 82.909 27.528C83.613 27.528 84.205 27.288 84.685 26.808C85.165 26.328 85.405 25.7253 85.405 25C85.405 24.2747 85.165 23.672 84.685 23.192C84.205 22.712 83.613 22.472 82.909 22.472C82.205 22.472 81.613 22.712 81.133 23.192C80.653 23.672 80.413 24.2747 80.413 25C80.413 25.7253 80.653 26.328 81.133 26.808ZM92.4715 29.208C91.2662 29.208 90.2582 28.8027 89.4475 27.992C88.6475 27.1813 88.2475 26.184 88.2475 25C88.2475 23.8053 88.6475 22.808 89.4475 22.008C90.2582 21.1973 91.2662 20.792 92.4715 20.792C93.2502 20.792 93.9595 20.9787 94.5995 21.352C95.2395 21.7253 95.7195 22.2267 96.0395 22.856L94.5515 23.72C94.3702 23.336 94.0928 23.0373 93.7195 22.824C93.3568 22.6 92.9355 22.488 92.4555 22.488C91.7515 22.488 91.1595 22.728 90.6795 23.208C90.2102 23.688 89.9755 24.2853 89.9755 25C89.9755 25.7147 90.2102 26.312 90.6795 26.792C91.1595 27.272 91.7515 27.512 92.4555 27.512C92.9248 27.512 93.3462 27.4 93.7195 27.176C94.1035 26.952 94.3915 26.6533 94.5835 26.28L96.0715 27.128C95.7302 27.768 95.2395 28.2747 94.5995 28.648C93.9595 29.0213 93.2502 29.208 92.4715 29.208ZM104.439 29H102.375L99.0954 25.304V29H97.3674V21H99.0954V24.536L102.199 21H104.311L100.791 24.92L104.439 29ZM111.138 24.888C111.927 25.2507 112.322 25.864 112.322 26.728C112.322 27.4 112.092 27.9493 111.634 28.376C111.186 28.792 110.54 29 109.698 29H105.602V21H109.378C110.199 21 110.834 21.208 111.282 21.624C111.74 22.0293 111.97 22.5573 111.97 23.208C111.97 23.9653 111.692 24.5253 111.138 24.888ZM109.25 22.472H107.25V24.248H109.25C109.954 24.248 110.306 23.9493 110.306 23.352C110.306 22.7653 109.954 22.472 109.25 22.472ZM109.538 27.496C110.263 27.496 110.626 27.1813 110.626 26.552C110.626 26.2747 110.53 26.0613 110.338 25.912C110.146 25.752 109.879 25.672 109.538 25.672H107.25V27.496H109.538ZM120.063 21H121.791V29H120.063V27.848C119.412 28.7547 118.479 29.208 117.263 29.208C116.164 29.208 115.225 28.8027 114.447 27.992C113.668 27.1707 113.279 26.1733 113.279 25C113.279 23.816 113.668 22.8187 114.447 22.008C115.225 21.1973 116.164 20.792 117.263 20.792C118.479 20.792 119.412 21.24 120.063 22.136V21ZM115.727 26.84C116.207 27.32 116.809 27.56 117.535 27.56C118.26 27.56 118.863 27.32 119.343 26.84C119.823 26.3493 120.063 25.736 120.063 25C120.063 24.264 119.823 23.656 119.343 23.176C118.863 22.6853 118.26 22.44 117.535 22.44C116.809 22.44 116.207 22.6853 115.727 23.176C115.247 23.656 115.007 24.264 115.007 25C115.007 25.736 115.247 26.3493 115.727 26.84ZM134.221 17.8H136.077L132.605 26.12C131.752 28.1573 130.37 29.1173 128.461 29V27.288C129.09 27.352 129.597 27.256 129.981 27C130.376 26.744 130.69 26.3173 130.925 25.72L127.197 17.8H129.053L131.773 23.704L134.221 17.8ZM142.869 21V29H141.141V22.664H138.469V25.64C138.469 26.9093 138.192 27.8107 137.637 28.344C137.083 28.8773 136.293 29.096 135.269 29V27.384C135.76 27.4693 136.128 27.368 136.373 27.08C136.619 26.792 136.741 26.2853 136.741 25.56V21H142.869ZM146.771 28.84C146.536 29.0747 146.254 29.192 145.923 29.192C145.592 29.192 145.31 29.0747 145.075 28.84C144.84 28.6053 144.723 28.3227 144.723 27.992C144.723 27.6613 144.835 27.3787 145.059 27.144C145.294 26.9093 145.582 26.792 145.923 26.792C146.254 26.792 146.536 26.9093 146.771 27.144C147.006 27.3787 147.123 27.6613 147.123 27.992C147.123 28.3227 147.006 28.6053 146.771 28.84ZM161.313 17.8V29H159.473V19.56H154.913V29H153.073V17.8H161.313ZM167.974 20.792C169.072 20.792 170.011 21.2027 170.79 22.024C171.568 22.8347 171.958 23.8267 171.958 25C171.958 26.184 171.568 27.1813 170.79 27.992C170.011 28.8027 169.072 29.208 167.974 29.208C166.758 29.208 165.824 28.76 165.174 27.864V32.2H163.446V21H165.174V22.152C165.824 21.2453 166.758 20.792 167.974 20.792ZM165.894 26.84C166.374 27.32 166.976 27.56 167.702 27.56C168.427 27.56 169.03 27.32 169.51 26.84C169.99 26.3493 170.23 25.736 170.23 25C170.23 24.264 169.99 23.656 169.51 23.176C169.03 22.6853 168.427 22.44 167.702 22.44C166.976 22.44 166.374 22.6853 165.894 23.176C165.414 23.656 165.174 24.264 165.174 25C165.174 25.736 165.414 26.3493 165.894 26.84ZM177.3 29.208C176.126 29.208 175.129 28.8027 174.308 27.992C173.486 27.1813 173.076 26.184 173.076 25C173.076 23.816 173.486 22.8187 174.308 22.008C175.129 21.1973 176.126 20.792 177.3 20.792C178.484 20.792 179.481 21.1973 180.292 22.008C181.113 22.8187 181.524 23.816 181.524 25C181.524 26.184 181.113 27.1813 180.292 27.992C179.481 28.8027 178.484 29.208 177.3 29.208ZM175.524 26.808C176.004 27.288 176.596 27.528 177.3 27.528C178.004 27.528 178.596 27.288 179.076 26.808C179.556 26.328 179.796 25.7253 179.796 25C179.796 24.2747 179.556 23.672 179.076 23.192C178.596 22.712 178.004 22.472 177.3 22.472C176.596 22.472 176.004 22.712 175.524 23.192C175.044 23.672 174.804 24.2747 174.804 25C174.804 25.7253 175.044 26.328 175.524 26.808ZM186.862 29.208C185.657 29.208 184.649 28.8027 183.838 27.992C183.038 27.1813 182.638 26.184 182.638 25C182.638 23.8053 183.038 22.808 183.838 22.008C184.649 21.1973 185.657 20.792 186.862 20.792C187.641 20.792 188.35 20.9787 188.99 21.352C189.63 21.7253 190.11 22.2267 190.43 22.856L188.942 23.72C188.761 23.336 188.483 23.0373 188.11 22.824C187.747 22.6 187.326 22.488 186.846 22.488C186.142 22.488 185.55 22.728 185.07 23.208C184.601 23.688 184.366 24.2853 184.366 25C184.366 25.7147 184.601 26.312 185.07 26.792C185.55 27.272 186.142 27.512 186.846 27.512C187.315 27.512 187.737 27.4 188.11 27.176C188.494 26.952 188.782 26.6533 188.974 26.28L190.462 27.128C190.121 27.768 189.63 28.2747 188.99 28.648C188.35 29.0213 187.641 29.208 186.862 29.208ZM198.878 21V29H197.15V22.632H193.486V29H191.758V21H198.878ZM202.243 25.736C202.371 26.344 202.664 26.8133 203.123 27.144C203.582 27.464 204.142 27.624 204.803 27.624C205.72 27.624 206.408 27.2933 206.867 26.632L208.291 27.464C207.502 28.6267 206.334 29.208 204.787 29.208C203.486 29.208 202.435 28.8133 201.635 28.024C200.835 27.224 200.435 26.216 200.435 25C200.435 23.8053 200.83 22.808 201.619 22.008C202.408 21.1973 203.422 20.792 204.659 20.792C205.832 20.792 206.792 21.2027 207.539 22.024C208.296 22.8453 208.675 23.8427 208.675 25.016C208.675 25.1973 208.654 25.4373 208.611 25.736H202.243ZM202.227 24.328H206.931C206.814 23.6773 206.542 23.1867 206.115 22.856C205.699 22.5253 205.208 22.36 204.643 22.36C204.003 22.36 203.47 22.536 203.043 22.888C202.616 23.24 202.344 23.72 202.227 24.328ZM217.267 29H215.204L211.924 25.304V29H210.196V21H211.924V24.536L215.028 21H217.14L213.62 24.92L217.267 29ZM224.542 21V22.664H221.934V29H220.206V22.664H217.582V21H224.542ZM225.339 24.968V23.304H231.259V24.968H225.339ZM59.712 42.192C60.2027 42.448 60.5867 42.8 60.864 43.248C61.1413 43.696 61.28 44.2133 61.28 44.8C61.28 45.7173 60.9547 46.48 60.304 47.088C59.6533 47.696 58.8587 48 57.92 48H53.12V36.8H57.568C58.4853 36.8 59.2587 37.0987 59.888 37.696C60.528 38.2827 60.848 39.0187 60.848 39.904C60.848 40.8747 60.4693 41.6373 59.712 42.192ZM57.568 38.528H54.96V41.472H57.568C57.9733 41.472 58.3147 41.3333 58.592 41.056C58.8693 40.768 59.008 40.416 59.008 40C59.008 39.584 58.8693 39.2373 58.592 38.96C58.3147 38.672 57.9733 38.528 57.568 38.528ZM57.92 46.272C58.3467 46.272 58.704 46.1227 58.992 45.824C59.2907 45.5147 59.44 45.1413 59.44 44.704C59.44 44.2667 59.2907 43.8987 58.992 43.6C58.704 43.2907 58.3467 43.136 57.92 43.136H54.96V46.272H57.92ZM64.2118 44.736C64.3398 45.344 64.6331 45.8133 65.0918 46.144C65.5504 46.464 66.1104 46.624 66.7718 46.624C67.6891 46.624 68.3771 46.2933 68.8358 45.632L70.2598 46.464C69.4704 47.6267 68.3024 48.208 66.7558 48.208C65.4544 48.208 64.4038 47.8133 63.6038 47.024C62.8038 46.224 62.4038 45.216 62.4038 44C62.4038 42.8053 62.7984 41.808 63.5878 41.008C64.3771 40.1973 65.3904 39.792 66.6278 39.792C67.8011 39.792 68.7611 40.2027 69.5078 41.024C70.2651 41.8453 70.6438 42.8427 70.6438 44.016C70.6438 44.1973 70.6224 44.4373 70.5798 44.736H64.2118ZM64.1957 43.328H68.8998C68.7824 42.6773 68.5104 42.1867 68.0838 41.856C67.6678 41.5253 67.1771 41.36 66.6118 41.36C65.9718 41.36 65.4384 41.536 65.0118 41.888C64.5851 42.24 64.3131 42.72 64.1957 43.328ZM76.6923 39.792C77.7909 39.792 78.7296 40.2027 79.5083 41.024C80.2869 41.8347 80.6763 42.8267 80.6763 44C80.6763 45.184 80.2869 46.1813 79.5083 46.992C78.7296 47.8027 77.7909 48.208 76.6923 48.208C75.4763 48.208 74.5429 47.76 73.8923 46.864V51.2H72.1643V40H73.8923V41.152C74.5429 40.2453 75.4763 39.792 76.6923 39.792ZM74.6123 45.84C75.0923 46.32 75.6949 46.56 76.4203 46.56C77.1456 46.56 77.7483 46.32 78.2283 45.84C78.7083 45.3493 78.9483 44.736 78.9483 44C78.9483 43.264 78.7083 42.656 78.2283 42.176C77.7483 41.6853 77.1456 41.44 76.4203 41.44C75.6949 41.44 75.0923 41.6853 74.6123 42.176C74.1323 42.656 73.8923 43.264 73.8923 44C73.8923 44.736 74.1323 45.3493 74.6123 45.84ZM87.6344 40H89.3624V48H87.6344V44.816H83.9704V48H82.2424V40H83.9704V43.184H87.6344V40ZM97.7034 40H99.4314V48H97.7034V46.848C97.0527 47.7547 96.1194 48.208 94.9034 48.208C93.8047 48.208 92.866 47.8027 92.0874 46.992C91.3087 46.1707 90.9194 45.1733 90.9194 44C90.9194 42.816 91.3087 41.8187 92.0874 41.008C92.866 40.1973 93.8047 39.792 94.9034 39.792C96.1194 39.792 97.0527 40.24 97.7034 41.136V40ZM93.3674 45.84C93.8474 46.32 94.45 46.56 95.1754 46.56C95.9007 46.56 96.5034 46.32 96.9834 45.84C97.4634 45.3493 97.7034 44.736 97.7034 44C97.7034 43.264 97.4634 42.656 96.9834 42.176C96.5034 41.6853 95.9007 41.44 95.1754 41.44C94.45 41.44 93.8474 41.6853 93.3674 42.176C92.8874 42.656 92.6474 43.264 92.6474 44C92.6474 44.736 92.8874 45.3493 93.3674 45.84ZM108.486 46.368H109.558V50.144H107.862V48H102.374V50.144H100.678V46.368H101.654C102.144 45.6747 102.39 44.7093 102.39 43.472V40H108.486V46.368ZM103.558 46.368H106.79V41.584H104.086V43.472C104.086 44.6133 103.91 45.5787 103.558 46.368ZM114.425 48.208C113.219 48.208 112.211 47.8027 111.401 46.992C110.601 46.1813 110.201 45.184 110.201 44C110.201 42.8053 110.601 41.808 111.401 41.008C112.211 40.1973 113.219 39.792 114.425 39.792C115.203 39.792 115.913 39.9787 116.553 40.352C117.193 40.7253 117.673 41.2267 117.993 41.856L116.505 42.72C116.323 42.336 116.046 42.0373 115.673 41.824C115.31 41.6 114.889 41.488 114.409 41.488C113.705 41.488 113.113 41.728 112.633 42.208C112.163 42.688 111.929 43.2853 111.929 44C111.929 44.7147 112.163 45.312 112.633 45.792C113.113 46.272 113.705 46.512 114.409 46.512C114.878 46.512 115.299 46.4 115.673 46.176C116.057 45.952 116.345 45.6533 116.537 45.28L118.025 46.128C117.683 46.768 117.193 47.2747 116.553 47.648C115.913 48.0213 115.203 48.208 114.425 48.208ZM126.392 48H124.329L121.049 44.304V48H119.321V40H121.049V43.536L124.153 40H126.265L122.745 43.92L126.392 48ZM130.69 48.208C129.517 48.208 128.52 47.8027 127.698 46.992C126.877 46.1813 126.466 45.184 126.466 44C126.466 42.816 126.877 41.8187 127.698 41.008C128.52 40.1973 129.517 39.792 130.69 39.792C131.874 39.792 132.872 40.1973 133.682 41.008C134.504 41.8187 134.914 42.816 134.914 44C134.914 45.184 134.504 46.1813 133.682 46.992C132.872 47.8027 131.874 48.208 130.69 48.208ZM128.914 45.808C129.394 46.288 129.986 46.528 130.69 46.528C131.394 46.528 131.986 46.288 132.466 45.808C132.946 45.328 133.186 44.7253 133.186 44C133.186 43.2747 132.946 42.672 132.466 42.192C131.986 41.712 131.394 41.472 130.69 41.472C129.986 41.472 129.394 41.712 128.914 42.192C128.434 42.672 128.194 43.2747 128.194 44C128.194 44.7253 128.434 45.328 128.914 45.808ZM141.837 40V41.664H138.205V48H136.477V40H141.837ZM146.472 48.208C145.298 48.208 144.301 47.8027 143.48 46.992C142.658 46.1813 142.248 45.184 142.248 44C142.248 42.816 142.658 41.8187 143.48 41.008C144.301 40.1973 145.298 39.792 146.472 39.792C147.656 39.792 148.653 40.1973 149.464 41.008C150.285 41.8187 150.696 42.816 150.696 44C150.696 45.184 150.285 46.1813 149.464 46.992C148.653 47.8027 147.656 48.208 146.472 48.208ZM144.696 45.808C145.176 46.288 145.768 46.528 146.472 46.528C147.176 46.528 147.768 46.288 148.248 45.808C148.728 45.328 148.968 44.7253 148.968 44C148.968 43.2747 148.728 42.672 148.248 42.192C147.768 41.712 147.176 41.472 146.472 41.472C145.768 41.472 145.176 41.712 144.696 42.192C144.216 42.672 143.976 43.2747 143.976 44C143.976 44.7253 144.216 45.328 144.696 45.808ZM154.017 46.08L152.897 50.24H151.457L152.097 46.08H154.017ZM159.34 48V46.56L163.244 42.576C164.193 41.6267 164.668 40.8053 164.668 40.112C164.668 39.568 164.502 39.1467 164.172 38.848C163.852 38.5387 163.441 38.384 162.94 38.384C162.001 38.384 161.308 38.848 160.86 39.776L159.308 38.864C159.66 38.1173 160.156 37.552 160.796 37.168C161.436 36.784 162.145 36.592 162.924 36.592C163.905 36.592 164.748 36.9013 165.452 37.52C166.156 38.1387 166.508 38.9813 166.508 40.048C166.508 41.1893 165.873 42.4053 164.604 43.696L162.076 46.224H166.716V48H159.34ZM172.5 41.376C173.311 41.568 173.967 41.9467 174.468 42.512C174.98 43.0667 175.236 43.7653 175.236 44.608C175.236 45.728 174.858 46.608 174.1 47.248C173.343 47.888 172.415 48.208 171.316 48.208C170.463 48.208 169.695 48.0107 169.012 47.616C168.34 47.2213 167.855 46.6453 167.556 45.888L169.124 44.976C169.455 45.936 170.186 46.416 171.316 46.416C171.956 46.416 172.463 46.256 172.836 45.936C173.21 45.6053 173.396 45.1627 173.396 44.608C173.396 44.0533 173.21 43.616 172.836 43.296C172.463 42.976 171.956 42.816 171.316 42.816H170.9L170.164 41.712L172.58 38.528H167.892V36.8H174.772V38.368L172.5 41.376ZM187.141 40H188.869V48H187.141V46.848C186.49 47.7547 185.557 48.208 184.341 48.208C183.242 48.208 182.304 47.8027 181.525 46.992C180.746 46.1707 180.357 45.1733 180.357 44C180.357 42.816 180.746 41.8187 181.525 41.008C182.304 40.1973 183.242 39.792 184.341 39.792C185.557 39.792 186.49 40.24 187.141 41.136V40ZM182.805 45.84C183.285 46.32 183.888 46.56 184.613 46.56C185.338 46.56 185.941 46.32 186.421 45.84C186.901 45.3493 187.141 44.736 187.141 44C187.141 43.264 186.901 42.656 186.421 42.176C185.941 41.6853 185.338 41.44 184.613 41.44C183.888 41.44 183.285 41.6853 182.805 42.176C182.325 42.656 182.085 43.264 182.085 44C182.085 44.736 182.325 45.3493 182.805 45.84Z" fill="#1A6958"/>
<g filter="url(#filter0_i_392_9862)">
<path d="M287.745 89.1164C287.745 108.987 271.556 113.125 263.28 118.338C262.43 118.873 261.652 120.588 261.298 121.528V121.528C260.852 122.71 260.147 122.71 259.701 121.528V121.528C259.346 120.588 258.568 118.875 257.721 118.334C249.446 113.046 233.254 108.219 233.254 89.1164C233.254 74.0692 245.452 61.8711 260.499 61.8711C275.546 61.8711 287.745 74.0692 287.745 89.1164Z" fill="#C4C4C4"/>
<path d="M287.745 89.1164C287.745 108.987 271.556 113.125 263.28 118.338C262.43 118.873 261.652 120.588 261.298 121.528V121.528C260.852 122.71 260.147 122.71 259.701 121.528V121.528C259.346 120.588 258.568 118.875 257.721 118.334C249.446 113.046 233.254 108.219 233.254 89.1164C233.254 74.0692 245.452 61.8711 260.499 61.8711C275.546 61.8711 287.745 74.0692 287.745 89.1164Z" fill="url(#paint1_linear_392_9862)"/>
</g>
<g filter="url(#filter1_i_392_9862)">
<rect x="257" y="125" width="7" height="7" rx="3.5" fill="white" fill-opacity="0.3"/>
</g>
<g filter="url(#filter2_i_392_9862)">
<circle cx="260.502" cy="128.559" r="2.43988" fill="#C4C4C4"/>
<circle cx="260.502" cy="128.559" r="2.43988" fill="url(#paint2_linear_392_9862)"/>
</g>
<g filter="url(#filter3_di_392_9862)">
<path d="M259.376 93.864C259.323 93.2784 259.784 92.7734 260.372 92.7734H261.435C262.024 92.7734 262.485 93.2784 262.431 93.864L261.791 100.91C261.749 101.368 261.365 101.72 260.904 101.72V101.72C260.443 101.72 260.059 101.368 260.017 100.91L259.376 93.864Z" fill="url(#paint3_linear_392_9862)"/>
</g>
<g filter="url(#filter4_di_392_9862)">
<circle cx="260.905" cy="84.6411" r="6.50634" fill="#B35A5A"/>
<circle cx="260.905" cy="84.6411" r="6.50634" fill="url(#paint4_linear_392_9862)"/>
</g>
<circle cx="258.463" cy="82.2008" r="1.62659" fill="white"/>
<g filter="url(#filter5_i_392_9862)">
<line x1="260.406" y1="61.8711" x2="260.406" y2="6.56717" stroke="#FB5F34"/>
</g>
<g filter="url(#filter6_i_392_9862)">
<circle cx="260.499" cy="3.31177" r="2.75317" stroke="#FB5F34"/>
</g>
<defs>
<filter id="filter0_i_392_9862" x="233.254" y="61.8711" width="55.3684" height="61.4211" filterUnits="userSpaceOnUse" color-interpolation-filters="sRGB">
<feFlood flood-opacity="0" result="BackgroundImageFix"/>
<feBlend mode="normal" in="SourceGraphic" in2="BackgroundImageFix" result="shape"/>
<feColorMatrix in="SourceAlpha" type="matrix" values="0 0 0 0 0 0 0 0 0 0 0 0 0 0 0 0 0 0 127 0" result="hardAlpha"/>
<feOffset dx="0.878173" dy="0.878173"/>
<feGaussianBlur stdDeviation="2.63452"/>
<feComposite in2="hardAlpha" operator="arithmetic" k2="-1" k3="1"/>
<feColorMatrix type="matrix" values="0 0 0 0 1 0 0 0 0 1 0 0 0 0 1 0 0 0 0.6 0"/>
<feBlend mode="normal" in2="shape" result="effect1_innerShadow_392_9862"/>
</filter>
<filter id="filter1_i_392_9862" x="257" y="125" width="7.87817" height="7.87817" filterUnits="userSpaceOnUse" color-interpolation-filters="sRGB">
<feFlood flood-opacity="0" result="BackgroundImageFix"/>
<feBlend mode="normal" in="SourceGraphic" in2="BackgroundImageFix" result="shape"/>
<feColorMatrix in="SourceAlpha" type="matrix" values="0 0 0 0 0 0 0 0 0 0 0 0 0 0 0 0 0 0 127 0" result="hardAlpha"/>
<feOffset dx="0.878173" dy="0.878173"/>
<feGaussianBlur stdDeviation="2.63452"/>
<feComposite in2="hardAlpha" operator="arithmetic" k2="-1" k3="1"/>
<feColorMatrix type="matrix" values="0 0 0 0 1 0 0 0 0 1 0 0 0 0 1 0 0 0 0.4 0"/>
<feBlend mode="normal" in2="shape" result="effect1_innerShadow_392_9862"/>
</filter>
<filter id="filter2_i_392_9862" x="258.062" y="126.119" width="5.75708" height="5.75708" filterUnits="userSpaceOnUse" color-interpolation-filters="sRGB">
<feFlood flood-opacity="0" result="BackgroundImageFix"/>
<feBlend mode="normal" in="SourceGraphic" in2="BackgroundImageFix" result="shape"/>
<feColorMatrix in="SourceAlpha" type="matrix" values="0 0 0 0 0 0 0 0 0 0 0 0 0 0 0 0 0 0 127 0" result="hardAlpha"/>
<feOffset dx="0.878173" dy="0.878173"/>
<feGaussianBlur stdDeviation="2.63452"/>
<feComposite in2="hardAlpha" operator="arithmetic" k2="-1" k3="1"/>
<feColorMatrix type="matrix" values="0 0 0 0 1 0 0 0 0 1 0 0 0 0 1 0 0 0 0.6 0"/>
<feBlend mode="normal" in2="shape" result="effect1_innerShadow_392_9862"/>
</filter>
<filter id="filter3_di_392_9862" x="233.028" y="75.21" width="55.7529" height="61.6357" filterUnits="userSpaceOnUse" color-interpolation-filters="sRGB">
<feFlood flood-opacity="0" result="BackgroundImageFix"/>
<feColorMatrix in="SourceAlpha" type="matrix" values="0 0 0 0 0 0 0 0 0 0 0 0 0 0 0 0 0 0 127 0" result="hardAlpha"/>
<feOffset dy="8.78173"/>
<feGaussianBlur stdDeviation="13.1726"/>
<feComposite in2="hardAlpha" operator="out"/>
<feColorMatrix type="matrix" values="0 0 0 0 1 0 0 0 0 0.517647 0 0 0 0 0.294118 0 0 0 0.3 0"/>
<feBlend mode="normal" in2="BackgroundImageFix" result="effect1_dropShadow_392_9862"/>
<feBlend mode="normal" in="SourceGraphic" in2="effect1_dropShadow_392_9862" result="shape"/>
<feColorMatrix in="SourceAlpha" type="matrix" values="0 0 0 0 0 0 0 0 0 0 0 0 0 0 0 0 0 0 127 0" result="hardAlpha"/>
<feOffset dx="0.878173" dy="0.878173"/>
<feGaussianBlur stdDeviation="2.63452"/>
<feComposite in2="hardAlpha" operator="arithmetic" k2="-1" k3="1"/>
<feColorMatrix type="matrix" values="0 0 0 0 1 0 0 0 0 1 0 0 0 0 1 0 0 0 0.6 0"/>
<feBlend mode="normal" in2="shape" result="effect2_innerShadow_392_9862"/>
</filter>
<filter id="filter4_di_392_9862" x="228.053" y="60.5713" width="65.7021" height="65.7021" filterUnits="userSpaceOnUse" color-interpolation-filters="sRGB">
<feFlood flood-opacity="0" result="BackgroundImageFix"/>
<feColorMatrix in="SourceAlpha" type="matrix" values="0 0 0 0 0 0 0 0 0 0 0 0 0 0 0 0 0 0 127 0" result="hardAlpha"/>
<feOffset dy="8.78173"/>
<feGaussianBlur stdDeviation="13.1726"/>
<feComposite in2="hardAlpha" operator="out"/>
<feColorMatrix type="matrix" values="0 0 0 0 1 0 0 0 0 0.517647 0 0 0 0 0.294118 0 0 0 0.3 0"/>
<feBlend mode="normal" in2="BackgroundImageFix" result="effect1_dropShadow_392_9862"/>
<feBlend mode="normal" in="SourceGraphic" in2="effect1_dropShadow_392_9862" result="shape"/>
<feColorMatrix in="SourceAlpha" type="matrix" values="0 0 0 0 0 0 0 0 0 0 0 0 0 0 0 0 0 0 127 0" result="hardAlpha"/>
<feOffset dx="0.878173" dy="0.878173"/>
<feGaussianBlur stdDeviation="2.63452"/>
<feComposite in2="hardAlpha" operator="arithmetic" k2="-1" k3="1"/>
<feColorMatrix type="matrix" values="0 0 0 0 1 0 0 0 0 1 0 0 0 0 1 0 0 0 0.6 0"/>
<feBlend mode="normal" in2="shape" result="effect2_innerShadow_392_9862"/>
</filter>
<filter id="filter5_i_392_9862" x="259.906" y="6.56641" width="1.87817" height="56.1829" filterUnits="userSpaceOnUse" color-interpolation-filters="sRGB">
<feFlood flood-opacity="0" result="BackgroundImageFix"/>
<feBlend mode="normal" in="SourceGraphic" in2="BackgroundImageFix" result="shape"/>
<feColorMatrix in="SourceAlpha" type="matrix" values="0 0 0 0 0 0 0 0 0 0 0 0 0 0 0 0 0 0 127 0" result="hardAlpha"/>
<feOffset dx="0.878173" dy="0.878173"/>
<feGaussianBlur stdDeviation="2.63452"/>
<feComposite in2="hardAlpha" operator="arithmetic" k2="-1" k3="1"/>
<feColorMatrix type="matrix" values="0 0 0 0 1 0 0 0 0 1 0 0 0 0 1 0 0 0 0.6 0"/>
<feBlend mode="normal" in2="shape" result="effect1_innerShadow_392_9862"/>
</filter>
<filter id="filter6_i_392_9862" x="257.246" y="0.0585938" width="7.38403" height="7.38403" filterUnits="userSpaceOnUse" color-interpolation-filters="sRGB">
<feFlood flood-opacity="0" result="BackgroundImageFix"/>
<feBlend mode="normal" in="SourceGraphic" in2="BackgroundImageFix" result="shape"/>
<feColorMatrix in="SourceAlpha" type="matrix" values="0 0 0 0 0 0 0 0 0 0 0 0 0 0 0 0 0 0 127 0" result="hardAlpha"/>
<feOffset dx="0.878173" dy="0.878173"/>
<feGaussianBlur stdDeviation="2.63452"/>
<feComposite in2="hardAlpha" operator="arithmetic" k2="-1" k3="1"/>
<feColorMatrix type="matrix" values="0 0 0 0 1 0 0 0 0 1 0 0 0 0 1 0 0 0 0.6 0"/>
<feBlend mode="normal" in2="shape" result="effect1_innerShadow_392_9862"/>
</filter>
<linearGradient id="paint0_linear_392_9862" x1="252.524" y1="66" x2="3.85802" y2="70.2474" gradientUnits="userSpaceOnUse">
<stop stop-color="#7CCEBB"/>
<stop offset="1" stop-color="#55B39A"/>
</linearGradient>
<linearGradient id="paint1_linear_392_9862" x1="274.48" y1="40.4606" x2="248.699" y2="125.555" gradientUnits="userSpaceOnUse">
<stop stop-color="#318E88"/>
<stop offset="1" stop-color="#73C1A8"/>
</linearGradient>
<linearGradient id="paint2_linear_392_9862" x1="258.226" y1="129.958" x2="262.002" y2="129.823" gradientUnits="userSpaceOnUse">
<stop stop-color="#F76B2A"/>
<stop offset="1" stop-color="#FC5A37"/>
</linearGradient>
<linearGradient id="paint3_linear_392_9862" x1="259.387" y1="99.812" x2="261.906" y2="99.7791" gradientUnits="userSpaceOnUse">
<stop stop-color="#F76B2A"/>
<stop offset="1" stop-color="#FC5A37"/>
</linearGradient>
<linearGradient id="paint4_linear_392_9862" x1="254.835" y1="88.3727" x2="264.904" y2="88.0111" gradientUnits="userSpaceOnUse">
<stop stop-color="#F76B2A"/>
<stop offset="1" stop-color="#FC5A37"/>
</linearGradient>
</defs>
</svg>
