<svg width="510" height="162" viewBox="0 0 510 162" fill="none" xmlns="http://www.w3.org/2000/svg">
<rect y="4" width="470" height="67" rx="20" fill="#C4C4C4"/>
<rect y="4" width="470" height="67" rx="20" fill="url(#paint0_linear_389_9832)"/>
<rect y="4" width="470" height="67" rx="20" fill="white" fill-opacity="0.46"/>
<path d="M32.5006 27.084C28.4694 27.084 25.209 30.3444 25.209 34.3756C25.209 39.8444 32.5006 47.9173 32.5006 47.9173C32.5006 47.9173 39.7923 39.8444 39.7923 34.3756C39.7923 30.3444 36.5319 27.084 32.5006 27.084ZM32.5006 36.9798C31.81 36.9798 31.1476 36.7054 30.6592 36.2171C30.1708 35.7287 29.8965 35.0663 29.8965 34.3756C29.8965 33.685 30.1708 33.0226 30.6592 32.5342C31.1476 32.0459 31.81 31.7715 32.5006 31.7715C33.1913 31.7715 33.8537 32.0459 34.3421 32.5342C34.8304 33.0226 35.1048 33.685 35.1048 34.3756C35.1048 35.0663 34.8304 35.7287 34.3421 36.2171C33.8537 36.7054 33.1913 36.9798 32.5006 36.9798V36.9798Z" fill="#FC5D37"/>
<path d="M53.26 33H59.96V35.08H55.42V43H53.26V33ZM60.9272 40.24C61.3405 40.24 61.6939 40.3867 61.9872 40.68C62.2805 40.9733 62.4272 41.3267 62.4272 41.74C62.4272 42.1533 62.2805 42.5067 61.9872 42.8C61.6939 43.0933 61.3405 43.24 60.9272 43.24C60.5139 43.24 60.1605 43.0933 59.8672 42.8C59.5739 42.5067 59.4272 42.1533 59.4272 41.74C59.4272 41.3267 59.5672 40.9733 59.8472 40.68C60.1405 40.3867 60.5005 40.24 60.9272 40.24ZM80.8048 29H83.2648V43H80.9648V33.02L76.7048 40.06H76.4248L72.1648 33V43H69.8648V29H72.3448L76.5648 36L80.8048 29ZM94.3763 41.74C93.3629 42.7533 92.1163 43.26 90.6363 43.26C89.1563 43.26 87.9096 42.7533 86.8963 41.74C85.8696 40.7133 85.3563 39.4667 85.3563 38C85.3563 36.5333 85.8696 35.2867 86.8963 34.26C87.9096 33.2467 89.1563 32.74 90.6363 32.74C92.1163 32.74 93.3629 33.2467 94.3763 34.26C95.4029 35.2867 95.9163 36.5333 95.9163 38C95.9163 39.4667 95.4029 40.7133 94.3763 41.74ZM87.5163 38C87.5163 38.9067 87.8163 39.66 88.4163 40.26C89.0163 40.86 89.7563 41.16 90.6363 41.16C91.5163 41.16 92.2563 40.86 92.8563 40.26C93.4563 39.66 93.7563 38.9067 93.7563 38C93.7563 37.0933 93.4563 36.34 92.8563 35.74C92.2563 35.14 91.5163 34.84 90.6363 34.84C89.7563 34.84 89.0163 35.14 88.4163 35.74C87.8163 36.34 87.5163 37.0933 87.5163 38ZM102.589 43.26C101.083 43.26 99.8227 42.7533 98.8094 41.74C97.8094 40.7133 97.3094 39.4667 97.3094 38C97.3094 36.5067 97.8094 35.26 98.8094 34.26C99.8227 33.2467 101.083 32.74 102.589 32.74C103.563 32.74 104.449 32.9733 105.249 33.44C106.049 33.9067 106.649 34.5333 107.049 35.32L105.189 36.4C104.963 35.92 104.616 35.5467 104.149 35.28C103.696 35 103.169 34.86 102.569 34.86C101.689 34.86 100.949 35.16 100.349 35.76C99.7627 36.3733 99.4694 37.12 99.4694 38C99.4694 38.88 99.7627 39.6267 100.349 40.24C100.949 40.84 101.689 41.14 102.569 41.14C103.156 41.14 103.683 41.0067 104.149 40.74C104.629 40.46 104.989 40.08 105.229 39.6L107.089 40.66C106.663 41.46 106.043 42.0933 105.229 42.56C104.429 43.0267 103.549 43.26 102.589 43.26ZM112.989 37.9L117.549 43H114.969L110.869 38.38V43H108.709V33H110.869V37.42L114.749 33H117.389L112.989 37.9ZM125.922 37.86C126.909 38.3267 127.402 39.0933 127.402 40.16C127.402 41.0133 127.109 41.7 126.522 42.22C125.949 42.74 125.149 43 124.122 43H119.002V33H123.722C124.736 33 125.529 33.2533 126.102 33.76C126.676 34.2667 126.962 34.9333 126.962 35.76C126.962 36.7067 126.616 37.4067 125.922 37.86ZM123.562 34.84H121.062V37.06H123.562C124.442 37.06 124.882 36.6867 124.882 35.94C124.882 35.2067 124.442 34.84 123.562 34.84ZM121.062 41.12H123.922C124.829 41.12 125.282 40.7267 125.282 39.94C125.282 39.5933 125.162 39.3267 124.922 39.14C124.682 38.94 124.349 38.84 123.922 38.84H121.062V41.12ZM137.078 34.42V33H139.238V43H137.078V41.56C136.265 42.6933 135.098 43.26 133.578 43.26C132.205 43.26 131.032 42.7533 130.058 41.74C129.085 40.7267 128.598 39.48 128.598 38C128.598 36.52 129.085 35.2733 130.058 34.26C131.032 33.2467 132.205 32.74 133.578 32.74C135.098 32.74 136.265 33.3 137.078 34.42ZM131.658 40.3C132.258 40.9 133.012 41.2 133.918 41.2C134.825 41.2 135.578 40.9 136.178 40.3C136.778 39.6867 137.078 38.92 137.078 38C137.078 37.08 136.778 36.32 136.178 35.72C135.578 35.1067 134.825 34.8 133.918 34.8C133.012 34.8 132.258 35.1067 131.658 35.72C131.058 36.32 130.758 37.08 130.758 38C130.758 38.9067 131.058 39.6733 131.658 40.3ZM151.716 36.38L154.776 29H157.096L152.756 39.4C151.689 41.9467 149.963 43.1467 147.576 43V40.86C148.363 40.94 148.996 40.8267 149.476 40.52C149.969 40.2 150.363 39.66 150.656 38.9L145.996 29H148.316L151.716 36.38ZM157.927 33H165.587V43H163.427V35.08H160.087V38.8C160.087 40.36 159.747 41.48 159.067 42.16C158.387 42.84 157.393 43.12 156.087 43V40.98C156.7 41.0867 157.16 40.96 157.467 40.6C157.773 40.2267 157.927 39.5933 157.927 38.7V33ZM169.404 40.24C169.817 40.24 170.17 40.3867 170.464 40.68C170.757 40.9733 170.904 41.3267 170.904 41.74C170.904 42.1533 170.757 42.5067 170.464 42.8C170.17 43.0933 169.817 43.24 169.404 43.24C168.99 43.24 168.637 43.0933 168.344 42.8C168.05 42.5067 167.904 42.1533 167.904 41.74C167.904 41.3267 168.044 40.9733 168.324 40.68C168.617 40.3867 168.977 40.24 169.404 40.24ZM178.341 29H188.641V43H186.341V31.2H180.641V43H178.341V29ZM196.967 32.74C198.327 32.74 199.5 33.2533 200.487 34.28C201.46 35.2933 201.947 36.5333 201.947 38C201.947 39.48 201.46 40.7267 200.487 41.74C199.514 42.7533 198.34 43.26 196.967 43.26C195.46 43.26 194.294 42.7 193.467 41.58V47H191.307V33H193.467V34.44C194.28 33.3067 195.447 32.74 196.967 32.74ZM194.367 40.3C194.967 40.9 195.72 41.2 196.627 41.2C197.534 41.2 198.287 40.9 198.887 40.3C199.487 39.6867 199.787 38.92 199.787 38C199.787 37.08 199.487 36.32 198.887 35.72C198.287 35.1067 197.534 34.8 196.627 34.8C195.72 34.8 194.967 35.1067 194.367 35.72C193.767 36.32 193.467 37.08 193.467 38C193.467 38.9067 193.767 39.6733 194.367 40.3ZM212.365 41.74C211.351 42.7533 210.105 43.26 208.625 43.26C207.145 43.26 205.898 42.7533 204.885 41.74C203.858 40.7133 203.345 39.4667 203.345 38C203.345 36.5333 203.858 35.2867 204.885 34.26C205.898 33.2467 207.145 32.74 208.625 32.74C210.105 32.74 211.351 33.2467 212.365 34.26C213.391 35.2867 213.905 36.5333 213.905 38C213.905 39.4667 213.391 40.7133 212.365 41.74ZM205.505 38C205.505 38.9067 205.805 39.66 206.405 40.26C207.005 40.86 207.745 41.16 208.625 41.16C209.505 41.16 210.245 40.86 210.845 40.26C211.445 39.66 211.745 38.9067 211.745 38C211.745 37.0933 211.445 36.34 210.845 35.74C210.245 35.14 209.505 34.84 208.625 34.84C207.745 34.84 207.005 35.14 206.405 35.74C205.805 36.34 205.505 37.0933 205.505 38ZM220.578 43.26C219.071 43.26 217.811 42.7533 216.798 41.74C215.798 40.7133 215.298 39.4667 215.298 38C215.298 36.5067 215.798 35.26 216.798 34.26C217.811 33.2467 219.071 32.74 220.578 32.74C221.551 32.74 222.438 32.9733 223.238 33.44C224.038 33.9067 224.638 34.5333 225.038 35.32L223.178 36.4C222.951 35.92 222.604 35.5467 222.138 35.28C221.684 35 221.158 34.86 220.558 34.86C219.678 34.86 218.938 35.16 218.338 35.76C217.751 36.3733 217.458 37.12 217.458 38C217.458 38.88 217.751 39.6267 218.338 40.24C218.938 40.84 219.678 41.14 220.558 41.14C221.144 41.14 221.671 41.0067 222.138 40.74C222.618 40.46 222.978 40.08 223.218 39.6L225.078 40.66C224.651 41.46 224.031 42.0933 223.218 42.56C222.418 43.0267 221.538 43.26 220.578 43.26ZM226.698 33H235.598V43H233.438V35.04H228.858V43H226.698V33ZM247.764 38.92H239.804C239.964 39.6667 240.324 40.2467 240.884 40.66C241.457 41.0733 242.164 41.28 243.004 41.28C244.137 41.28 244.997 40.8667 245.584 40.04L247.364 41.08C246.39 42.5333 244.93 43.26 242.984 43.26C241.37 43.26 240.057 42.7667 239.044 41.78C238.044 40.78 237.544 39.52 237.544 38C237.544 36.52 238.037 35.2733 239.024 34.26C239.997 33.2467 241.264 32.74 242.824 32.74C244.277 32.74 245.477 33.2533 246.424 34.28C247.37 35.3067 247.844 36.5533 247.844 38.02C247.844 38.2867 247.817 38.5867 247.764 38.92ZM239.784 37.16H245.664C245.517 36.3733 245.184 35.7667 244.664 35.34C244.157 34.9133 243.537 34.7 242.804 34.7C242.004 34.7 241.337 34.92 240.804 35.36C240.27 35.8 239.93 36.4 239.784 37.16ZM254.024 37.9L258.584 43H256.004L251.904 38.38V43H249.744V33H251.904V37.42L255.784 33H258.424L254.024 37.9ZM258.977 33H267.677V35.08H264.417V43H262.257V35.08H258.977V33ZM276.073 37.96H268.673V35.88H276.073V37.96ZM287.109 35.74C287.722 36.06 288.202 36.5067 288.549 37.08C288.895 37.64 289.069 38.28 289.069 39C289.069 40.1467 288.662 41.1 287.849 41.86C287.035 42.62 286.042 43 284.869 43H278.869V29H284.429C285.575 29 286.542 29.3733 287.329 30.12C288.129 30.8667 288.529 31.7867 288.529 32.88C288.529 34.08 288.055 35.0333 287.109 35.74ZM284.429 31.16H281.169V34.84H284.429C284.935 34.84 285.362 34.6667 285.709 34.32C286.055 33.96 286.229 33.52 286.229 33C286.229 32.48 286.055 32.0467 285.709 31.7C285.362 31.34 284.935 31.16 284.429 31.16ZM281.169 40.84H284.869C285.402 40.84 285.849 40.6533 286.209 40.28C286.582 39.8933 286.769 39.4267 286.769 38.88C286.769 38.3333 286.582 37.8733 286.209 37.5C285.849 37.1133 285.402 36.92 284.869 36.92H281.169V40.84ZM300.693 38.92H292.733C292.893 39.6667 293.253 40.2467 293.813 40.66C294.387 41.0733 295.093 41.28 295.933 41.28C297.067 41.28 297.927 40.8667 298.513 40.04L300.293 41.08C299.32 42.5333 297.86 43.26 295.913 43.26C294.3 43.26 292.987 42.7667 291.973 41.78C290.973 40.78 290.473 39.52 290.473 38C290.473 36.52 290.967 35.2733 291.953 34.26C292.927 33.2467 294.193 32.74 295.753 32.74C297.207 32.74 298.407 33.2533 299.353 34.28C300.3 35.3067 300.773 36.5533 300.773 38.02C300.773 38.2867 300.747 38.5867 300.693 38.92ZM292.713 37.16H298.593C298.447 36.3733 298.113 35.7667 297.593 35.34C297.087 34.9133 296.467 34.7 295.733 34.7C294.933 34.7 294.267 34.92 293.733 35.36C293.2 35.8 292.86 36.4 292.713 37.16ZM308.334 32.74C309.694 32.74 310.867 33.2533 311.854 34.28C312.827 35.2933 313.314 36.5333 313.314 38C313.314 39.48 312.827 40.7267 311.854 41.74C310.881 42.7533 309.707 43.26 308.334 43.26C306.827 43.26 305.661 42.7 304.834 41.58V47H302.674V33H304.834V34.44C305.647 33.3067 306.814 32.74 308.334 32.74ZM305.734 40.3C306.334 40.9 307.087 41.2 307.994 41.2C308.901 41.2 309.654 40.9 310.254 40.3C310.854 39.6867 311.154 38.92 311.154 38C311.154 37.08 310.854 36.32 310.254 35.72C309.654 35.1067 308.901 34.8 307.994 34.8C307.087 34.8 306.334 35.1067 305.734 35.72C305.134 36.32 304.834 37.08 304.834 38C304.834 38.9067 305.134 39.6733 305.734 40.3ZM322.012 36.98V33H324.172V43H322.012V39.02H317.432V43H315.272V33H317.432V36.98H322.012ZM334.598 34.42V33H336.758V43H334.598V41.56C333.785 42.6933 332.618 43.26 331.098 43.26C329.725 43.26 328.551 42.7533 327.578 41.74C326.605 40.7267 326.118 39.48 326.118 38C326.118 36.52 326.605 35.2733 327.578 34.26C328.551 33.2467 329.725 32.74 331.098 32.74C332.618 32.74 333.785 33.3 334.598 34.42ZM329.178 40.3C329.778 40.9 330.531 41.2 331.438 41.2C332.345 41.2 333.098 40.9 333.698 40.3C334.298 39.6867 334.598 38.92 334.598 38C334.598 37.08 334.298 36.32 333.698 35.72C333.098 35.1067 332.345 34.8 331.438 34.8C330.531 34.8 329.778 35.1067 329.178 35.72C328.578 36.32 328.278 37.08 328.278 38C328.278 38.9067 328.578 39.6733 329.178 40.3ZM348.076 33V40.96H349.416V45.68H347.296V43H340.436V45.68H338.316V40.96H339.536C340.149 40.1067 340.456 38.9 340.456 37.34V33H348.076ZM341.916 40.96H345.956V34.98H342.576V37.34C342.576 38.78 342.356 39.9867 341.916 40.96ZM355.5 43.26C353.993 43.26 352.733 42.7533 351.72 41.74C350.72 40.7133 350.22 39.4667 350.22 38C350.22 36.5067 350.72 35.26 351.72 34.26C352.733 33.2467 353.993 32.74 355.5 32.74C356.473 32.74 357.36 32.9733 358.16 33.44C358.96 33.9067 359.56 34.5333 359.96 35.32L358.1 36.4C357.873 35.92 357.526 35.5467 357.06 35.28C356.606 35 356.08 34.86 355.48 34.86C354.6 34.86 353.86 35.16 353.26 35.76C352.673 36.3733 352.38 37.12 352.38 38C352.38 38.88 352.673 39.6267 353.26 40.24C353.86 40.84 354.6 41.14 355.48 41.14C356.066 41.14 356.593 41.0067 357.06 40.74C357.54 40.46 357.9 40.08 358.14 39.6L360 40.66C359.573 41.46 358.953 42.0933 358.14 42.56C357.34 43.0267 356.46 43.26 355.5 43.26ZM365.899 37.9L370.459 43H367.879L363.779 38.38V43H361.619V33H363.779V37.42L367.659 33H370.299L365.899 37.9ZM379.572 41.74C378.558 42.7533 377.312 43.26 375.832 43.26C374.352 43.26 373.105 42.7533 372.092 41.74C371.065 40.7133 370.552 39.4667 370.552 38C370.552 36.5333 371.065 35.2867 372.092 34.26C373.105 33.2467 374.352 32.74 375.832 32.74C377.312 32.74 378.558 33.2467 379.572 34.26C380.598 35.2867 381.112 36.5333 381.112 38C381.112 39.4667 380.598 40.7133 379.572 41.74ZM372.712 38C372.712 38.9067 373.012 39.66 373.612 40.26C374.212 40.86 374.952 41.16 375.832 41.16C376.712 41.16 377.452 40.86 378.052 40.26C378.652 39.66 378.952 38.9067 378.952 38C378.952 37.0933 378.652 36.34 378.052 35.74C377.452 35.14 376.712 34.84 375.832 34.84C374.952 34.84 374.212 35.14 373.612 35.74C373.012 36.34 372.712 37.0933 372.712 38ZM383.065 33H389.765V35.08H385.225V43H383.065V33ZM399.298 41.74C398.285 42.7533 397.038 43.26 395.558 43.26C394.078 43.26 392.831 42.7533 391.818 41.74C390.791 40.7133 390.278 39.4667 390.278 38C390.278 36.5333 390.791 35.2867 391.818 34.26C392.831 33.2467 394.078 32.74 395.558 32.74C397.038 32.74 398.285 33.2467 399.298 34.26C400.325 35.2867 400.838 36.5333 400.838 38C400.838 39.4667 400.325 40.7133 399.298 41.74ZM392.438 38C392.438 38.9067 392.738 39.66 393.338 40.26C393.938 40.86 394.678 41.16 395.558 41.16C396.438 41.16 397.178 40.86 397.778 40.26C398.378 39.66 398.678 38.9067 398.678 38C398.678 37.0933 398.378 36.34 397.778 35.74C397.178 35.14 396.438 34.84 395.558 34.84C394.678 34.84 393.938 35.14 393.338 35.74C392.738 36.34 392.438 37.0933 392.438 38ZM402.59 40.6H404.99L403.59 45.8H401.79L402.59 40.6ZM420.863 43H411.643V41.2L416.523 36.22C417.71 35.0333 418.303 34.0067 418.303 33.14C418.303 32.4733 418.103 31.9467 417.703 31.56C417.303 31.1733 416.783 30.98 416.143 30.98C414.97 30.98 414.103 31.56 413.543 32.72L411.603 31.58C412.03 30.66 412.643 29.96 413.443 29.48C414.243 28.9867 415.137 28.74 416.123 28.74C417.363 28.74 418.417 29.1267 419.283 29.9C420.163 30.6867 420.603 31.74 420.603 33.06C420.603 34.4733 419.81 35.9933 418.223 37.62L415.063 40.78H420.863V43ZM430.934 30.96L428.094 34.72C429.134 34.96 429.961 35.44 430.574 36.16C431.201 36.8667 431.514 37.7333 431.514 38.76C431.514 40.16 431.041 41.26 430.094 42.06C429.161 42.86 428.001 43.26 426.614 43.26C425.521 43.26 424.554 43.0133 423.714 42.52C422.874 42.0133 422.274 41.2933 421.914 40.36L423.874 39.22C424.287 40.42 425.201 41.02 426.614 41.02C427.414 41.02 428.047 40.82 428.514 40.42C428.981 40.0067 429.214 39.4533 429.214 38.76C429.214 38.0667 428.981 37.52 428.514 37.12C428.047 36.72 427.414 36.52 426.614 36.52H426.094L425.174 35.14L428.194 31.16H422.334V29H430.934V30.96ZM446.395 34.42V33H448.555V43H446.395V41.56C445.582 42.6933 444.415 43.26 442.895 43.26C441.522 43.26 440.348 42.7533 439.375 41.74C438.402 40.7267 437.915 39.48 437.915 38C437.915 36.52 438.402 35.2733 439.375 34.26C440.348 33.2467 441.522 32.74 442.895 32.74C444.415 32.74 445.582 33.3 446.395 34.42ZM440.975 40.3C441.575 40.9 442.328 41.2 443.235 41.2C444.142 41.2 444.895 40.9 445.495 40.3C446.095 39.6867 446.395 38.92 446.395 38C446.395 37.08 446.095 36.32 445.495 35.72C444.895 35.1067 444.142 34.8 443.235 34.8C442.328 34.8 441.575 35.1067 440.975 35.72C440.375 36.32 440.075 37.08 440.075 38C440.075 38.9067 440.375 39.6733 440.975 40.3Z" fill="#1A6958"/>
<g filter="url(#filter0_i_389_9832)">
<rect x="470.5" y="154" width="8" height="8" rx="4" fill="white" fill-opacity="0.3"/>
</g>
<g filter="url(#filter1_i_389_9832)">
<path d="M508 109.5C508 133.932 488.096 139.02 477.92 145.43C476.874 146.088 475.918 148.196 475.482 149.352V149.352C474.933 150.805 474.067 150.805 473.518 149.352V149.352C473.082 148.196 472.125 146.09 471.084 145.425C460.909 138.923 441 132.987 441 109.5C441 90.9985 455.998 76 474.5 76C493.002 76 508 90.9985 508 109.5Z" fill="#C4C4C4"/>
<path d="M508 109.5C508 133.932 488.096 139.02 477.92 145.43C476.874 146.088 475.918 148.196 475.482 149.352V149.352C474.933 150.805 474.067 150.805 473.518 149.352V149.352C473.082 148.196 472.125 146.09 471.084 145.425C460.909 138.923 441 132.987 441 109.5C441 90.9985 455.998 76 474.5 76C493.002 76 508 90.9985 508 109.5Z" fill="url(#paint1_linear_389_9832)"/>
</g>
<g filter="url(#filter2_i_389_9832)">
<circle cx="474.5" cy="158" r="3" fill="#C4C4C4"/>
<circle cx="474.5" cy="158" r="3" fill="url(#paint2_linear_389_9832)"/>
</g>
<g filter="url(#filter3_di_389_9832)">
<path d="M473.099 115.091C473.046 114.505 473.507 114 474.095 114H475.905C476.493 114 476.954 114.505 476.901 115.091L476.083 124.091C476.036 124.606 475.604 125 475.087 125H474.913C474.396 125 473.964 124.606 473.917 124.091L473.099 115.091Z" fill="url(#paint3_linear_389_9832)"/>
</g>
<g filter="url(#filter4_di_389_9832)">
<circle cx="475" cy="104" r="8" fill="#B35A5A"/>
<circle cx="475" cy="104" r="8" fill="url(#paint4_linear_389_9832)"/>
</g>
<circle cx="472" cy="101" r="2" fill="white"/>
<g filter="url(#filter5_i_389_9832)">
<line x1="474.5" y1="76" x2="474.5" y2="8" stroke="#FB5F34"/>
</g>
<g filter="url(#filter6_i_389_9832)">
<circle cx="474.5" cy="4" r="3.5" stroke="#FB5F34"/>
</g>
<defs>
<filter id="filter0_i_389_9832" x="468.744" y="152.244" width="9.75635" height="9.75635" filterUnits="userSpaceOnUse" color-interpolation-filters="sRGB">
<feFlood flood-opacity="0" result="BackgroundImageFix"/>
<feBlend mode="normal" in="SourceGraphic" in2="BackgroundImageFix" result="shape"/>
<feColorMatrix in="SourceAlpha" type="matrix" values="0 0 0 0 0 0 0 0 0 0 0 0 0 0 0 0 0 0 127 0" result="hardAlpha"/>
<feOffset dx="-1.75635" dy="-1.75635"/>
<feGaussianBlur stdDeviation="6.58629"/>
<feComposite in2="hardAlpha" operator="arithmetic" k2="-1" k3="1"/>
<feColorMatrix type="matrix" values="0 0 0 0 0.0875 0 0 0 0 0.0871354 0 0 0 0 0.0871354 0 0 0 0.1 0"/>
<feBlend mode="normal" in2="shape" result="effect1_innerShadow_389_9832"/>
</filter>
<filter id="filter1_i_389_9832" x="441" y="76" width="67.8782" height="75.3196" filterUnits="userSpaceOnUse" color-interpolation-filters="sRGB">
<feFlood flood-opacity="0" result="BackgroundImageFix"/>
<feBlend mode="normal" in="SourceGraphic" in2="BackgroundImageFix" result="shape"/>
<feColorMatrix in="SourceAlpha" type="matrix" values="0 0 0 0 0 0 0 0 0 0 0 0 0 0 0 0 0 0 127 0" result="hardAlpha"/>
<feOffset dx="0.878173" dy="0.878173"/>
<feGaussianBlur stdDeviation="2.63452"/>
<feComposite in2="hardAlpha" operator="arithmetic" k2="-1" k3="1"/>
<feColorMatrix type="matrix" values="0 0 0 0 1 0 0 0 0 1 0 0 0 0 1 0 0 0 0.6 0"/>
<feBlend mode="normal" in2="shape" result="effect1_innerShadow_389_9832"/>
</filter>
<filter id="filter2_i_389_9832" x="471.5" y="155" width="6.87817" height="6.87817" filterUnits="userSpaceOnUse" color-interpolation-filters="sRGB">
<feFlood flood-opacity="0" result="BackgroundImageFix"/>
<feBlend mode="normal" in="SourceGraphic" in2="BackgroundImageFix" result="shape"/>
<feColorMatrix in="SourceAlpha" type="matrix" values="0 0 0 0 0 0 0 0 0 0 0 0 0 0 0 0 0 0 127 0" result="hardAlpha"/>
<feOffset dx="0.878173" dy="0.878173"/>
<feGaussianBlur stdDeviation="2.63452"/>
<feComposite in2="hardAlpha" operator="arithmetic" k2="-1" k3="1"/>
<feColorMatrix type="matrix" values="0 0 0 0 1 0 0 0 0 1 0 0 0 0 1 0 0 0 0.6 0"/>
<feBlend mode="normal" in2="shape" result="effect1_innerShadow_389_9832"/>
</filter>
<filter id="filter3_di_389_9832" x="446.751" y="96.4365" width="56.4989" height="63.6904" filterUnits="userSpaceOnUse" color-interpolation-filters="sRGB">
<feFlood flood-opacity="0" result="BackgroundImageFix"/>
<feColorMatrix in="SourceAlpha" type="matrix" values="0 0 0 0 0 0 0 0 0 0 0 0 0 0 0 0 0 0 127 0" result="hardAlpha"/>
<feOffset dy="8.78173"/>
<feGaussianBlur stdDeviation="13.1726"/>
<feComposite in2="hardAlpha" operator="out"/>
<feColorMatrix type="matrix" values="0 0 0 0 1 0 0 0 0 0.517647 0 0 0 0 0.294118 0 0 0 0.3 0"/>
<feBlend mode="normal" in2="BackgroundImageFix" result="effect1_dropShadow_389_9832"/>
<feBlend mode="normal" in="SourceGraphic" in2="effect1_dropShadow_389_9832" result="shape"/>
<feColorMatrix in="SourceAlpha" type="matrix" values="0 0 0 0 0 0 0 0 0 0 0 0 0 0 0 0 0 0 127 0" result="hardAlpha"/>
<feOffset dx="0.878173" dy="0.878173"/>
<feGaussianBlur stdDeviation="2.63452"/>
<feComposite in2="hardAlpha" operator="arithmetic" k2="-1" k3="1"/>
<feColorMatrix type="matrix" values="0 0 0 0 1 0 0 0 0 1 0 0 0 0 1 0 0 0 0.6 0"/>
<feBlend mode="normal" in2="shape" result="effect2_innerShadow_389_9832"/>
</filter>
<filter id="filter4_di_389_9832" x="440.655" y="78.4365" width="68.6904" height="68.6904" filterUnits="userSpaceOnUse" color-interpolation-filters="sRGB">
<feFlood flood-opacity="0" result="BackgroundImageFix"/>
<feColorMatrix in="SourceAlpha" type="matrix" values="0 0 0 0 0 0 0 0 0 0 0 0 0 0 0 0 0 0 127 0" result="hardAlpha"/>
<feOffset dy="8.78173"/>
<feGaussianBlur stdDeviation="13.1726"/>
<feComposite in2="hardAlpha" operator="out"/>
<feColorMatrix type="matrix" values="0 0 0 0 1 0 0 0 0 0.517647 0 0 0 0 0.294118 0 0 0 0.3 0"/>
<feBlend mode="normal" in2="BackgroundImageFix" result="effect1_dropShadow_389_9832"/>
<feBlend mode="normal" in="SourceGraphic" in2="effect1_dropShadow_389_9832" result="shape"/>
<feColorMatrix in="SourceAlpha" type="matrix" values="0 0 0 0 0 0 0 0 0 0 0 0 0 0 0 0 0 0 127 0" result="hardAlpha"/>
<feOffset dx="0.878173" dy="0.878173"/>
<feGaussianBlur stdDeviation="2.63452"/>
<feComposite in2="hardAlpha" operator="arithmetic" k2="-1" k3="1"/>
<feColorMatrix type="matrix" values="0 0 0 0 1 0 0 0 0 1 0 0 0 0 1 0 0 0 0.6 0"/>
<feBlend mode="normal" in2="shape" result="effect2_innerShadow_389_9832"/>
</filter>
<filter id="filter5_i_389_9832" x="474" y="8" width="1.87817" height="68.8782" filterUnits="userSpaceOnUse" color-interpolation-filters="sRGB">
<feFlood flood-opacity="0" result="BackgroundImageFix"/>
<feBlend mode="normal" in="SourceGraphic" in2="BackgroundImageFix" result="shape"/>
<feColorMatrix in="SourceAlpha" type="matrix" values="0 0 0 0 0 0 0 0 0 0 0 0 0 0 0 0 0 0 127 0" result="hardAlpha"/>
<feOffset dx="0.878173" dy="0.878173"/>
<feGaussianBlur stdDeviation="2.63452"/>
<feComposite in2="hardAlpha" operator="arithmetic" k2="-1" k3="1"/>
<feColorMatrix type="matrix" values="0 0 0 0 1 0 0 0 0 1 0 0 0 0 1 0 0 0 0.6 0"/>
<feBlend mode="normal" in2="shape" result="effect1_innerShadow_389_9832"/>
</filter>
<filter id="filter6_i_389_9832" x="470.5" y="0" width="8.87817" height="8.87817" filterUnits="userSpaceOnUse" color-interpolation-filters="sRGB">
<feFlood flood-opacity="0" result="BackgroundImageFix"/>
<feBlend mode="normal" in="SourceGraphic" in2="BackgroundImageFix" result="shape"/>
<feColorMatrix in="SourceAlpha" type="matrix" values="0 0 0 0 0 0 0 0 0 0 0 0 0 0 0 0 0 0 127 0" result="hardAlpha"/>
<feOffset dx="0.878173" dy="0.878173"/>
<feGaussianBlur stdDeviation="2.63452"/>
<feComposite in2="hardAlpha" operator="arithmetic" k2="-1" k3="1"/>
<feColorMatrix type="matrix" values="0 0 0 0 1 0 0 0 0 1 0 0 0 0 1 0 0 0 0.6 0"/>
<feBlend mode="normal" in2="shape" result="effect1_innerShadow_389_9832"/>
</filter>
<linearGradient id="paint0_linear_389_9832" x1="463.618" y1="71" x2="7.38524" y2="85.0934" gradientUnits="userSpaceOnUse">
<stop stop-color="#7CCEBB"/>
<stop offset="1" stop-color="#55B39A"/>
</linearGradient>
<linearGradient id="paint1_linear_389_9832" x1="491.691" y1="49.6743" x2="459.991" y2="154.304" gradientUnits="userSpaceOnUse">
<stop stop-color="#318E88"/>
<stop offset="1" stop-color="#73C1A8"/>
</linearGradient>
<linearGradient id="paint2_linear_389_9832" x1="471.701" y1="159.721" x2="476.344" y2="159.554" gradientUnits="userSpaceOnUse">
<stop stop-color="#F76B2A"/>
<stop offset="1" stop-color="#FC5A37"/>
</linearGradient>
<linearGradient id="paint3_linear_389_9832" x1="473.134" y1="122.654" x2="476.233" y2="122.614" gradientUnits="userSpaceOnUse">
<stop stop-color="#F76B2A"/>
<stop offset="1" stop-color="#FC5A37"/>
</linearGradient>
<linearGradient id="paint4_linear_389_9832" x1="467.537" y1="108.588" x2="479.917" y2="108.144" gradientUnits="userSpaceOnUse">
<stop stop-color="#F76B2A"/>
<stop offset="1" stop-color="#FC5A37"/>
</linearGradient>
</defs>
</svg>
