<svg width="15" height="24" viewBox="0 0 15 24" fill="none" xmlns="http://www.w3.org/2000/svg">
<path d="M0.782783 6.15772C0.779203 6.24217 0.792936 6.32646 0.823137 6.40541C0.853338 6.48436 0.899368 6.55629 0.958398 6.61679C1.01743 6.67729 1.08821 6.72508 1.16639 6.75721C1.24457 6.78934 1.3285 6.80514 1.41301 6.80364H3.57044C3.93132 6.80364 4.21897 6.50814 4.26605 6.14988C4.5014 4.43439 5.67818 3.1844 7.77546 3.1844C9.56939 3.1844 11.2117 4.08136 11.2117 6.23879C11.2117 7.89935 10.2336 8.66295 8.68812 9.82404C6.92818 11.1028 5.53435 12.596 5.63372 15.0202L5.64157 15.5876C5.64431 15.7592 5.7144 15.9228 5.83671 16.0432C5.95902 16.1635 6.12374 16.231 6.29533 16.2309H8.41615C8.58954 16.2309 8.75583 16.1621 8.87843 16.0395C9.00104 15.9169 9.06992 15.7506 9.06992 15.5772V15.3026C9.06992 13.425 9.78383 12.8784 11.7111 11.4166C13.3037 10.2058 14.9643 8.8617 14.9643 6.04004C14.9643 2.08868 11.6274 0.179688 7.97421 0.179688C4.66092 0.179688 1.03121 1.72257 0.782783 6.15772ZM4.85443 21.2283C4.85443 22.6222 5.96584 23.6525 7.49565 23.6525C9.08822 23.6525 10.1839 22.6222 10.1839 21.2283C10.1839 19.7848 9.08561 18.7702 7.49303 18.7702C5.96584 18.7702 4.85443 19.7848 4.85443 21.2283Z" fill="url(#paint0_linear_62_7859)"/>
<defs>
<linearGradient id="paint0_linear_62_7859" x1="7.87322" y1="8.19024" x2="7.87323" y2="50.2922" gradientUnits="userSpaceOnUse">
<stop stop-color="white"/>
<stop offset="1" stop-color="white" stop-opacity="0"/>
</linearGradient>
</defs>
</svg>
