<svg width="24" height="22" viewBox="0 0 24 22" fill="none" xmlns="http://www.w3.org/2000/svg">
<path d="M11.2816 0.466704C11.5742 -0.130742 12.4258 -0.130743 12.7184 0.466703L15.5228 6.19175C15.6387 6.42847 15.8638 6.59288 16.1246 6.63129L22.4072 7.55666C23.0612 7.65299 23.3228 8.45599 22.851 8.91906L18.2984 13.3874C18.1115 13.5709 18.0262 13.8343 18.0702 14.0926L19.1433 20.3979C19.2547 21.0523 18.5666 21.5499 17.9801 21.239L12.3746 18.2684C12.1403 18.1443 11.8597 18.1443 11.6254 18.2684L6.01994 21.239C5.43339 21.5499 4.74529 21.0523 4.85667 20.3979L5.92984 14.0926C5.97379 13.8343 5.88852 13.5709 5.70156 13.3874L1.14903 8.91906C0.67724 8.45599 0.938819 7.65299 1.59284 7.55666L7.87538 6.63129C8.13617 6.59288 8.36129 6.42847 8.47725 6.19175L11.2816 0.466704Z" fill="#E2ECF2"/>
</svg>
