<svg width="181" height="234" viewBox="0 0 181 234" fill="none" xmlns="http://www.w3.org/2000/svg">
<mask id="path-1-inside-1_149_3197" fill="white">
<path fill-rule="evenodd" clip-rule="evenodd" d="M21.7356 116.828C15.9855 106.217 19.9372 92.9159 30.5481 87.1657C41.1591 81.4156 54.4603 85.3673 60.2104 95.9783C65.8103 106.409 62.2349 119.244 52.0644 125.227L51.9834 125.271L51.7809 125.381C51.516 125.472 51.192 125.647 50.8899 125.863C40.0815 131.249 27.376 127.236 21.7356 116.828ZM27.1571 143.279C17.2545 148.645 13.5769 161.023 18.943 170.925L33.0412 196.942C45.6714 220.25 74.8046 228.905 98.1122 216.275L102.062 214.135C125.369 201.505 134.025 172.372 121.395 149.064L107.028 122.552C101.81 112.923 89.7743 109.347 80.145 114.565C77.0963 116.217 74.5341 118.64 72.714 121.591L70.8123 124.675C64.9833 134.126 54.8385 140.064 43.7431 140.517L36.0405 140.832C32.9315 140.959 29.8928 141.796 27.1571 143.279Z"/>
</mask>
<path fill-rule="evenodd" clip-rule="evenodd" d="M21.7356 116.828C15.9855 106.217 19.9372 92.9159 30.5481 87.1657C41.1591 81.4156 54.4603 85.3673 60.2104 95.9783C65.8103 106.409 62.2349 119.244 52.0644 125.227L51.9834 125.271L51.7809 125.381C51.516 125.472 51.192 125.647 50.8899 125.863C40.0815 131.249 27.376 127.236 21.7356 116.828ZM27.1571 143.279C17.2545 148.645 13.5769 161.023 18.943 170.925L33.0412 196.942C45.6714 220.25 74.8046 228.905 98.1122 216.275L102.062 214.135C125.369 201.505 134.025 172.372 121.395 149.064L107.028 122.552C101.81 112.923 89.7743 109.347 80.145 114.565C77.0963 116.217 74.5341 118.64 72.714 121.591L70.8123 124.675C64.9833 134.126 54.8385 140.064 43.7431 140.517L36.0405 140.832C32.9315 140.959 29.8928 141.796 27.1571 143.279Z" fill="url(#paint0_linear_149_3197)" fill-opacity="0.5"/>
<path d="M30.5481 87.1657L30.0717 86.2865L30.5481 87.1657ZM21.7356 116.828L20.8564 117.304L21.7356 116.828ZM60.2104 95.9783L61.0915 95.5052L61.0896 95.5018L60.2104 95.9783ZM52.0644 125.227L52.5409 126.106L52.5563 126.098L52.5715 126.089L52.0644 125.227ZM51.9834 125.271L52.4599 126.15L52.4599 126.15L51.9834 125.271ZM51.7809 125.381L52.1064 126.326L52.1846 126.299L52.2574 126.26L51.7809 125.381ZM50.8899 125.863L51.3359 126.758L51.4071 126.723L51.4718 126.677L50.8899 125.863ZM18.943 170.925L18.0638 171.402L18.943 170.925ZM27.1571 143.279L26.6807 142.399L26.6807 142.399L27.1571 143.279ZM33.0412 196.942L32.162 197.418L33.0412 196.942ZM98.1122 216.275L97.6358 215.396L98.1122 216.275ZM102.062 214.135L102.538 215.014L102.062 214.135ZM121.395 149.064L122.274 148.588L121.395 149.064ZM107.028 122.552L107.908 122.076L107.028 122.552ZM80.145 114.565L79.6685 113.686L80.145 114.565ZM72.714 121.591L71.8628 121.066L72.714 121.591ZM70.8123 124.675L71.6635 125.2L70.8123 124.675ZM43.7431 140.517L43.7839 141.517L43.7431 140.517ZM36.0405 140.832L36.0813 141.831L36.0405 140.832ZM30.0717 86.2865C18.9752 92.2998 14.8431 106.208 20.8564 117.304L22.6148 116.352C17.1278 106.226 20.8992 93.532 31.0246 88.0449L30.0717 86.2865ZM61.0896 95.5018C55.0763 84.4053 41.1682 80.2733 30.0717 86.2865L31.0246 88.0449C41.1499 82.5579 53.8442 86.3293 59.3312 96.4547L61.0896 95.5018ZM52.5715 126.089C63.2073 119.832 66.9441 106.406 61.0914 95.5052L59.3293 96.4513C64.6765 106.411 61.2624 118.656 51.5574 124.365L52.5715 126.089ZM52.4599 126.15L52.5409 126.106L51.588 124.348L51.507 124.392L52.4599 126.15ZM52.2574 126.26L52.4599 126.15L51.507 124.392L51.3045 124.501L52.2574 126.26ZM51.4718 126.677C51.7191 126.5 51.957 126.378 52.1064 126.326L51.4555 124.435C51.075 124.566 50.6649 124.795 50.3081 125.05L51.4718 126.677ZM20.8564 117.304C26.7569 128.193 40.0514 132.381 51.3359 126.758L50.444 124.968C40.1115 130.117 27.9951 126.28 22.6148 116.352L20.8564 117.304ZM19.8222 170.449C14.7192 161.032 18.2165 149.261 27.6336 144.158L26.6807 142.399C16.2924 148.029 12.4345 161.013 18.0638 171.402L19.8222 170.449ZM33.9204 196.466L19.8222 170.449L18.0638 171.402L32.162 197.418L33.9204 196.466ZM97.6358 215.396C74.8138 227.763 46.2874 219.288 33.9204 196.466L32.162 197.418C45.0553 221.212 74.7955 230.048 98.5886 217.154L97.6358 215.396ZM101.585 213.256L97.6358 215.396L98.5886 217.154L102.538 215.014L101.585 213.256ZM120.516 149.541C132.883 172.363 124.407 200.889 101.585 213.256L102.538 215.014C126.331 202.121 135.167 172.381 122.274 148.588L120.516 149.541ZM106.149 123.029L120.516 149.541L122.274 148.588L107.908 122.076L106.149 123.029ZM80.6214 115.444C89.7651 110.489 101.194 113.885 106.149 123.029L107.908 122.076C102.426 111.961 89.7834 108.205 79.6685 113.686L80.6214 115.444ZM73.5651 122.116C75.2935 119.313 77.7265 117.013 80.6214 115.444L79.6685 113.686C76.4661 115.421 73.7747 117.966 71.8628 121.066L73.5651 122.116ZM71.6635 125.2L73.5651 122.116L71.8628 121.066L69.9611 124.15L71.6635 125.2ZM43.7839 141.517C55.2115 141.049 65.66 134.934 71.6635 125.2L69.9611 124.15C64.3066 133.319 54.4655 139.078 43.7023 139.518L43.7839 141.517ZM36.0813 141.831L43.7839 141.517L43.7023 139.518L35.9996 139.833L36.0813 141.831ZM27.6336 144.158C30.2351 142.748 33.1248 141.952 36.0813 141.831L35.9996 139.833C32.7382 139.966 29.5505 140.844 26.6807 142.399L27.6336 144.158Z" fill="url(#paint1_linear_149_3197)" fill-opacity="0.6" mask="url(#path-1-inside-1_149_3197)"/>
<g filter="url(#filter0_b_149_3197)">
<mask id="path-3-inside-2_149_3197" fill="white">
<path fill-rule="evenodd" clip-rule="evenodd" d="M104.249 1.32235L82.9094 7.15248C82.0425 7.38933 81.2176 7.64863 80.4432 7.96197C71.6723 11.1385 68.5424 17.3878 71.0695 26.6377L74.5195 39.2654C77.9695 51.8931 83.9858 52.9295 94.6222 50.0236L95.9559 49.6592C96.6894 49.4588 97.7858 49.6681 98.3658 50.0864L103.747 54.0443C106.127 55.803 108.994 55.0195 110.149 52.2953L112.77 46.1511C113.098 45.383 113.794 44.7856 114.628 44.5578L115.962 44.1935C125.731 41.5244 129.877 35.8456 128.315 27.1124C128.208 26.3274 128.026 25.5291 127.802 24.7083L124.352 12.0806C121.6 2.00996 114.885 -1.5836 104.249 1.32235ZM88.8425 32.6721C86.9753 33.1822 85.1201 32.1624 84.6457 30.4261C84.1713 28.6898 85.2836 26.8593 87.1175 26.3582C88.9513 25.8572 90.8399 26.8679 91.3143 28.6042C91.7886 30.3405 90.6763 32.1711 88.8425 32.6721ZM100.479 29.4929C98.612 30.003 96.7567 28.9832 96.2824 27.2469C95.808 25.5106 96.9203 23.68 98.7542 23.179C100.588 22.678 102.477 23.6887 102.951 25.425C103.425 27.1613 102.346 28.9827 100.479 29.4929ZM112.149 26.3045C110.282 26.8146 108.427 25.7948 107.952 24.0585C107.478 22.3222 108.59 20.4917 110.424 19.9906C112.258 19.4896 114.147 20.5003 114.621 22.2366C115.095 23.9729 113.983 25.8035 112.149 26.3045ZM113.723 64.5368C101.443 67.8919 94.1872 80.603 97.5423 92.8833C100.833 104.929 112.918 112.104 125.313 109.171C125.676 109.022 126.051 108.919 126.345 108.889L126.579 108.825L126.673 108.8C138.556 105.1 145.314 92.7766 142.07 80.718C138.715 68.4377 126.004 61.1818 113.723 64.5368ZM96.7517 121.354C85.2912 124.485 78.5388 136.313 81.6697 147.774L90.5888 180.421C97.5751 205.994 123.969 221.061 149.542 214.075L159.188 211.439C184.761 204.453 199.828 178.059 192.842 152.486L183.766 119.266C180.722 108.122 169.219 101.556 158.075 104.601C154.547 105.564 151.333 107.437 148.754 110.03L146.06 112.74C137.801 121.047 125.955 124.706 114.45 122.505L106.463 120.977C103.24 120.36 99.9178 120.489 96.7517 121.354Z"/>
</mask>
<path fill-rule="evenodd" clip-rule="evenodd" d="M104.249 1.32235L82.9094 7.15248C82.0425 7.38933 81.2176 7.64863 80.4432 7.96197C71.6723 11.1385 68.5424 17.3878 71.0695 26.6377L74.5195 39.2654C77.9695 51.8931 83.9858 52.9295 94.6222 50.0236L95.9559 49.6592C96.6894 49.4588 97.7858 49.6681 98.3658 50.0864L103.747 54.0443C106.127 55.803 108.994 55.0195 110.149 52.2953L112.77 46.1511C113.098 45.383 113.794 44.7856 114.628 44.5578L115.962 44.1935C125.731 41.5244 129.877 35.8456 128.315 27.1124C128.208 26.3274 128.026 25.5291 127.802 24.7083L124.352 12.0806C121.6 2.00996 114.885 -1.5836 104.249 1.32235ZM88.8425 32.6721C86.9753 33.1822 85.1201 32.1624 84.6457 30.4261C84.1713 28.6898 85.2836 26.8593 87.1175 26.3582C88.9513 25.8572 90.8399 26.8679 91.3143 28.6042C91.7886 30.3405 90.6763 32.1711 88.8425 32.6721ZM100.479 29.4929C98.612 30.003 96.7567 28.9832 96.2824 27.2469C95.808 25.5106 96.9203 23.68 98.7542 23.179C100.588 22.678 102.477 23.6887 102.951 25.425C103.425 27.1613 102.346 28.9827 100.479 29.4929ZM112.149 26.3045C110.282 26.8146 108.427 25.7948 107.952 24.0585C107.478 22.3222 108.59 20.4917 110.424 19.9906C112.258 19.4896 114.147 20.5003 114.621 22.2366C115.095 23.9729 113.983 25.8035 112.149 26.3045ZM113.723 64.5368C101.443 67.8919 94.1872 80.603 97.5423 92.8833C100.833 104.929 112.918 112.104 125.313 109.171C125.676 109.022 126.051 108.919 126.345 108.889L126.579 108.825L126.673 108.8C138.556 105.1 145.314 92.7766 142.07 80.718C138.715 68.4377 126.004 61.1818 113.723 64.5368ZM96.7517 121.354C85.2912 124.485 78.5388 136.313 81.6697 147.774L90.5888 180.421C97.5751 205.994 123.969 221.061 149.542 214.075L159.188 211.439C184.761 204.453 199.828 178.059 192.842 152.486L183.766 119.266C180.722 108.122 169.219 101.556 158.075 104.601C154.547 105.564 151.333 107.437 148.754 110.03L146.06 112.74C137.801 121.047 125.955 124.706 114.45 122.505L106.463 120.977C103.24 120.36 99.9178 120.489 96.7517 121.354Z" fill="url(#paint2_linear_149_3197)" fill-opacity="0.62"/>
<path d="M82.9094 7.15248L82.6459 6.18783H82.6459L82.9094 7.15248ZM104.249 1.32235L104.512 2.287V2.287L104.249 1.32235ZM80.4432 7.96197L80.7837 8.90221L80.8011 8.8959L80.8183 8.88896L80.4432 7.96197ZM71.0695 26.6377L72.0342 26.3741L71.0695 26.6377ZM74.5195 39.2654L73.5549 39.5289L74.5195 39.2654ZM94.6222 50.0236L94.3586 49.0589H94.3586L94.6222 50.0236ZM95.9559 49.6592L96.2194 50.6238L96.2194 50.6238L95.9559 49.6592ZM98.3658 50.0864L98.9584 49.2808L98.9507 49.2753L98.3658 50.0864ZM103.747 54.0443L104.341 53.2401L104.339 53.2388L103.747 54.0443ZM110.149 52.2953L109.229 51.9029L109.228 51.905L110.149 52.2953ZM112.77 46.1511L113.69 46.5435L112.77 46.1511ZM114.628 44.5578L114.891 45.5225L114.891 45.5225L114.628 44.5578ZM115.962 44.1935L115.698 43.2288H115.698L115.962 44.1935ZM128.315 27.1124L127.324 27.2474L127.327 27.268L127.331 27.2885L128.315 27.1124ZM127.802 24.7083L126.837 24.9718V24.9718L127.802 24.7083ZM124.352 12.0806L123.387 12.3441L124.352 12.0806ZM84.6457 30.4261L83.681 30.6897L84.6457 30.4261ZM88.8425 32.6721L89.106 33.6367H89.106L88.8425 32.6721ZM87.1175 26.3582L87.381 27.3229L87.1175 26.3582ZM91.3143 28.6042L90.3496 28.8678L91.3143 28.6042ZM96.2824 27.2469L95.3177 27.5104L96.2824 27.2469ZM100.479 29.4929L100.743 30.4575H100.743L100.479 29.4929ZM98.7542 23.179L99.0177 24.1436H99.0177L98.7542 23.179ZM102.951 25.425L101.986 25.6885V25.6885L102.951 25.425ZM107.952 24.0585L106.988 24.3221V24.3221L107.952 24.0585ZM112.149 26.3045L112.413 27.2691L112.149 26.3045ZM114.621 22.2366L115.586 21.9731V21.9731L114.621 22.2366ZM97.5423 92.8833L96.5776 93.1468L97.5423 92.8833ZM113.723 64.5368L113.46 63.5722L113.723 64.5368ZM125.313 109.171L125.544 110.144L125.621 110.126L125.695 110.096L125.313 109.171ZM126.345 108.889L126.446 109.884L126.528 109.876L126.608 109.854L126.345 108.889ZM126.579 108.825L126.843 109.79H126.843L126.579 108.825ZM126.673 108.8L126.936 109.764L126.953 109.76L126.97 109.755L126.673 108.8ZM142.07 80.718L143.036 80.4582L143.035 80.4544L142.07 80.718ZM81.6697 147.774L80.7051 148.037L81.6697 147.774ZM96.7517 121.354L96.4882 120.389L96.7517 121.354ZM90.5888 180.421L91.5534 180.158L90.5888 180.421ZM149.542 214.075L149.278 213.11H149.278L149.542 214.075ZM159.188 211.439L159.452 212.404L159.188 211.439ZM192.842 152.486L191.877 152.75L192.842 152.486ZM183.766 119.266L182.801 119.53L183.766 119.266ZM158.075 104.601L158.339 105.565L158.075 104.601ZM148.754 110.03L148.045 109.325L148.754 110.03ZM146.06 112.74L146.769 113.445L146.06 112.74ZM114.45 122.505L114.262 123.487H114.262L114.45 122.505ZM106.463 120.977L106.651 119.994L106.463 120.977ZM83.173 8.11712L104.512 2.287L103.985 0.357708L82.6459 6.18783L83.173 8.11712ZM80.8183 8.88896C81.5433 8.59559 82.3275 8.3481 83.173 8.11712L82.6459 6.18783C81.7575 6.43055 80.8918 6.70168 80.0681 7.03499L80.8183 8.88896ZM72.0342 26.3741C70.8111 21.8975 70.9967 18.295 72.4135 15.4707C73.8275 12.6519 76.5562 10.4333 80.7837 8.90221L80.1027 7.02174C75.5593 8.66722 72.3376 11.1616 70.6258 14.574C68.9167 17.981 68.8008 22.128 70.1049 26.9012L72.0342 26.3741ZM75.4842 39.0018L72.0342 26.3741L70.1049 26.9012L73.5549 39.5289L75.4842 39.0018ZM94.3586 49.0589C89.0505 50.5091 85.201 50.8739 82.2875 49.5582C79.4344 48.2698 77.1829 45.2196 75.4842 39.0018L73.5549 39.5289C75.3061 45.9388 77.7877 49.7207 81.4644 51.381C85.0806 53.014 89.5574 52.444 94.8857 50.9882L94.3586 49.0589ZM95.6923 48.6946L94.3586 49.0589L94.8857 50.9882L96.2194 50.6238L95.6923 48.6946ZM98.9507 49.2753C98.504 48.9532 97.9312 48.7539 97.397 48.6569C96.8612 48.5596 96.2449 48.5436 95.6923 48.6946L96.2194 50.6238C96.4005 50.5744 96.6991 50.5629 97.0398 50.6247C97.3821 50.6869 97.6476 50.8013 97.781 50.8975L98.9507 49.2753ZM104.339 53.2388L98.9583 49.2808L97.7733 50.892L103.154 54.8499L104.339 53.2388ZM109.228 51.905C108.756 53.0177 107.974 53.6593 107.144 53.8862C106.313 54.1132 105.313 53.9584 104.341 53.2401L103.153 54.8485C104.56 55.8889 106.184 56.2217 107.671 55.8155C109.157 55.4094 110.386 54.2971 111.07 52.6856L109.228 51.905ZM111.85 45.7587L109.229 51.9029L111.069 52.6877L113.69 46.5435L111.85 45.7587ZM114.364 43.5932C113.248 43.8982 112.302 44.6985 111.85 45.7587L113.69 46.5435C113.893 46.0676 114.341 45.673 114.891 45.5225L114.364 43.5932ZM115.698 43.2288L114.364 43.5932L114.891 45.5225L116.225 45.1581L115.698 43.2288ZM127.331 27.2885C128.077 31.4607 127.442 34.7687 125.578 37.3401C123.698 39.9339 120.458 41.9282 115.698 43.2288L116.225 45.1581C121.234 43.7896 124.953 41.61 127.197 38.5139C129.458 35.3953 130.115 31.4974 129.299 26.9364L127.331 27.2885ZM126.837 24.9718C127.055 25.7686 127.225 26.5212 127.324 27.2474L129.306 26.9774C129.191 26.1337 128.997 25.2895 128.766 24.4447L126.837 24.9718ZM123.387 12.3441L126.837 24.9718L128.766 24.4447L125.316 11.817L123.387 12.3441ZM104.512 2.287C109.694 0.871365 113.742 1.08844 116.785 2.71693C119.816 4.3388 122.056 7.47217 123.387 12.3441L125.316 11.817C123.896 6.61835 121.403 2.91964 117.729 0.953566C114.068 -1.00588 109.44 -1.13261 103.985 0.357708L104.512 2.287ZM83.681 30.6897C84.3127 33.0016 86.75 34.2804 89.106 33.6367L88.5789 31.7074C87.2006 32.084 85.9274 31.3232 85.6103 30.1626L83.681 30.6897ZM86.8539 25.3936C84.5377 26.0264 83.0477 28.3716 83.681 30.6897L85.6103 30.1626C85.2949 29.008 86.0296 27.6921 87.381 27.3229L86.8539 25.3936ZM92.2789 28.3407C91.6456 26.0226 89.1702 24.7608 86.8539 25.3936L87.381 27.3229C88.7325 26.9536 90.0342 27.7132 90.3496 28.8678L92.2789 28.3407ZM89.106 33.6367C91.4223 33.0039 92.9122 30.6587 92.2789 28.3407L90.3496 28.8678C90.6651 30.0223 89.9304 31.3382 88.5789 31.7074L89.106 33.6367ZM95.3177 27.5104C95.9494 29.8224 98.3867 31.1012 100.743 30.4575L100.216 28.5282C98.8373 28.9048 97.5641 28.144 97.247 26.9833L95.3177 27.5104ZM98.4906 22.2143C96.1744 22.8472 94.6844 25.1924 95.3177 27.5104L97.247 26.9833C96.9316 25.8288 97.6663 24.5129 99.0177 24.1436L98.4906 22.2143ZM103.916 25.1614C103.282 22.8433 100.807 21.5815 98.4906 22.2143L99.0177 24.1436C100.369 23.7744 101.671 24.534 101.986 25.6885L103.916 25.1614ZM100.743 30.4575C103.099 29.8138 104.547 27.4734 103.916 25.1614L101.986 25.6885C102.303 26.8492 101.594 28.1516 100.216 28.5282L100.743 30.4575ZM106.988 24.3221C107.619 26.634 110.057 27.9128 112.413 27.2691L111.886 25.3399C110.507 25.7164 109.234 24.9557 108.917 23.795L106.988 24.3221ZM110.161 19.026C107.844 19.6588 106.354 22.004 106.988 24.3221L108.917 23.795C108.602 22.6404 109.336 21.3245 110.688 20.9553L110.161 19.026ZM115.586 21.9731C114.952 19.655 112.477 18.3932 110.161 19.026L110.688 20.9553C112.039 20.5861 113.341 21.3456 113.656 22.5002L115.586 21.9731ZM112.413 27.2691C114.729 26.6363 116.219 24.2911 115.586 21.9731L113.656 22.5002C113.972 23.6547 113.237 24.9706 111.886 25.3399L112.413 27.2691ZM98.5069 92.6197C95.2974 80.8722 102.239 68.711 113.987 65.5015L113.46 63.5722C100.647 67.0728 93.077 80.3338 96.5776 93.1468L98.5069 92.6197ZM125.083 108.198C113.205 111.009 101.654 104.139 98.5069 92.6197L96.5776 93.1468C100.013 105.719 112.631 113.2 125.544 110.144L125.083 108.198ZM126.243 107.895C125.828 107.937 125.357 108.072 124.932 108.247L125.695 110.096C125.995 109.972 126.274 109.902 126.446 109.884L126.243 107.895ZM126.315 107.861L126.081 107.925L126.608 109.854L126.843 109.79L126.315 107.861ZM126.409 107.835L126.315 107.861L126.843 109.79L126.936 109.764L126.409 107.835ZM141.104 80.9778C144.21 92.5205 137.744 104.305 126.375 107.845L126.97 109.755C139.369 105.894 146.418 93.0328 143.036 80.4582L141.104 80.9778ZM113.987 65.5015C125.734 62.292 137.896 69.234 141.105 80.9815L143.035 80.4544C139.534 67.6414 126.273 60.0716 113.46 63.5722L113.987 65.5015ZM82.6344 147.51C79.649 136.583 86.0875 125.304 97.0153 122.318L96.4882 120.389C84.4949 123.666 77.4286 136.044 80.7051 148.037L82.6344 147.51ZM91.5534 180.158L82.6344 147.51L80.7051 148.037L89.6241 180.685L91.5534 180.158ZM149.278 213.11C124.238 219.951 98.3942 205.198 91.5534 180.158L89.6241 180.685C96.7559 206.79 123.7 222.171 149.805 215.039L149.278 213.11ZM158.925 210.475L149.278 213.11L149.805 215.039L159.452 212.404L158.925 210.475ZM191.877 152.75C198.718 177.79 183.964 203.634 158.925 210.475L159.452 212.404C185.557 205.272 200.938 178.328 193.806 152.223L191.877 152.75ZM182.801 119.53L191.877 152.75L193.806 152.223L184.731 119.003L182.801 119.53ZM158.339 105.565C168.95 102.666 179.902 108.918 182.801 119.53L184.731 119.003C181.541 107.326 169.489 100.446 157.812 103.636L158.339 105.565ZM149.463 110.735C151.919 108.266 154.979 106.483 158.339 105.565L157.812 103.636C154.115 104.646 150.747 106.608 148.045 109.325L149.463 110.735ZM146.769 113.445L149.463 110.735L148.045 109.325L145.351 112.035L146.769 113.445ZM114.262 123.487C126.093 125.751 138.276 121.987 146.769 113.445L145.351 112.035C137.327 120.106 125.816 123.661 114.638 121.523L114.262 123.487ZM106.276 121.959L114.262 123.487L114.638 121.523L106.651 119.994L106.276 121.959ZM97.0153 122.318C100.034 121.494 103.202 121.371 106.276 121.959L106.651 119.994C103.278 119.349 99.8015 119.484 96.4882 120.389L97.0153 122.318Z" fill="white" fill-opacity="0.5" mask="url(#path-3-inside-2_149_3197)"/>
</g>
<defs>
<filter id="filter0_b_149_3197" x="39.2227" y="-30.6523" width="186.328" height="277.436" filterUnits="userSpaceOnUse" color-interpolation-filters="sRGB">
<feFlood flood-opacity="0" result="BackgroundImageFix"/>
<feGaussianBlur in="BackgroundImage" stdDeviation="15.5"/>
<feComposite in2="SourceAlpha" operator="in" result="effect1_backgroundBlur_149_3197"/>
<feBlend mode="normal" in="SourceGraphic" in2="effect1_backgroundBlur_149_3197" result="shape"/>
</filter>
<linearGradient id="paint0_linear_149_3197" x1="-0.499093" y1="-24.9973" x2="53.0905" y2="172.944" gradientUnits="userSpaceOnUse">
<stop stop-color="#318E88"/>
<stop offset="0.677083" stop-color="#73C1A8"/>
<stop offset="1" stop-color="#73C1A8" stop-opacity="0"/>
</linearGradient>
<linearGradient id="paint1_linear_149_3197" x1="52.2526" y1="81.2882" x2="-30.9811" y2="203.278" gradientUnits="userSpaceOnUse">
<stop stop-color="white"/>
<stop offset="1" stop-color="white" stop-opacity="0"/>
</linearGradient>
<linearGradient id="paint2_linear_149_3197" x1="165.42" y1="-80.0111" x2="40.9811" y2="181.366" gradientUnits="userSpaceOnUse">
<stop stop-color="#318E88"/>
<stop offset="1" stop-color="#73C1A8"/>
</linearGradient>
</defs>
</svg>
