<svg width="124" height="153" viewBox="0 0 124 153" fill="none" xmlns="http://www.w3.org/2000/svg">
<path d="M142.585 6.15577C133.247 3.66168 124.22 3.46865 115.392 4.68746C87.3672 8.55427 61.3096 26.6504 33.2854 30.5195C26.2572 31.4898 19.11 31.5651 11.7731 30.2992C10.9489 30.1572 10.1407 30.1478 9.36717 30.2546C5.45148 30.7952 2.44914 34.3071 3.03165 38.5263L13.0266 110.92C13.4245 113.802 15.4466 116.307 18.2412 117.051C27.5798 119.547 36.6073 119.74 45.4352 118.522C73.4594 114.652 99.5193 96.556 127.543 92.6869C134.572 91.7166 141.719 91.6414 149.056 92.9073C149.88 93.0493 150.688 93.0586 151.462 92.9518C155.377 92.4112 158.38 88.8993 157.797 84.6802L147.803 12.2883C147.402 9.40432 145.38 6.90233 142.585 6.15577V6.15577ZM14.6273 41.9039C19.3639 42.422 24.2216 42.3396 29.179 41.9714C28.767 48.8625 23.5856 54.7285 16.5324 55.7023L14.6273 41.9039ZM23.6059 106.937L22.1007 96.0341C29.9207 94.9545 37.1072 100.304 38.5306 108.043C33.3474 108.338 28.414 107.973 23.6059 106.937V106.937ZM83.4378 83.5103C73.3835 84.8985 63.8815 76.2136 62.2115 64.1175C60.5412 52.0191 67.3371 41.0865 77.3891 39.6987C87.4411 38.3109 96.945 46.9931 98.6154 59.0915C100.286 71.1922 93.4876 82.1228 83.4378 83.5103ZM146.2 81.3051C142.075 80.8537 137.859 80.8638 133.575 81.0856C134.089 74.9501 138.386 69.7525 144.381 68.1342L146.2 81.3051ZM138.761 27.4282C131.61 27.5063 125.344 22.3744 124.124 15.1365C128.638 15.0179 132.987 15.3616 137.221 16.2722L138.761 27.4282Z" fill="url(#paint0_linear_374_9832)" fill-opacity="0.6"/>
<path d="M18.3704 116.568L18.3699 116.568C15.7898 115.881 13.8952 113.556 13.5219 110.852L3.52695 38.4579C2.98501 34.5325 5.77271 31.2556 9.43555 30.7499C10.1581 30.6502 10.9146 30.6586 11.6881 30.7919C19.0832 32.0678 26.2828 31.9911 33.3538 31.0148C47.4267 29.0719 60.9945 23.5616 74.4922 18.0798L74.5266 18.0659C88.0585 12.5702 101.52 7.10614 115.46 5.18277C124.233 3.97151 133.193 4.16464 142.456 6.63883C145.037 7.32821 146.932 9.65112 147.307 12.357L157.302 84.7485C157.844 88.6739 155.056 91.9508 151.393 92.4565C150.671 92.5563 149.914 92.5478 149.141 92.4145C141.746 91.1386 134.546 91.2154 127.475 92.1916C113.401 94.1347 99.8316 99.6458 86.3323 105.128L86.3012 105.141C72.7688 110.637 59.3062 116.102 45.3668 118.026C36.5936 119.238 27.6344 119.044 18.3704 116.568ZM14.6817 41.4069L14.0443 41.3372L14.132 41.9723L16.0371 55.7707L16.1054 56.266L16.6007 56.1976C23.8974 55.1902 29.2523 49.123 29.6781 42.0013L29.7122 41.4304L29.1419 41.4728C24.2017 41.8397 19.377 41.9204 14.6817 41.4069ZM22.0323 95.5388L21.537 95.6072L21.6054 96.1025L23.1106 107.005L23.6059 106.937L23.5006 107.426C28.355 108.472 33.3335 108.84 38.559 108.543L39.1248 108.51L39.0223 107.953C37.552 99.9573 30.1245 94.4216 22.0323 95.5388ZM146.145 81.8021L146.783 81.8719L146.695 81.2367L144.876 68.0658L144.799 67.5036L144.251 67.6515C138.052 69.325 133.608 74.6996 133.076 81.0438L133.029 81.6145L133.6 81.5849C137.87 81.3639 142.057 81.3547 146.145 81.8021ZM138.767 27.9282L139.334 27.922L139.256 27.3598L137.716 16.2038L137.668 15.857L137.326 15.7834C133.048 14.8633 128.659 14.5171 124.111 14.6367L123.535 14.6518L123.631 15.2196C124.892 22.7016 131.371 28.009 138.767 27.9282ZM61.7162 64.1859C63.4116 76.4657 73.0964 85.4428 83.5062 84.0056C93.9113 82.5691 100.807 71.3076 99.1107 59.0231C97.415 46.741 87.7282 37.7665 77.3207 39.2034C66.9132 40.6403 60.0205 51.9038 61.7162 64.1859Z" stroke="url(#paint1_linear_374_9832)" stroke-opacity="0.6"/>
<g filter="url(#filter0_b_374_9832)">
<path d="M177.595 42.684C167.943 39.0014 158.366 37.7994 148.846 38.1204C118.625 39.1371 88.9237 55.4989 58.7025 56.5181C51.1233 56.7737 43.5164 56.0645 35.8559 53.9086C34.9953 53.6666 34.1372 53.5674 33.3029 53.5956C29.0803 53.738 25.5006 57.1401 25.654 61.6901L28.2867 139.76C28.3916 142.868 30.2649 145.753 33.1538 146.853C42.8065 150.538 52.3828 151.74 61.9029 151.419C92.1241 150.4 121.828 134.038 152.049 133.019C159.628 132.764 167.235 133.473 174.896 135.629C175.756 135.871 176.614 135.97 177.449 135.942C181.671 135.799 185.251 132.397 185.098 127.847L182.465 49.7799C182.358 46.6696 180.484 43.7864 177.595 42.684V42.684ZM37.609 66.5614C42.5875 67.6351 47.7611 68.0839 53.0722 68.2398C51.8734 75.5206 45.7171 81.185 38.1108 81.4415L37.609 66.5614ZM39.9741 136.693L39.5776 124.935C48.0107 124.651 55.0605 131.131 55.7191 139.517C50.1761 139.258 44.9714 138.325 39.9741 136.693V136.693ZM106.171 118.393C95.3287 118.759 86.1856 108.476 85.7457 95.4319C85.3057 82.385 93.7379 71.5123 104.578 71.1467C115.418 70.7811 124.564 81.0611 125.004 94.108C125.444 107.157 117.009 118.028 106.171 118.393ZM173.14 122.978C168.805 122.043 164.322 121.588 159.742 121.351C160.966 114.885 166.109 109.834 172.661 108.775L173.14 122.978ZM171.181 64.8777C163.569 64.1711 157.474 58.0232 156.976 50.1935C161.789 50.5658 166.374 51.4114 170.775 52.8471L171.181 64.8777Z" fill="url(#paint2_linear_374_9832)" fill-opacity="0.5"/>
<path d="M33.3322 146.386L33.3317 146.386C30.6502 145.365 28.8852 142.671 28.7865 139.743L26.1537 61.6732C26.0103 57.4197 29.3522 54.2291 33.3198 54.0953C34.1026 54.0689 34.9094 54.1618 35.7204 54.3899C43.4378 56.5618 51.097 57.2749 58.7194 57.0178C73.8912 56.5062 88.9209 52.147 103.878 47.8089L103.914 47.7985C118.906 43.4502 133.826 39.126 148.863 38.6201C158.328 38.3009 167.837 39.496 177.417 43.1512C180.099 44.1745 181.864 46.8665 181.965 49.7971L184.598 127.864C184.741 132.118 181.399 135.308 177.432 135.442C176.649 135.468 175.842 135.375 175.031 135.147C167.314 132.975 159.655 132.262 152.032 132.519C136.859 133.031 121.828 137.391 106.869 141.73L106.837 141.739C91.8436 146.088 76.9233 150.413 61.886 150.92C52.4212 151.239 42.9128 150.044 33.3322 146.386ZM37.7144 66.0726L37.0877 65.9374L37.1093 66.5782L37.6111 81.4584L37.628 81.9581L38.1277 81.9412C45.9795 81.6764 52.3292 75.8299 53.5656 68.3211L53.6585 67.7568L53.0869 67.7401C47.793 67.5846 42.6524 67.1376 37.7144 66.0726ZM39.5607 124.436L39.061 124.452L39.0779 124.952L39.4744 136.71L39.9741 136.693L39.8188 137.168C44.8612 138.815 50.1104 139.756 55.6958 140.017L56.2619 140.043L56.2176 139.478C55.5386 130.833 48.2684 124.142 39.5607 124.436ZM173.035 123.467L173.662 123.602L173.64 122.962L173.161 108.758L173.142 108.191L172.581 108.281C165.82 109.374 160.514 114.586 159.251 121.258L159.144 121.821L159.716 121.85C164.281 122.087 168.735 122.54 173.035 123.467ZM171.135 65.3755L171.7 65.428L171.681 64.8608L171.275 52.8302L171.263 52.4803L170.93 52.3717C166.486 50.9221 161.861 50.07 157.015 49.695L156.441 49.6506L156.477 50.2252C156.991 58.3019 163.279 64.6464 171.135 65.3755ZM85.246 95.4487C85.6921 108.678 94.9869 119.271 106.188 118.893C117.384 118.515 125.95 107.326 125.503 94.0911C125.057 80.8588 115.76 70.2693 104.561 70.647C93.3624 71.0246 84.7997 82.2164 85.246 95.4487Z" stroke="white" stroke-opacity="0.5"/>
</g>
<defs>
<filter id="filter0_b_374_9832" x="-5.35156" y="7.07031" width="221.453" height="175.398" filterUnits="userSpaceOnUse" color-interpolation-filters="sRGB">
<feFlood flood-opacity="0" result="BackgroundImageFix"/>
<feGaussianBlur in="BackgroundImage" stdDeviation="15.5"/>
<feComposite in2="SourceAlpha" operator="in" result="effect1_backgroundBlur_374_9832"/>
<feBlend mode="normal" in="SourceGraphic" in2="effect1_backgroundBlur_374_9832" result="shape"/>
</filter>
<linearGradient id="paint0_linear_374_9832" x1="63.2893" y1="-84.4465" x2="99.4894" y2="111.074" gradientUnits="userSpaceOnUse">
<stop stop-color="#FC5A37"/>
<stop offset="0.405517" stop-color="#F76B2A"/>
<stop offset="1" stop-color="#FC5A37" stop-opacity="0"/>
</linearGradient>
<linearGradient id="paint1_linear_374_9832" x1="73.3577" y1="10.4908" x2="22.5429" y2="137.013" gradientUnits="userSpaceOnUse">
<stop stop-color="white"/>
<stop offset="1" stop-color="white" stop-opacity="0"/>
</linearGradient>
<linearGradient id="paint2_linear_374_9832" x1="32.8561" y1="146.204" x2="170.695" y2="66.0412" gradientUnits="userSpaceOnUse">
<stop stop-color="#F76B2A"/>
<stop offset="1" stop-color="#FC5A37"/>
</linearGradient>
</defs>
</svg>
