<svg width="202" height="202" viewBox="0 0 202 202" fill="none" xmlns="http://www.w3.org/2000/svg">
<path d="M188.471 108.978L179.397 114.628L179.717 110.859L187.995 105.595L180.221 104.934L180.499 101.663L197.09 103.074L196.812 106.345L189.488 105.722L196.328 112.033L196.008 115.802L188.471 108.978Z" fill="#318F89"/>
<path d="M190.477 118.962L188.151 128.09L176.626 125.154L177.384 122.181L186.051 124.389L186.861 121.208L183.012 120.227C179.462 119.323 178.269 117.292 179.433 114.136L182.222 114.847C181.912 115.422 181.9 115.918 182.187 116.335C182.473 116.752 183.055 117.071 183.93 117.295L190.477 118.962Z" fill="#318F89"/>
<path d="M179.367 132.365L183.294 140.204L182.373 142.294L171.49 137.498L172.698 134.755L178.88 137.479L174.953 129.64L175.873 127.55L186.757 132.346L185.548 135.089L179.367 132.365Z" fill="#318F89"/>
<path d="M172.298 150.177L176.055 152.646L174.37 155.21L164.43 148.679L166.115 146.115L169.892 148.596L172.492 144.64L168.715 142.159L170.4 139.594L180.339 146.125L178.654 148.69L174.897 146.221L172.298 150.177Z" fill="#318F89"/>
<path d="M164.758 156.238L165.931 164.928L164.382 166.606L155.642 158.539L157.675 156.336L162.639 160.918L161.467 152.229L163.016 150.551L171.755 158.618L169.722 160.82L164.758 156.238Z" fill="#318F89"/>
<path d="M152.474 169.74L155.719 173.845L153.312 175.748L145.936 166.418L148.343 164.515L150.689 167.482C151.208 166.707 151.86 166.01 152.643 165.39C153.788 164.486 154.927 164.06 156.061 164.114C157.195 164.167 158.185 164.729 159.031 165.799L161.672 169.138L159.264 171.042L156.845 167.982C156.107 167.049 155.16 167.039 154.003 167.954C153.319 168.495 152.809 169.09 152.474 169.74Z" fill="#318F89"/>
<path d="M136.62 177.219L144.44 172.829C143.365 171.724 142.025 171.621 140.421 172.521C139.398 173.096 138.817 173.876 138.68 174.862L135.824 174.829C136.017 172.775 137.109 171.189 139.1 170.071C140.815 169.109 142.482 168.855 144.101 169.31C145.721 169.765 146.973 170.781 147.858 172.357C148.727 173.906 148.945 175.493 148.511 177.118C148.092 178.736 147.073 179.999 145.455 180.907C143.92 181.768 142.374 181.945 140.816 181.438C139.23 180.946 138.003 179.925 137.134 178.376C136.971 178.086 136.8 177.7 136.62 177.219ZM145.646 174.88L140.357 177.849C140.889 178.441 141.491 178.785 142.163 178.881C142.821 178.984 143.469 178.858 144.105 178.501C144.824 178.097 145.314 177.577 145.574 176.939C145.843 176.316 145.866 175.63 145.646 174.88Z" fill="#318F89"/>
<path d="M127.283 175.411C128.965 174.794 130.58 174.844 132.126 175.561C133.657 176.283 134.729 177.477 135.34 179.145C135.952 180.812 135.907 182.417 135.205 183.958C134.488 185.504 133.289 186.586 131.606 187.203C130.52 187.601 129.434 187.704 128.35 187.51C127.265 187.317 126.331 186.865 125.548 186.156L127.494 183.795C127.887 184.175 128.363 184.414 128.923 184.513C129.468 184.617 130.023 184.566 130.589 184.358C131.452 184.042 132.061 183.489 132.413 182.701C132.772 181.928 132.787 181.095 132.46 180.201C132.143 179.338 131.592 178.712 130.808 178.324C130.035 177.966 129.217 177.945 128.353 178.261C127.773 178.474 127.305 178.789 126.951 179.206C126.588 179.643 126.38 180.134 126.325 180.677L123.3 180.165C123.464 179.091 123.904 178.128 124.621 177.274C125.324 176.425 126.211 175.804 127.283 175.411Z" fill="#318F89"/>
<path d="M116.702 184.84L110.681 179.92L114.178 179.211L119.493 183.643L118.421 178.351L121.428 177.742L123.791 189.398L120.783 190.008L119.744 184.879L116.773 190.82L113.183 191.548L116.702 184.84Z" fill="#318F89"/>
<path d="M106.94 185.257L101.642 192.244L99.3604 192.34L98.8557 180.458L101.85 180.331L102.137 187.08L107.435 180.093L109.716 179.996L110.221 191.879L107.227 192.006L106.94 185.257Z" fill="#318F89"/>
<path d="M85.6496 192.565L92.4921 193.44L92.1542 196.083L85.3117 195.208L85.6496 192.565ZM92.5508 185.102L86.1494 191.094L83.8843 190.805L85.3926 179.008L88.3655 179.388L87.5088 186.089L93.9102 180.097L96.1753 180.386L94.6671 192.183L91.6941 191.803L92.5508 185.102Z" fill="#318F89"/>
<path d="M73.3761 188.22L63.2128 184.363L67.4328 173.244L70.3017 174.333L67.1029 182.761L71.5285 184.441L74.7272 176.012L77.5961 177.101L73.3761 188.22Z" fill="#318F89"/>
<path d="M60.5464 169.068C62.0992 169.962 63.0971 171.232 63.54 172.878C63.9691 174.516 63.7405 176.105 62.8541 177.644C61.9677 179.183 60.7084 180.178 59.0763 180.629C57.4304 181.071 55.8311 180.846 54.2783 179.951C53.2751 179.374 52.4998 178.607 51.9523 177.651C51.4048 176.695 51.1515 175.689 51.1925 174.633L54.2521 174.611C54.2129 175.156 54.3351 175.675 54.6186 176.167C54.8884 176.652 55.2844 177.045 55.8066 177.346C56.6036 177.805 57.4175 177.916 58.2484 177.681C59.0713 177.46 59.7202 176.937 60.195 176.112C60.6541 175.315 60.7808 174.492 60.5752 173.641C60.3537 172.818 59.8445 172.177 59.0475 171.718C58.5116 171.41 57.9702 171.253 57.4234 171.25C56.8549 171.252 56.345 171.406 55.8935 171.713L54.3447 169.065C55.273 168.501 56.2948 168.221 57.4101 168.222C58.5116 168.216 59.557 168.498 60.5464 169.068Z" fill="#318F89"/>
<path d="M49.4714 168.254L40.8771 169.993L39.1014 168.557L46.5794 159.308L48.91 161.193L44.6625 166.446L53.2568 164.708L55.0324 166.143L47.5544 175.392L45.2239 173.507L49.4714 168.254Z" fill="#318F89"/>
<path d="M35.9276 156.823L37.5293 149.511L39.9048 152.141L38.9433 156.471L43.3644 155.972L45.7398 158.602L38.3207 159.437L36.7856 166.433L34.4101 163.802L35.289 159.771L31.1897 160.236L28.8302 157.624L35.9276 156.823Z" fill="#318F89"/>
<path d="M30.1864 140.968C31.8529 141.326 33.1683 142.25 34.1327 143.742C35.0971 145.233 35.4005 146.812 35.0429 148.479C34.6852 150.145 33.7607 151.46 32.2693 152.425C30.7912 153.381 29.2189 153.68 27.5524 153.322C25.864 152.96 24.5419 152.039 23.5861 150.561C22.6303 149.083 22.3336 147.5 22.696 145.812C23.0583 144.123 23.9719 142.805 25.4367 141.858C26.9148 140.902 28.4981 140.606 30.1864 140.968ZM32.0898 147.81C32.2733 146.955 32.1154 146.141 31.6159 145.369C31.1165 144.597 30.4392 144.119 29.5841 143.935C28.7289 143.752 27.9018 143.918 27.1028 144.435C26.3039 144.952 25.8126 145.637 25.6291 146.493C25.4456 147.348 25.6035 148.162 26.1029 148.934C26.6024 149.706 27.2796 150.184 28.1348 150.368C28.9947 150.529 29.8174 150.356 30.6031 149.848C31.3888 149.34 31.8843 148.661 32.0898 147.81Z" fill="#318F89"/>
<path d="M18.6614 141.49L14.8951 132.856L25.7964 128.1L27.0233 130.913L18.8256 134.489L20.1381 137.498L23.7791 135.909C27.1367 134.445 29.3245 135.316 30.3426 138.522L27.7045 139.673C27.5962 139.028 27.3011 138.629 26.8191 138.476C26.3371 138.323 25.6819 138.427 24.8534 138.789L18.6614 141.49Z" fill="#318F89"/>
<path d="M21.0552 116.506C22.5206 117.376 23.4726 118.672 23.9111 120.393C24.3495 122.114 24.1336 123.708 23.2632 125.173C22.3928 126.639 21.0971 127.59 19.376 128.029C17.6703 128.463 16.0847 128.246 14.6193 127.375C13.1346 126.493 12.1749 125.2 11.7404 123.494C11.3058 121.788 11.5295 120.193 12.4113 118.708C13.2931 117.224 14.5792 116.266 16.2696 115.835C17.9753 115.401 19.5705 115.624 21.0552 116.506ZM20.6773 123.598C21.124 122.846 21.2338 122.025 21.0067 121.133C20.7796 120.242 20.2901 119.573 19.5381 119.126C18.7861 118.68 17.9491 118.574 17.0271 118.809C16.1051 119.044 15.4207 119.537 14.9741 120.289C14.5275 121.041 14.4177 121.863 14.6447 122.754C14.8718 123.645 15.3613 124.314 16.1133 124.761C16.8768 125.188 17.7118 125.286 18.6185 125.055C19.5251 124.824 20.2114 124.339 20.6773 123.598Z" fill="#318F89"/>
<path d="M10.1583 114.331L9.28189 106.243L12.2143 105.925L12.7601 110.962L21.6519 109.999L21.9825 113.049L10.1583 114.331Z" fill="#318F89"/>
<path d="M16.2275 88.0932L15.369 96.9719L12.4331 96.688L13.2917 87.8093L16.2275 88.0932Z" fill="#318F89"/>
<path d="M7.64038 75.7629L10.4947 66.7363L13.4885 67.683L11.6238 73.5798L24.506 77.6533L23.5163 80.7831L7.64038 75.7629Z" fill="#318F89"/>
<path d="M27.5061 58.5484L23.5573 66.5998C25.0702 66.9003 26.2316 66.2247 27.0417 64.5731C27.5584 63.5195 27.5935 62.5477 27.147 61.6575L29.5177 60.0649C30.5244 61.8656 30.525 63.7911 29.5194 65.8413C28.6535 67.6068 27.4248 68.7616 25.8333 69.3057C24.2417 69.8498 22.6344 69.7238 21.0113 68.9278C19.4167 68.1457 18.3368 66.9625 17.7714 65.3782C17.1991 63.8082 17.3215 62.1903 18.1385 60.5244C18.9136 58.9441 20.0866 57.9209 21.6574 57.455C23.2423 56.9606 24.832 57.1044 26.4266 57.8865C26.7256 58.0331 27.0854 58.2538 27.5061 58.5484ZM21.4007 65.5951L24.0716 60.1492C23.2972 59.9636 22.6062 60.0221 21.9986 60.3246C21.3979 60.6129 20.937 61.0845 20.6158 61.7395C20.2527 62.4798 20.1447 63.1863 20.2916 63.8589C20.4244 64.5246 20.7941 65.1033 21.4007 65.5951Z" fill="#318F89"/>
<path d="M38.4786 46.3785L31.3461 40.8648L33.2228 38.4371L42.6325 45.7112L32.2306 59.1669L22.821 51.8929L24.6977 49.4652L31.8302 54.9789L34.2161 51.8926L27.0836 46.3789L28.9603 43.9512L36.0928 49.4649L38.4786 46.3785Z" fill="#318F89"/>
<path d="M35.6714 36.1387L43.543 29.1331L45.5039 31.3365L42.732 33.8034L48.678 40.4845L46.3858 42.5245L40.4398 35.8434L37.6323 38.342L35.6714 36.1387Z" fill="#318F89"/>
<path d="M54.2023 23.5149L53.4403 22.3364L56.017 20.6702L62.475 30.6575L59.8983 32.3237L59.1362 31.1452C58.9925 32.6167 58.2215 33.8045 56.8233 34.7087C55.4916 35.5697 54.0192 35.8042 52.406 35.4121C50.7975 34.9981 49.5154 34.0521 48.5596 32.574C47.6124 31.1092 47.28 29.5584 47.5625 27.9217C47.8582 26.2763 48.6719 25.0231 50.0036 24.1621C51.4018 23.2579 52.8014 23.0422 54.2023 23.5149ZM53.2328 32.4415C54.0879 32.625 54.915 32.4584 55.714 31.9418C56.513 31.4251 57.0042 30.7392 57.1877 29.8841C57.376 29.007 57.2031 28.1557 56.6693 27.33C56.1354 26.5044 55.4342 26.0042 54.5658 25.8292C53.702 25.6324 52.8706 25.7923 52.0716 26.3089C51.2727 26.8256 50.7857 27.5182 50.6108 28.3866C50.4273 29.2418 50.6024 30.0822 51.1363 30.9078C51.6702 31.7334 52.369 32.2446 53.2328 32.4415Z" fill="#318F89"/>
<path d="M60.0625 18.6063L68.7103 14.8722L73.425 25.7912L70.6079 27.0076L67.0625 18.7965L64.0488 20.0978L65.6235 23.7447C67.0757 27.1078 66.1967 29.2923 62.9865 30.2985L61.8455 27.6561C62.4907 27.5502 62.8908 27.2566 63.0456 26.7751C63.2005 26.2937 63.0988 25.6381 62.7404 24.8083L60.0625 18.6063Z" fill="#318F89"/>
<path d="M76.5081 16.41L78.7396 15.8234C80.0432 15.4807 81.1885 15.565 82.1755 16.0762C83.1585 16.572 83.8052 17.4104 84.1156 18.5914C84.426 19.7723 84.2772 20.828 83.6692 21.7585C83.0571 22.6736 82.0993 23.3025 80.7956 23.6452L75.5965 25.0118L72.5728 13.5092L75.5405 12.7291L76.5081 16.41ZM77.8748 21.6092L80.1293 21.0165C80.5434 20.9077 80.8505 20.704 81.0508 20.4054C81.2623 20.0874 81.3177 19.7367 81.2169 19.3533C81.1162 18.9699 80.8955 18.6918 80.5549 18.5189C80.2297 18.3421 79.86 18.3081 79.4459 18.4169L77.1914 19.0096L77.8748 21.6092Z" fill="#318F89"/>
<path d="M84.4842 10.5066L94.9514 9.2909L95.2917 12.2208L91.6057 12.6489L92.6376 21.533L89.5896 21.887L88.5577 13.0029L84.8245 13.4365L84.4842 10.5066Z" fill="#318F89"/>
<path d="M103.098 9.09189L113.594 10.0253L113.333 12.9633L109.637 12.6346L108.845 21.5433L105.788 21.2714L106.58 12.3628L102.837 12.0299L103.098 9.09189Z" fill="#318F89"/>
<path d="M126.55 20.2819L117.844 18.1342C117.872 19.6764 118.779 20.6678 120.565 21.1083C121.704 21.3894 122.661 21.2172 123.436 20.5917L125.496 22.5698C123.95 23.9362 122.069 24.3459 119.852 23.799C117.943 23.328 116.553 22.3728 115.683 20.9332C114.813 19.4936 114.595 17.8963 115.028 16.1411C115.453 14.4167 116.38 13.11 117.808 12.2209C119.221 11.328 120.828 11.1038 122.629 11.5481C124.338 11.9697 125.587 12.8985 126.376 14.3345C127.196 15.778 127.393 17.362 126.968 19.0864C126.888 19.4097 126.749 19.8082 126.55 20.2819ZM118.367 15.8133L124.256 17.2661C124.273 16.4699 124.069 15.807 123.644 15.2776C123.235 14.752 122.676 14.4018 121.968 14.2271C121.167 14.0296 120.454 14.0741 119.828 14.3607C119.206 14.6319 118.719 15.1161 118.367 15.8133Z" fill="#318F89"/>
<path d="M137.978 16.7944C139.446 17.4348 140.452 18.5397 140.996 20.1091C141.554 21.6848 141.485 23.2721 140.787 24.8709C140.077 26.4989 138.958 27.6369 137.429 28.285C135.93 28.9459 134.439 28.9529 132.957 28.3062C131.43 27.6404 130.485 26.5963 130.119 25.1738L127.656 30.8207L124.843 29.5938L131.501 14.332L134.313 15.5589L133.752 16.8452C135.043 16.1456 136.452 16.1286 137.978 16.7944ZM131.816 23.6043C132.135 24.4185 132.731 25.0157 133.603 25.3962C134.475 25.7766 135.318 25.807 136.133 25.4875C136.968 25.1597 137.582 24.5452 137.975 23.644C138.368 22.7429 138.397 21.882 138.063 21.0615C137.75 20.2328 137.157 19.6283 136.285 19.2478C135.413 18.8674 134.567 18.8443 133.746 19.1784C132.932 19.498 132.329 20.1083 131.935 21.0095C131.542 21.9107 131.502 22.7756 131.816 23.6043Z" fill="#318F89"/>
<path d="M152.666 27.0892L153.441 25.9191L155.999 27.6135L149.432 37.5292L146.874 35.8348L147.648 34.6647C146.242 35.122 144.845 34.8909 143.457 33.9714C142.135 33.0958 141.331 31.8403 141.044 30.205C140.78 28.5653 141.134 27.0117 142.106 25.5442C143.069 24.0899 144.357 23.1646 145.97 22.7683C147.596 22.3807 149.07 22.6248 150.392 23.5005C151.781 24.4199 152.538 25.6161 152.666 27.0892ZM144.098 29.7736C144.272 30.6308 144.755 31.322 145.549 31.8474C146.342 32.3728 147.167 32.5485 148.024 32.3744C148.903 32.1958 149.614 31.6966 150.157 30.877C150.7 30.0573 150.878 29.2145 150.691 28.3486C150.525 27.4782 150.046 26.7804 149.253 26.255C148.459 25.7296 147.63 25.5605 146.764 25.7479C145.907 25.922 145.207 26.4189 144.664 27.2386C144.121 28.0583 143.932 28.9033 144.098 29.7736Z" fill="#318F89"/>
<path d="M159.254 30.1963L167.161 37.6563L158.999 46.307L156.767 44.2012L162.953 37.644L159.51 34.3955L153.324 40.9528L151.092 38.847L159.254 30.1963Z" fill="#318F89"/>
<path d="M166.417 47.1692L175.178 47.524L176.562 49.3408L167.099 56.546L165.283 54.1614L170.658 50.0689L161.897 49.7141L160.514 47.8973L169.976 40.6921L171.792 43.0766L166.417 47.1692Z" fill="#318F89"/>
<path d="M180.776 56.4401L183.41 61.3434L172.933 66.9723L171.515 64.3321L174.784 62.5759L174.277 61.633L169.714 60.9795L168.036 57.8573L173.027 58.5515C172.946 57.7308 173.097 56.9566 173.48 56.2288C173.87 55.5149 174.422 54.9666 175.134 54.5838C176.098 54.066 177.131 53.9611 178.233 54.2693C179.313 54.5711 180.161 55.2947 180.776 56.4401ZM179.582 59.9978L178.479 57.9443C178.269 57.5532 177.974 57.2887 177.594 57.1509C177.221 57.027 176.846 57.0664 176.469 57.2691C176.092 57.4717 175.859 57.7588 175.771 58.1303C175.69 58.5158 175.754 58.9041 175.964 59.2953L177.068 61.3488L179.582 59.9978Z" fill="#318F89"/>
<path d="M184.029 81.9148L181.631 73.3232L184.472 72.5302L186.87 81.1217L184.029 81.9148Z" fill="#318F89"/>
<path d="M116.5 106C117.605 106 118.5 106.895 118.5 108V111.5C118.5 112.604 119.395 113.5 120.5 113.5H124C125.105 113.5 126 114.395 126 115.5V116.5C126 117.604 125.105 118.5 124 118.5H120.5C119.395 118.5 118.5 119.395 118.5 120.5V124C118.5 125.104 117.605 126 116.5 126H115.5C114.395 126 113.5 125.104 113.5 124V120.5C113.5 119.395 112.605 118.5 111.5 118.5H108C106.895 118.5 106 117.604 106 116.5V115.5C106 114.395 106.895 113.5 108 113.5H111.5C112.605 113.5 113.5 112.604 113.5 111.5V108C113.5 106.895 114.395 106 115.5 106H116.5ZM121.608 82.892C127.008 88.307 127.43 96.7845 122.875 102.667C120.815 101.6 118.475 101 116 101C107.715 101 101 107.715 101 116C101 120.57 103.071 122.378 104.919 123.719C105.459 124.111 105.467 124.9 104.933 125.3L104.669 125.498C104.282 125.788 103.742 125.76 103.388 125.43L79.8025 103.482C74.5425 97.592 74.74 88.547 80.3925 82.892C86.055 77.232 95.1125 79.042 101.003 82.322C106.875 79.0495 115.95 77.2245 121.608 82.892Z" fill="#318F89"/>
</svg>
