<svg width="36" height="36" viewBox="0 0 36 36" fill="none" xmlns="http://www.w3.org/2000/svg">
<path fill-rule="evenodd" clip-rule="evenodd" d="M35.8823 28.1994C35.7096 27.8557 35.3531 27.635 34.9702 27.635C34.5772 27.635 34.4393 27.7071 33.9829 28.1506L33.6137 28.5093L33.2954 28.1969L32.9771 27.8844L30.4293 30.4325L27.8815 32.9805L28.1939 33.2989L28.5063 33.6173L28.1477 33.9865C27.7086 34.4383 27.6321 34.5818 27.6321 34.9527C27.6321 35.6479 28.2217 36.1187 28.9108 35.9737C29.1834 35.9164 35.7099 29.4686 35.8991 29.0696C36.0389 28.7751 36.0335 28.5004 35.8823 28.1994ZM33.6365 23.2162C33.4172 22.771 32.9752 22.571 32.4352 22.6722C32.2256 22.7116 32.0204 22.871 31.4301 23.4527L30.6883 24.1838L29.6369 23.1305L28.5855 22.0772L27.3875 23.2662C26.415 24.2316 26.1362 24.4695 25.9059 24.5307C25.1154 24.7408 24.4042 24.0295 24.6142 23.2389C24.6754 23.0086 24.9133 22.7297 25.8786 21.7571L27.0676 20.559L26.1535 19.6467L25.2394 18.7346L24.0609 19.9049C22.7918 21.1652 22.7054 21.231 22.3219 21.231C21.6245 21.231 21.1372 20.6565 21.262 19.9814C21.3028 19.7606 21.5086 19.5188 22.5355 18.4849L23.7603 17.2517L22.5465 16.0394L21.3328 14.827L20.1725 15.9954C18.7598 17.418 18.5417 17.5361 17.9161 17.217C17.5596 17.035 17.3593 16.7119 17.359 16.3179C17.3585 15.8778 17.3995 15.8225 18.6848 14.528L19.8551 13.3493L18.6602 12.1526L17.4653 10.9561L14.2102 14.2108L10.9553 17.4657L17.5684 24.0809L24.1815 30.6962L23.4505 31.4352C22.8668 32.0251 22.7094 32.2273 22.6699 32.438C22.5184 33.2462 23.1366 33.884 23.9148 33.7224C24.197 33.6639 33.4867 24.4543 33.6555 24.0658C33.7837 23.7707 33.7778 23.5027 33.6365 23.2162ZM15.3715 8.86831C13.9661 7.48161 12.4897 7.18872 10.9748 7.99625C10.4192 8.29238 8.2407 10.4718 7.98063 10.9918C7.19535 12.5617 7.51256 14.0566 8.92508 15.4422L9.44445 15.9517L12.6986 12.6967L15.9526 9.44172L15.3715 8.86831ZM5.09747 3.58962C2.10538 0.604115 1.59107 0.119736 1.3329 0.0438738C0.541076 -0.188639 -0.188616 0.54113 0.0438722 1.33304C0.130915 1.62938 6.91719 8.56388 7.1202 8.56388C7.21414 8.56388 8.56298 7.21243 8.56298 7.11835C8.56298 7.07943 7.00346 5.49153 5.09747 3.58962Z" fill="url(#paint0_linear_149_2451)"/>
<defs>
<linearGradient id="paint0_linear_149_2451" x1="23.7143" y1="17.9999" x2="-40.8571" y2="17.9999" gradientUnits="userSpaceOnUse">
<stop stop-color="white"/>
<stop offset="1" stop-color="white" stop-opacity="0"/>
</linearGradient>
</defs>
</svg>
