<svg width="36" height="36" viewBox="0 0 36 36" fill="none" xmlns="http://www.w3.org/2000/svg">
<path d="M29.4898 15.4688L25.8336 3.05158C25.7638 2.81901 25.6206 2.61526 25.4254 2.47079C25.2303 2.32632 24.9936 2.24887 24.7508 2.25001H11.2508C11.0079 2.24887 10.7713 2.32632 10.5761 2.47079C10.3809 2.61526 10.2378 2.81901 10.168 3.05158L6.5117 15.4688C6.19991 16.5004 6.2749 17.6103 6.72264 18.5906C7.62545 20.5851 9.04063 22.3047 10.8241 23.5744C12.6076 24.8441 14.6957 25.6185 16.8758 25.8188V31.5H12.3758C12.0774 31.5 11.7913 31.6185 11.5803 31.8295C11.3693 32.0405 11.2508 32.3266 11.2508 32.625C11.2508 32.9234 11.3693 33.2095 11.5803 33.4205C11.7913 33.6315 12.0774 33.75 12.3758 33.75H23.6258C23.9241 33.75 24.2103 33.6315 24.4213 33.4205C24.6322 33.2095 24.7508 32.9234 24.7508 32.625C24.7508 32.3266 24.6322 32.0405 24.4213 31.8295C24.2103 31.6185 23.9241 31.5 23.6258 31.5H19.1258V25.8188C21.3059 25.6185 23.3939 24.8441 25.1774 23.5744C26.9609 22.3047 28.3761 20.5851 29.2789 18.5906C29.7266 17.6103 29.8016 16.5004 29.4898 15.4688ZM18.507 13.6125C14.8226 11.7844 11.8695 11.7844 9.80233 12.2766L12.0945 4.50001H23.907L26.832 14.4141C25.3273 15.0469 22.4726 15.5953 18.507 13.6125V13.6125Z" fill="url(#paint0_linear_149_2466)"/>
<defs>
<linearGradient id="paint0_linear_149_2466" x1="18.0007" y1="13" x2="18.0007" y2="69.5" gradientUnits="userSpaceOnUse">
<stop stop-color="white"/>
<stop offset="1" stop-color="white" stop-opacity="0"/>
</linearGradient>
</defs>
</svg>
