<svg width="36" height="36" viewBox="0 0 36 36" fill="none" xmlns="http://www.w3.org/2000/svg">
<path fill-rule="evenodd" clip-rule="evenodd" d="M1.57203 0.105959C1.10583 0.274726 0.675023 0.603328 0.419629 0.985011C-0.0398224 1.67167 -0.0109586 0.700705 0.00936097 14.7858L0.0279573 27.6316L0.203725 27.9988C0.427671 28.4667 0.862207 28.9135 1.32037 29.1468L1.67937 29.3296H9.14662H16.6139L16.9538 29.1681C17.4443 28.9351 17.9593 28.3743 18.1653 27.8487L18.3371 27.4101V14.675V1.93996L18.1701 1.51457C17.9674 0.998373 17.469 0.451762 16.9729 0.201564L16.6139 0.020468L9.25432 0.00481678C2.70109 -0.0090626 1.85944 0.00201136 1.57203 0.105959ZM20.2757 3.26322C19.9734 3.39257 19.7325 3.57056 19.4679 3.85996L19.091 4.27236L19.0893 15.8043C19.088 23.4271 19.0625 27.4478 19.0137 27.6654C18.7794 28.7107 18.0592 29.5427 17.0163 29.9728C16.6278 30.133 16.5108 30.1401 13.6413 30.1771L10.6688 30.2155L14.3952 31.8714C16.4448 32.7822 19.3495 34.0743 20.8501 34.7429C23.2577 35.8155 23.6346 35.9626 24.0555 35.994C24.8774 36.0553 25.7449 35.6436 26.1585 34.9958C26.2558 34.8435 28.5099 29.5529 31.1677 23.2389L36 11.7589L35.9989 11.0575C35.998 10.444 35.9742 10.3097 35.8087 9.98556C35.3726 9.13161 35.5782 9.24088 28.3891 6.04257L21.8553 3.1358L21.2809 3.1073C20.7918 3.08309 20.6425 3.10627 20.2757 3.26322ZM3.6192 3.67606L3.77932 3.83073L4.04972 3.6421C4.37548 3.41479 4.61558 3.40416 4.93265 3.60297C5.70256 4.08558 5.3417 5.33745 4.19957 6.14629L3.801 6.42846L3.50174 6.22484C2.27251 5.38846 1.86964 3.96265 2.74762 3.55594C3.03209 3.42424 3.41278 3.47665 3.6192 3.67606ZM22.4092 7.84807C22.4775 8.41099 22.5261 8.87632 22.5174 8.88215C22.5086 8.88791 22.1365 9.16771 21.6903 9.50392C21.2441 9.8402 20.8642 10.1001 20.8461 10.0815C20.8102 10.0444 20.6003 8.38582 20.5994 8.13097C20.5988 7.96804 22.0614 6.76813 22.2138 6.80652C22.253 6.81642 22.341 7.28507 22.4092 7.84807ZM8.01777 11.0964C8.2652 11.172 8.51183 11.3272 8.76593 11.5675L9.14511 11.9259L9.5281 11.566C10.5781 10.5793 12.1917 10.9021 12.8235 12.2253C13.5889 13.8288 12.2238 16.3491 9.66861 18.0499C9.10548 18.4247 9.1673 18.438 8.21307 17.74C6.38919 16.4058 5.29984 14.7181 5.29775 13.2229C5.2956 11.6551 6.57408 10.6556 8.01777 11.0964ZM25.308 17.6062C25.6086 20.1392 25.6728 20.8581 25.6044 20.9263C25.5564 20.9741 24.3863 21.8665 23.0041 22.9095L20.4911 24.8057L20.1179 21.7153C19.9127 20.0155 19.7442 18.5251 19.7435 18.4033C19.7423 18.1969 19.9174 18.0499 22.3066 16.2517C23.7169 15.1902 24.8829 14.3332 24.8976 14.3474C24.9123 14.3615 25.097 15.828 25.308 17.6062ZM14.3062 23.1259C14.4499 23.2262 14.5676 23.2832 14.5676 23.2526C14.5676 22.9513 15.3961 22.8625 15.7061 23.1306C16.3714 23.7062 15.963 24.8657 14.8069 25.6836L14.4937 25.9052L14.2614 25.7418C13.6089 25.2829 13.1095 24.6446 12.9958 24.1242C12.801 23.2327 13.5938 22.6288 14.3062 23.1259ZM24.7136 30.0424C24.7812 30.6172 24.8282 31.0944 24.8179 31.103C24.5391 31.3326 23.2067 32.3192 23.1751 32.3193C23.1347 32.3195 23.0453 31.7065 22.9275 30.6215L22.8833 30.2155L23.6973 29.6064C24.145 29.2714 24.5292 28.9974 24.551 28.9974C24.5727 28.9974 24.6459 29.4676 24.7136 30.0424Z" fill="url(#paint0_linear_149_2482)"/>
<defs>
<linearGradient id="paint0_linear_149_2482" x1="17.9999" y1="12.2857" x2="17.9999" y2="76.8571" gradientUnits="userSpaceOnUse">
<stop stop-color="white"/>
<stop offset="1" stop-color="white" stop-opacity="0"/>
</linearGradient>
</defs>
</svg>
