<svg width="89" height="89" viewBox="0 0 89 89" fill="none" xmlns="http://www.w3.org/2000/svg">
<g filter="url(#filter0_d_149_2909)">
<rect x="4" width="81" height="81" rx="40.5" fill="white" fill-opacity="0.3"/>
<g filter="url(#filter1_i_149_2909)">
<rect x="14.4512" y="10.4512" width="60.0968" height="60.0968" rx="30.0484" fill="#ACACAC"/>
<rect x="14.4512" y="10.4512" width="60.0968" height="60.0968" rx="30.0484" fill="url(#paint0_linear_149_2909)"/>
<rect x="14.4512" y="10.4512" width="60.0968" height="60.0968" rx="30.0484" fill="url(#paint1_linear_149_2909)"/>
</g>
<path fill-rule="evenodd" clip-rule="evenodd" d="M35.9805 39.044C35.9805 35.0081 39.2522 31.7363 43.2882 31.7363C47.3241 31.7363 50.5959 35.0081 50.5959 39.044C50.5959 41.0147 49.8158 42.8032 48.5476 44.1175C48.5134 44.1438 48.4805 44.1727 48.4491 44.204C48.4178 44.2354 48.3889 44.2684 48.3625 44.3026C47.0481 45.5713 45.2593 46.3517 43.2882 46.3517C39.2522 46.3517 35.9805 43.0799 35.9805 39.044ZM49.1253 46.2944C47.5288 47.5813 45.4984 48.3517 43.2882 48.3517C38.1477 48.3517 33.9805 44.1845 33.9805 39.044C33.9805 33.9035 38.1477 29.7363 43.2882 29.7363C48.4287 29.7363 52.5959 33.9035 52.5959 39.044C52.5959 41.2538 51.8258 43.2837 50.5394 44.88L54.3807 48.7213C54.7712 49.1119 54.7712 49.745 54.3807 50.1355C53.9901 50.5261 53.357 50.5261 52.9664 50.1355L49.1253 46.2944ZM43.2891 34.9287C43.8413 34.9287 44.2891 35.3764 44.2891 35.9287V38.0439H46.4026C46.9549 38.0439 47.4026 38.4917 47.4026 39.0439C47.4026 39.5962 46.9549 40.0439 46.4026 40.0439H44.2891V42.1595C44.2891 42.7118 43.8413 43.1595 43.2891 43.1595C42.7368 43.1595 42.2891 42.7118 42.2891 42.1595V40.0439H40.1719C39.6196 40.0439 39.1719 39.5962 39.1719 39.0439C39.1719 38.4917 39.6196 38.0439 40.1719 38.0439H42.2891V35.9287C42.2891 35.3764 42.7368 34.9287 43.2891 34.9287Z" fill="url(#paint2_linear_149_2909)"/>
</g>
<defs>
<filter id="filter0_d_149_2909" x="0" y="0" width="89" height="89" filterUnits="userSpaceOnUse" color-interpolation-filters="sRGB">
<feFlood flood-opacity="0" result="BackgroundImageFix"/>
<feColorMatrix in="SourceAlpha" type="matrix" values="0 0 0 0 0 0 0 0 0 0 0 0 0 0 0 0 0 0 127 0" result="hardAlpha"/>
<feOffset dy="4"/>
<feGaussianBlur stdDeviation="2"/>
<feComposite in2="hardAlpha" operator="out"/>
<feColorMatrix type="matrix" values="0 0 0 0 0 0 0 0 0 0 0 0 0 0 0 0 0 0 0.25 0"/>
<feBlend mode="normal" in2="BackgroundImageFix" result="effect1_dropShadow_149_2909"/>
<feBlend mode="normal" in="SourceGraphic" in2="effect1_dropShadow_149_2909" result="shape"/>
</filter>
<filter id="filter1_i_149_2909" x="14.4512" y="10.4512" width="60.9758" height="60.9758" filterUnits="userSpaceOnUse" color-interpolation-filters="sRGB">
<feFlood flood-opacity="0" result="BackgroundImageFix"/>
<feBlend mode="normal" in="SourceGraphic" in2="BackgroundImageFix" result="shape"/>
<feColorMatrix in="SourceAlpha" type="matrix" values="0 0 0 0 0 0 0 0 0 0 0 0 0 0 0 0 0 0 127 0" result="hardAlpha"/>
<feOffset dx="0.878173" dy="0.878173"/>
<feGaussianBlur stdDeviation="2.63452"/>
<feComposite in2="hardAlpha" operator="arithmetic" k2="-1" k3="1"/>
<feColorMatrix type="matrix" values="0 0 0 0 1 0 0 0 0 1 0 0 0 0 1 0 0 0 0.6 0"/>
<feBlend mode="normal" in2="shape" result="effect1_innerShadow_149_2909"/>
</filter>
<linearGradient id="paint0_linear_149_2909" x1="16.4682" y1="57.7332" x2="62.9677" y2="56.0634" gradientUnits="userSpaceOnUse">
<stop stop-color="#F76B2A"/>
<stop offset="1" stop-color="#FC5A37"/>
</linearGradient>
<linearGradient id="paint1_linear_149_2909" x1="59.9191" y1="-10.5036" x2="37.1199" y2="74.2948" gradientUnits="userSpaceOnUse">
<stop stop-color="#318E88"/>
<stop offset="1" stop-color="#73C1A8"/>
</linearGradient>
<linearGradient id="paint2_linear_149_2909" x1="44.327" y1="36.7979" x2="44.327" y2="73.9123" gradientUnits="userSpaceOnUse">
<stop stop-color="white"/>
<stop offset="1" stop-color="white" stop-opacity="0"/>
</linearGradient>
</defs>
</svg>
